<svg width="24" height="24" viewBox="0 0 24 24" fill="none" xmlns="http://www.w3.org/2000/svg">
<mask id="path-1-inside-1_94_504" fill="white">
<path fill-rule="evenodd" clip-rule="evenodd" d="M12 0C5.37258 0 0 5.37258 0 12C0 18.6274 5.37258 24 12 24C18.6274 24 24 18.6274 24 12C24 5.37258 18.6274 0 12 0ZM13.2508 12.5271V19.0557H10.5495V12.5274H9.2V10.2776H10.5495V8.92678C10.5495 7.0914 11.3116 6 13.4766 6H15.279V8.25006H14.1524C13.3096 8.25006 13.2538 8.56447 13.2538 9.15125L13.2508 10.2773H15.2918L15.053 12.5271H13.2508Z"/>
</mask>
<path fill-rule="evenodd" clip-rule="evenodd" d="M12 0C5.37258 0 0 5.37258 0 12C0 18.6274 5.37258 24 12 24C18.6274 24 24 18.6274 24 12C24 5.37258 18.6274 0 12 0ZM13.2508 12.5271V19.0557H10.5495V12.5274H9.2V10.2776H10.5495V8.92678C10.5495 7.0914 11.3116 6 13.4766 6H15.279V8.25006H14.1524C13.3096 8.25006 13.2538 8.56447 13.2538 9.15125L13.2508 10.2773H15.2918L15.053 12.5271H13.2508Z" fill="white"/>
<path d="M13.2508 19.0557V20.0557H14.2508V19.0557H13.2508ZM13.2508 12.5271V11.5271H12.2508V12.5271H13.2508ZM10.5495 19.0557H9.54954V20.0557H10.5495V19.0557ZM10.5495 12.5274H11.5495V11.5274H10.5495V12.5274ZM9.2 12.5274H8.2V13.5274H9.2V12.5274ZM9.2 10.2776V9.27756H8.2V10.2776H9.2ZM10.5495 10.2776V11.2776H11.5495V10.2776H10.5495ZM15.279 6H16.279V5H15.279V6ZM15.279 8.25006V9.25006H16.279V8.25006H15.279ZM13.2538 9.15125L14.2538 9.15397V9.15125H13.2538ZM13.2508 10.2773L12.2508 10.2746L12.2481 11.2773H13.2508V10.2773ZM15.2918 10.2773L16.2862 10.3829L16.4036 9.2773H15.2918V10.2773ZM15.053 12.5271V13.5271H15.9524L16.0474 12.6327L15.053 12.5271ZM1 12C1 5.92487 5.92487 1 12 1V-1C4.8203 -1 -1 4.8203 -1 12H1ZM12 23C5.92487 23 1 18.0751 1 12H-1C-1 19.1797 4.8203 25 12 25V23ZM23 12C23 18.0751 18.0751 23 12 23V25C19.1797 25 25 19.1797 25 12H23ZM12 1C18.0751 1 23 5.92487 23 12H25C25 4.8203 19.1797 -1 12 -1V1ZM14.2508 19.0557V12.5271H12.2508V19.0557H14.2508ZM10.5495 20.0557H13.2508V18.0557H10.5495V20.0557ZM9.54954 12.5274V19.0557H11.5495V12.5274H9.54954ZM9.2 13.5274H10.5495V11.5274H9.2V13.5274ZM8.2 10.2776V12.5274H10.2V10.2776H8.2ZM10.5495 9.27756H9.2V11.2776H10.5495V9.27756ZM9.54954 8.92678V10.2776H11.5495V8.92678H9.54954ZM13.4766 5C12.2388 5 11.1856 5.31348 10.4646 6.09882C9.7592 6.8671 9.54954 7.89719 9.54954 8.92678H11.5495C11.5495 8.12099 11.7209 7.68769 11.9378 7.45142C12.1391 7.23222 12.5493 7 13.4766 7V5ZM15.279 5H13.4766V7H15.279V5ZM16.279 8.25006V6H14.279V8.25006H16.279ZM14.1524 9.25006H15.279V7.25006H14.1524V9.25006ZM14.2538 9.15125C14.2538 9.08408 14.2547 9.03374 14.2567 8.99296C14.2587 8.95213 14.2614 8.93183 14.2625 8.92498C14.2651 8.90885 14.2546 8.99495 14.1736 9.0981C14.1331 9.14973 14.0865 9.1906 14.0409 9.22009C13.9973 9.24829 13.9645 9.25976 13.9545 9.26289C13.9455 9.26571 13.9545 9.26191 13.9895 9.25776C14.0243 9.25364 14.077 9.25006 14.1524 9.25006V7.25006C13.6796 7.25006 13.025 7.3224 12.6005 7.86312C12.4002 8.11822 12.3231 8.39295 12.2889 8.60081C12.2561 8.80071 12.2538 9.00235 12.2538 9.15125H14.2538ZM14.2508 10.28L14.2538 9.15397L12.2538 9.14853L12.2508 10.2746L14.2508 10.28ZM15.2918 9.2773H13.2508V11.2773H15.2918V9.2773ZM16.0474 12.6327L16.2862 10.3829L14.2974 10.1717L14.0586 12.4215L16.0474 12.6327ZM13.2508 13.5271H15.053V11.5271H13.2508V13.5271Z" fill="white" mask="url(#path-1-inside-1_94_504)"/>
</svg>
