<svg width="24" height="24" viewBox="0 0 24 24" fill="none" xmlns="http://www.w3.org/2000/svg">
<mask id="path-1-inside-1_94_510" fill="white">
<path fill-rule="evenodd" clip-rule="evenodd" d="M12 0C5.37258 0 0 5.37258 0 12C0 18.6274 5.37258 24 12 24C18.6274 24 24 18.6274 24 12C24 5.37258 18.6274 0 12 0ZM9.36125 5.63867C10.0439 5.6076 10.2621 5.6 12.0002 5.6H11.9982C13.7369 5.6 13.9542 5.6076 14.6369 5.63867C15.3182 5.66987 15.7836 5.77773 16.1916 5.936C16.6129 6.09934 16.9689 6.31801 17.3249 6.67401C17.6809 7.02975 17.8996 7.38682 18.0636 7.80775C18.2209 8.21469 18.3289 8.67976 18.3609 9.3611C18.3916 10.0438 18.3996 10.2619 18.3996 12.0001C18.3996 13.7382 18.3916 13.9558 18.3609 14.6385C18.3289 15.3196 18.2209 15.7848 18.0636 16.1918C17.8996 16.6126 17.6809 16.9697 17.3249 17.3255C16.9693 17.6815 16.6128 17.9007 16.192 18.0641C15.7848 18.2224 15.3192 18.3303 14.6378 18.3615C13.9552 18.3925 13.7377 18.4001 11.9994 18.4001C10.2614 18.4001 10.0434 18.3925 9.36071 18.3615C8.67951 18.3303 8.2143 18.2224 7.8071 18.0641C7.38643 17.9007 7.02936 17.6815 6.67375 17.3255C6.31788 16.9697 6.09921 16.6126 5.93561 16.1917C5.77748 15.7848 5.66961 15.3197 5.63828 14.6384C5.60734 13.9557 5.59961 13.7382 5.59961 12.0001C5.59961 10.2619 5.60761 10.0436 5.63814 9.36097C5.66881 8.6799 5.77681 8.21469 5.93548 7.80762C6.09948 7.38682 6.31815 7.02975 6.67415 6.67401C7.02989 6.31814 7.38696 6.09947 7.8079 5.936C8.21484 5.77773 8.67991 5.66987 9.36125 5.63867Z"/>
</mask>
<path fill-rule="evenodd" clip-rule="evenodd" d="M12 0C5.37258 0 0 5.37258 0 12C0 18.6274 5.37258 24 12 24C18.6274 24 24 18.6274 24 12C24 5.37258 18.6274 0 12 0ZM9.36125 5.63867C10.0439 5.6076 10.2621 5.6 12.0002 5.6H11.9982C13.7369 5.6 13.9542 5.6076 14.6369 5.63867C15.3182 5.66987 15.7836 5.77773 16.1916 5.936C16.6129 6.09934 16.9689 6.31801 17.3249 6.67401C17.6809 7.02975 17.8996 7.38682 18.0636 7.80775C18.2209 8.21469 18.3289 8.67976 18.3609 9.3611C18.3916 10.0438 18.3996 10.2619 18.3996 12.0001C18.3996 13.7382 18.3916 13.9558 18.3609 14.6385C18.3289 15.3196 18.2209 15.7848 18.0636 16.1918C17.8996 16.6126 17.6809 16.9697 17.3249 17.3255C16.9693 17.6815 16.6128 17.9007 16.192 18.0641C15.7848 18.2224 15.3192 18.3303 14.6378 18.3615C13.9552 18.3925 13.7377 18.4001 11.9994 18.4001C10.2614 18.4001 10.0434 18.3925 9.36071 18.3615C8.67951 18.3303 8.2143 18.2224 7.8071 18.0641C7.38643 17.9007 7.02936 17.6815 6.67375 17.3255C6.31788 16.9697 6.09921 16.6126 5.93561 16.1917C5.77748 15.7848 5.66961 15.3197 5.63828 14.6384C5.60734 13.9557 5.59961 13.7382 5.59961 12.0001C5.59961 10.2619 5.60761 10.0436 5.63814 9.36097C5.66881 8.6799 5.77681 8.21469 5.93548 7.80762C6.09948 7.38682 6.31815 7.02975 6.67415 6.67401C7.02989 6.31814 7.38696 6.09947 7.8079 5.936C8.21484 5.77773 8.67991 5.66987 9.36125 5.63867Z" fill="white"/>
<path d="M9.36125 5.63867L9.31579 4.6397L9.3155 4.63971L9.36125 5.63867ZM14.6369 5.63867L14.6826 4.63971L14.6824 4.6397L14.6369 5.63867ZM16.1916 5.936L15.8299 6.86831L15.8301 6.86839L16.1916 5.936ZM17.3249 6.67401L16.6178 7.38112L16.6181 7.38138L17.3249 6.67401ZM18.0636 7.80775L18.9963 7.44714L18.9954 7.44472L18.0636 7.80775ZM18.3609 9.3611L19.3599 9.31623L19.3598 9.31419L18.3609 9.3611ZM18.3609 14.6385L19.3598 14.6854L19.3599 14.6834L18.3609 14.6385ZM18.0636 16.1918L18.9953 16.555L18.9964 16.5524L18.0636 16.1918ZM17.3249 17.3255L16.6181 16.6181L16.6174 16.6187L17.3249 17.3255ZM16.192 18.0641L15.8299 17.132L15.8297 17.1321L16.192 18.0641ZM14.6378 18.3615L14.6833 19.3604L14.6836 19.3604L14.6378 18.3615ZM9.36071 18.3615L9.31496 19.3604L9.31525 19.3604L9.36071 18.3615ZM7.8071 18.0641L8.16937 17.1321L8.1693 17.132L7.8071 18.0641ZM6.67375 17.3255L7.38126 16.6187L7.38073 16.6182L6.67375 17.3255ZM5.93561 16.1917L5.00352 16.5539L5.00354 16.554L5.93561 16.1917ZM5.63828 14.6384L4.6393 14.6836L4.63933 14.6843L5.63828 14.6384ZM5.63814 9.36097L4.63916 9.31599L4.63914 9.31629L5.63814 9.36097ZM5.93548 7.80762L6.8672 8.17079L6.86722 8.17075L5.93548 7.80762ZM6.67415 6.67401L7.381 7.38138L7.38139 7.38098L6.67415 6.67401ZM7.8079 5.936L8.1699 6.86818L8.17037 6.868L7.8079 5.936ZM1 12C1 5.92487 5.92487 1 12 1V-1C4.8203 -1 -1 4.8203 -1 12H1ZM12 23C5.92487 23 1 18.0751 1 12H-1C-1 19.1797 4.8203 25 12 25V23ZM23 12C23 18.0751 18.0751 23 12 23V25C19.1797 25 25 19.1797 25 12H23ZM12 1C18.0751 1 23 5.92487 23 12H25C25 4.8203 19.1797 -1 12 -1V1ZM12.0002 4.6C10.2569 4.6 10.0211 4.6076 9.31579 4.6397L9.40671 6.63763C10.0668 6.60759 10.2672 6.6 12.0002 6.6V4.6ZM11.9982 6.6H12.0002V4.6H11.9982V6.6ZM14.6824 4.6397C13.9771 4.6076 13.7421 4.6 11.9982 4.6V6.6C13.7317 6.6 13.9314 6.60759 14.5914 6.63763L14.6824 4.6397ZM16.5532 5.00369C16.0321 4.80154 15.4584 4.67524 14.6826 4.63971L14.5912 6.63762C15.1781 6.6645 15.5351 6.75393 15.8299 6.86831L16.5532 5.00369ZM18.032 5.9669C17.5714 5.5063 17.0954 5.21388 16.553 5.00361L15.8301 6.86839C16.1304 6.9848 16.3664 7.12971 16.6178 7.38112L18.032 5.9669ZM18.9954 7.44472C18.785 6.90475 18.4932 6.4277 18.0318 5.96664L16.6181 7.38138C16.8687 7.63179 17.0142 7.86889 17.1318 8.17078L18.9954 7.44472ZM19.3598 9.31419C19.3234 8.53895 19.1971 7.96632 18.9963 7.44714L17.1309 8.16837C17.2448 8.46307 17.3345 8.82058 17.362 9.40802L19.3598 9.31419ZM19.3996 12.0001C19.3996 10.2562 19.3916 10.0209 19.3599 9.31623L17.3619 9.40598C17.3916 10.0667 17.3996 10.2676 17.3996 12.0001H19.3996ZM19.3599 14.6834C19.3916 13.9787 19.3996 13.7439 19.3996 12.0001H17.3996C17.3996 13.7325 17.3916 13.9329 17.3619 14.5936L19.3599 14.6834ZM18.9964 16.5524C19.197 16.0331 19.3234 15.4604 19.3598 14.6854L17.362 14.5916C17.3345 15.1787 17.2448 15.5364 17.1309 15.8313L18.9964 16.5524ZM18.0318 18.0328C18.4932 17.5718 18.785 17.0948 18.9953 16.555L17.1319 15.8287C17.0142 16.1305 16.8687 16.3677 16.6181 16.6181L18.0318 18.0328ZM16.5541 18.9963C17.0957 18.7859 17.5722 18.4929 18.0324 18.0322L16.6174 16.6187C16.3664 16.87 16.1298 17.0155 15.8299 17.132L16.5541 18.9963ZM14.6836 19.3604C15.4591 19.3249 16.0334 19.1987 16.5543 18.9962L15.8297 17.1321C15.5362 17.2461 15.1792 17.3356 14.5921 17.3625L14.6836 19.3604ZM11.9994 19.4001C13.7429 19.4001 13.978 19.3925 14.6833 19.3604L14.5924 17.3625C13.9323 17.3925 13.7325 17.4001 11.9994 17.4001V19.4001ZM9.31525 19.3604C10.0205 19.3925 10.2562 19.4001 11.9994 19.4001V17.4001C10.2666 17.4001 10.0662 17.3925 9.40618 17.3625L9.31525 19.3604ZM7.44483 18.9962C7.9656 19.1986 8.53945 19.3249 9.31496 19.3604L9.40647 17.3625C8.81957 17.3356 8.46301 17.2462 8.16937 17.1321L7.44483 18.9962ZM5.96625 18.0322C6.42675 18.4932 6.90385 18.786 7.44489 18.9962L8.1693 17.132C7.869 17.0153 7.63197 16.8697 7.38126 16.6187L5.96625 18.0322ZM5.00354 16.554C5.21363 17.0945 5.5056 17.5717 5.96678 18.0327L7.38073 16.6182C7.13016 16.3677 6.9848 16.1308 6.86769 15.8294L5.00354 16.554ZM4.63933 14.6843C4.675 15.4598 4.80127 16.0335 5.00352 16.5539L6.86771 15.8295C6.75369 15.5361 6.66422 15.1796 6.63722 14.5924L4.63933 14.6843ZM4.59961 12.0001C4.59961 13.7436 4.60735 13.9786 4.6393 14.6836L6.63725 14.5931C6.60733 13.9328 6.59961 13.7329 6.59961 12.0001H4.59961ZM4.63914 9.31629C4.60763 10.0208 4.59961 10.2562 4.59961 12.0001H6.59961C6.59961 10.2676 6.60759 10.0665 6.63714 9.40565L4.63914 9.31629ZM5.00376 7.44445C4.80062 7.9656 4.67409 8.54003 4.63916 9.31599L6.63713 9.40595C6.66353 8.81976 6.753 8.46378 6.8672 8.17079L5.00376 7.44445ZM5.96731 5.96664C5.50592 6.42769 5.21411 6.9047 5.00374 7.44449L6.86722 8.17075C6.98485 7.86893 7.13038 7.6318 7.381 7.38138L5.96731 5.96664ZM7.44589 5.00383C6.90515 5.21382 6.42791 5.50586 5.96691 5.96704L7.38139 7.38098C7.63187 7.13041 7.86877 6.98512 8.1699 6.86818L7.44589 5.00383ZM9.3155 4.63971C8.53988 4.67523 7.96607 4.80152 7.44542 5.00401L8.17037 6.868C8.4636 6.75395 8.81994 6.6645 9.40699 6.63762L9.3155 4.63971Z" fill="white" mask="url(#path-1-inside-1_94_510)"/>
<mask id="path-3-inside-2_94_510" fill="white">
<path fill-rule="evenodd" clip-rule="evenodd" d="M11.4265 6.75337C11.538 6.7532 11.6579 6.75325 11.7873 6.75331L12.0006 6.75337C13.7094 6.75337 13.912 6.7595 14.5868 6.79017C15.2108 6.8187 15.5495 6.92297 15.7751 7.01057C16.0737 7.12657 16.2867 7.26524 16.5105 7.48924C16.7345 7.71325 16.8732 7.92658 16.9895 8.22525C17.0771 8.45059 17.1815 8.78926 17.2099 9.41326C17.2405 10.0879 17.2472 10.2906 17.2472 11.9986C17.2472 13.7066 17.2405 13.9093 17.2099 14.584C17.1813 15.208 17.0771 15.5467 16.9895 15.772C16.8735 16.0707 16.7345 16.2833 16.5105 16.5072C16.2865 16.7312 16.0739 16.8699 15.7751 16.9859C15.5497 17.0739 15.2108 17.1779 14.5868 17.2064C13.9121 17.2371 13.7094 17.2437 12.0006 17.2437C10.2917 17.2437 10.0891 17.2371 9.41447 17.2064C8.79046 17.1776 8.45179 17.0733 8.22605 16.9857C7.92739 16.8697 7.71405 16.7311 7.49005 16.5071C7.26604 16.2831 7.12738 16.0703 7.01111 15.7715C6.92351 15.5461 6.81911 15.2075 6.79071 14.5835C6.76004 13.9088 6.75391 13.7061 6.75391 11.997C6.75391 10.2879 6.76004 10.0863 6.79071 9.41166C6.81924 8.78766 6.92351 8.44899 7.01111 8.22339C7.12711 7.92472 7.26604 7.71138 7.49005 7.48738C7.71405 7.26338 7.92739 7.12471 8.22605 7.00844C8.45166 6.92044 8.79046 6.81644 9.41447 6.78777C10.0049 6.7611 10.2337 6.7531 11.4265 6.75177V6.75337ZM15.4164 7.81605C14.9924 7.81605 14.6484 8.15965 14.6484 8.58379C14.6484 9.00779 14.9924 9.3518 15.4164 9.3518C15.8405 9.3518 16.1845 9.00779 16.1845 8.58379C16.1845 8.15978 15.8405 7.81578 15.4164 7.81578V7.81605ZM8.71393 12.0001C8.71393 10.185 10.1855 8.71346 12.0005 8.71339C13.8156 8.71339 15.2868 10.185 15.2868 12.0001C15.2868 13.8152 13.8157 15.2861 12.0006 15.2861C10.1855 15.2861 8.71393 13.8152 8.71393 12.0001Z"/>
</mask>
<path fill-rule="evenodd" clip-rule="evenodd" d="M11.4265 6.75337C11.538 6.7532 11.6579 6.75325 11.7873 6.75331L12.0006 6.75337C13.7094 6.75337 13.912 6.7595 14.5868 6.79017C15.2108 6.8187 15.5495 6.92297 15.7751 7.01057C16.0737 7.12657 16.2867 7.26524 16.5105 7.48924C16.7345 7.71325 16.8732 7.92658 16.9895 8.22525C17.0771 8.45059 17.1815 8.78926 17.2099 9.41326C17.2405 10.0879 17.2472 10.2906 17.2472 11.9986C17.2472 13.7066 17.2405 13.9093 17.2099 14.584C17.1813 15.208 17.0771 15.5467 16.9895 15.772C16.8735 16.0707 16.7345 16.2833 16.5105 16.5072C16.2865 16.7312 16.0739 16.8699 15.7751 16.9859C15.5497 17.0739 15.2108 17.1779 14.5868 17.2064C13.9121 17.2371 13.7094 17.2437 12.0006 17.2437C10.2917 17.2437 10.0891 17.2371 9.41447 17.2064C8.79046 17.1776 8.45179 17.0733 8.22605 16.9857C7.92739 16.8697 7.71405 16.7311 7.49005 16.5071C7.26604 16.2831 7.12738 16.0703 7.01111 15.7715C6.92351 15.5461 6.81911 15.2075 6.79071 14.5835C6.76004 13.9088 6.75391 13.7061 6.75391 11.997C6.75391 10.2879 6.76004 10.0863 6.79071 9.41166C6.81924 8.78766 6.92351 8.44899 7.01111 8.22339C7.12711 7.92472 7.26604 7.71138 7.49005 7.48738C7.71405 7.26338 7.92739 7.12471 8.22605 7.00844C8.45166 6.92044 8.79046 6.81644 9.41447 6.78777C10.0049 6.7611 10.2337 6.7531 11.4265 6.75177V6.75337ZM15.4164 7.81605C14.9924 7.81605 14.6484 8.15965 14.6484 8.58379C14.6484 9.00779 14.9924 9.3518 15.4164 9.3518C15.8405 9.3518 16.1845 9.00779 16.1845 8.58379C16.1845 8.15978 15.8405 7.81578 15.4164 7.81578V7.81605ZM8.71393 12.0001C8.71393 10.185 10.1855 8.71346 12.0005 8.71339C13.8156 8.71339 15.2868 10.185 15.2868 12.0001C15.2868 13.8152 13.8157 15.2861 12.0006 15.2861C10.1855 15.2861 8.71393 13.8152 8.71393 12.0001Z" fill="white"/>
<path d="M11.7873 6.75331L11.7869 7.75331L11.787 7.75331L11.7873 6.75331ZM11.4265 6.75337H10.4265V7.75494L11.4281 7.75337L11.4265 6.75337ZM12.0006 6.75337L12.0003 7.75337H12.0006V6.75337ZM14.5868 6.79017L14.6325 5.79121L14.6322 5.7912L14.5868 6.79017ZM15.7751 7.01057L16.1371 6.07841L16.137 6.07838L15.7751 7.01057ZM16.5105 7.48924L15.8032 8.19614L15.8034 8.19635L16.5105 7.48924ZM16.9895 8.22525L17.9215 7.86291L17.9214 7.86248L16.9895 8.22525ZM17.2099 9.41326L18.2088 9.36786L18.2088 9.3678L17.2099 9.41326ZM17.2099 14.584L18.2088 14.6297L18.2088 14.6294L17.2099 14.584ZM16.9895 15.772L16.0574 15.4097L16.0573 15.41L16.9895 15.772ZM16.5105 16.5072L15.8036 15.7999L15.8034 15.8001L16.5105 16.5072ZM15.7751 16.9859L15.4132 16.0537L15.4113 16.0544L15.7751 16.9859ZM14.5868 17.2064L14.6322 18.2054L14.6325 18.2054L14.5868 17.2064ZM9.41447 17.2064L9.36836 18.2053L9.36906 18.2054L9.41447 17.2064ZM8.22605 16.9857L7.86401 17.9179L7.86427 17.918L8.22605 16.9857ZM7.49005 16.5071L6.78294 17.2142H6.78294L7.49005 16.5071ZM7.01111 15.7715L6.07906 16.1338L6.07917 16.1341L7.01111 15.7715ZM6.79071 14.5835L5.79174 14.6289L5.79174 14.6289L6.79071 14.5835ZM6.79071 9.41166L5.79175 9.36599L5.79174 9.36626L6.79071 9.41166ZM7.01111 8.22339L6.07895 7.86134L6.07892 7.86142L7.01111 8.22339ZM8.22605 7.00844L8.58882 7.94032L8.58946 7.94007L8.22605 7.00844ZM9.41447 6.78777L9.36935 5.78879L9.36858 5.78882L9.41447 6.78777ZM11.4265 6.75177H12.4265V5.75065L11.4254 5.75177L11.4265 6.75177ZM15.4164 7.81605V8.81605H16.4164V7.81605H15.4164ZM15.4164 7.81578V6.81578H14.4164V7.81578H15.4164ZM12.0005 8.71339V7.71339H12.0005L12.0005 8.71339ZM11.7878 5.75331C11.6586 5.75325 11.5376 5.75319 11.4249 5.75337L11.4281 7.75337C11.5383 7.7532 11.6572 7.75325 11.7869 7.75331L11.7878 5.75331ZM12.0009 5.75337L11.7876 5.75331L11.787 7.75331L12.0003 7.75337L12.0009 5.75337ZM14.6322 5.7912C13.9341 5.75948 13.7133 5.75337 12.0006 5.75337V7.75337C13.7056 7.75337 13.8899 7.75953 14.5414 7.78914L14.6322 5.7912ZM16.137 6.07838C15.8122 5.95224 15.3668 5.82479 14.6325 5.79121L14.5411 7.78913C15.0548 7.81262 15.2867 7.8937 15.4131 7.94276L16.137 6.07838ZM17.2179 6.78235C16.8948 6.45908 16.5639 6.24418 16.1371 6.07841L15.413 7.94273C15.5835 8.00896 15.6786 8.07141 15.8032 8.19614L17.2179 6.78235ZM17.9214 7.86248C17.7556 7.43667 17.5411 7.10559 17.2176 6.78214L15.8034 8.19635C15.928 8.3209 15.9908 8.41649 16.0576 8.58802L17.9214 7.86248ZM18.2088 9.3678C18.1754 8.63322 18.0478 8.18764 17.9215 7.86291L16.0574 8.58759C16.1064 8.71353 16.1875 8.94529 16.2109 9.45873L18.2088 9.3678ZM18.2472 11.9986C18.2472 10.2861 18.2406 10.0655 18.2088 9.36786L16.2109 9.45867C16.2405 10.1104 16.2472 10.2951 16.2472 11.9986H18.2472ZM18.2088 14.6294C18.2406 13.9318 18.2472 13.7111 18.2472 11.9986H16.2472C16.2472 13.7022 16.2405 13.8869 16.2109 14.5386L18.2088 14.6294ZM17.9215 16.1343C18.0478 15.8094 18.1753 15.3639 18.2088 14.6297L16.2109 14.5383C16.1874 15.0521 16.1063 15.2839 16.0574 15.4097L17.9215 16.1343ZM17.2174 17.2145C17.5401 16.8921 17.7555 16.5617 17.9216 16.134L16.0573 15.41C15.9914 15.5796 15.929 15.6746 15.8036 15.7999L17.2174 17.2145ZM16.137 17.9181C16.5643 17.7522 16.8948 17.5372 17.2176 17.2143L15.8034 15.8001C15.6783 15.9252 15.5834 15.9876 15.4132 16.0537L16.137 17.9181ZM14.6325 18.2054C15.366 18.1718 15.8123 18.0449 16.1388 17.9174L15.4113 16.0544C15.2871 16.1029 15.0556 16.1839 14.5411 16.2075L14.6325 18.2054ZM12.0006 18.2437C13.7139 18.2437 13.9346 18.2371 14.6322 18.2054L14.5414 16.2074C13.8897 16.2371 13.705 16.2437 12.0006 16.2437V18.2437ZM9.36906 18.2054C10.0667 18.2371 10.2872 18.2437 12.0006 18.2437V16.2437C10.2962 16.2437 10.1116 16.2371 9.45988 16.2074L9.36906 18.2054ZM7.86427 17.918C8.18903 18.044 8.63419 18.1715 9.36836 18.2053L9.46057 16.2075C8.94673 16.1838 8.71456 16.1027 8.58784 16.0535L7.86427 17.918ZM6.78294 17.2142C7.1064 17.5376 7.43767 17.7523 7.86401 17.9179L8.5881 16.0536C8.4171 15.9872 8.3217 15.9245 8.19715 15.8L6.78294 17.2142ZM6.07917 16.1341C6.2452 16.5608 6.45995 16.8912 6.78294 17.2142L8.19715 15.8C8.07214 15.6749 8.00956 15.5798 7.94304 15.4088L6.07917 16.1341ZM5.79174 14.6289C5.82517 15.3635 5.95282 15.8091 6.07906 16.1338L7.94316 15.4091C7.89419 15.2832 7.81304 15.0514 7.78967 14.538L5.79174 14.6289ZM5.75391 11.997C5.75391 13.7099 5.76001 13.9309 5.79174 14.6289L7.78968 14.538C7.76007 13.8867 7.75391 13.7023 7.75391 11.997H5.75391ZM5.79174 9.36626C5.76001 10.0642 5.75391 10.2841 5.75391 11.997H7.75391C7.75391 10.2918 7.76007 10.1084 7.78968 9.45707L5.79174 9.36626ZM6.07892 7.86142C5.95278 8.18627 5.82533 8.63165 5.79175 9.36599L7.78966 9.45734C7.81315 8.94367 7.89424 8.7117 7.9433 8.58535L6.07892 7.86142ZM6.78294 6.78027C6.45986 7.10335 6.24473 7.4345 6.07895 7.86134L7.94327 8.58543C8.00949 8.41493 8.07223 8.31941 8.19715 8.19448L6.78294 6.78027ZM7.86329 6.07656C7.43748 6.24232 7.1064 6.45681 6.78294 6.78027L8.19715 8.19448C8.3217 8.06994 8.41729 8.00709 8.58882 7.94032L7.86329 6.07656ZM9.36858 5.78882C8.63502 5.82252 8.18902 5.9495 7.86265 6.07681L8.58946 7.94007C8.7143 7.89137 8.9459 7.81035 9.46036 7.78672L9.36858 5.78882ZM11.4254 5.75177C10.2229 5.75311 9.9787 5.76127 9.36935 5.78879L9.45959 7.78675C10.0311 7.76094 10.2444 7.75309 11.4276 7.75177L11.4254 5.75177ZM12.4265 6.75337V6.75177H10.4265V6.75337H12.4265ZM15.6484 8.58379C15.6484 8.7125 15.5442 8.81605 15.4164 8.81605V6.81605C14.4407 6.81605 13.6484 7.6068 13.6484 8.58379H15.6484ZM15.4164 8.3518C15.5447 8.3518 15.6484 8.45551 15.6484 8.58379H13.6484C13.6484 9.56008 14.4402 10.3518 15.4164 10.3518V8.3518ZM15.1845 8.58379C15.1845 8.45551 15.2882 8.3518 15.4164 8.3518V10.3518C16.3927 10.3518 17.1845 9.56008 17.1845 8.58379H15.1845ZM15.4164 8.81578C15.2882 8.81578 15.1845 8.71207 15.1845 8.58379H17.1845C17.1845 7.6075 16.3927 6.81578 15.4164 6.81578V8.81578ZM16.4164 7.81605V7.81578H14.4164V7.81605H16.4164ZM12.0005 7.71339C9.63316 7.71348 7.71393 9.63278 7.71393 12.0001H9.71393C9.71393 10.7373 10.7378 9.71344 12.0005 9.71339L12.0005 7.71339ZM16.2868 12.0001C16.2868 9.63288 14.368 7.71339 12.0005 7.71339V9.71339C13.2631 9.71339 14.2868 10.7371 14.2868 12.0001H16.2868ZM12.0006 16.2861C14.3679 16.2861 16.2868 14.3675 16.2868 12.0001H14.2868C14.2868 13.2628 13.2635 14.2861 12.0006 14.2861V16.2861ZM7.71393 12.0001C7.71393 14.3677 9.63352 16.2861 12.0006 16.2861V14.2861C10.7376 14.2861 9.71393 13.2626 9.71393 12.0001H7.71393Z" fill="white" mask="url(#path-3-inside-2_94_510)"/>
<path d="M12.0005 10.3667C12.9026 10.3667 13.6339 11.0979 13.6339 12.0001C13.6339 12.9021 12.9025 13.6334 12.0005 13.6334C11.0984 13.6334 10.3672 12.9021 10.3672 12.0001C10.3672 11.0979 11.0984 10.3667 12.0005 10.3667Z" fill="white" stroke="white"/>
</svg>
