<svg width="24" height="24" viewBox="0 0 24 24" fill="none" xmlns="http://www.w3.org/2000/svg">
<mask id="path-1-inside-1_94_520" fill="white">
<path fill-rule="evenodd" clip-rule="evenodd" d="M12 0C5.37258 0 0 5.37258 0 12C0 18.6274 5.37258 24 12 24C18.6274 24 24 18.6274 24 12C24 5.37258 18.6274 0 12 0ZM12.1999 5.6C16.2805 5.6 19.6 8.27448 19.6 11.5619C19.6 12.8776 19.0863 14.0624 18.0139 15.2299H18.0142C16.4617 17.0041 12.9898 19.1649 12.1999 19.4953C11.4324 19.8165 11.521 19.3145 11.5561 19.1156C11.5571 19.1099 11.5581 19.1045 11.559 19.0993C11.5777 18.9889 11.6646 18.4704 11.6646 18.4704C11.6895 18.2829 11.7153 17.9919 11.6407 17.8061C11.5577 17.6016 11.2298 17.4954 10.9887 17.4439C7.43262 16.9772 4.8 14.509 4.8 11.5619C4.8 8.27448 8.11992 5.6 12.1999 5.6Z"/>
</mask>
<path fill-rule="evenodd" clip-rule="evenodd" d="M12 0C5.37258 0 0 5.37258 0 12C0 18.6274 5.37258 24 12 24C18.6274 24 24 18.6274 24 12C24 5.37258 18.6274 0 12 0ZM12.1999 5.6C16.2805 5.6 19.6 8.27448 19.6 11.5619C19.6 12.8776 19.0863 14.0624 18.0139 15.2299H18.0142C16.4617 17.0041 12.9898 19.1649 12.1999 19.4953C11.4324 19.8165 11.521 19.3145 11.5561 19.1156C11.5571 19.1099 11.5581 19.1045 11.559 19.0993C11.5777 18.9889 11.6646 18.4704 11.6646 18.4704C11.6895 18.2829 11.7153 17.9919 11.6407 17.8061C11.5577 17.6016 11.2298 17.4954 10.9887 17.4439C7.43262 16.9772 4.8 14.509 4.8 11.5619C4.8 8.27448 8.11992 5.6 12.1999 5.6Z" fill="white"/>
<path d="M18.0139 15.2299L17.2774 14.5535L15.7375 16.2299H18.0139V15.2299ZM18.0142 15.2299L18.7667 15.8885L20.2181 14.2299H18.0142V15.2299ZM12.1999 19.4953L11.814 18.5728L11.8139 18.5728L12.1999 19.4953ZM11.5561 19.1156L12.5409 19.2895L12.5409 19.2895L11.5561 19.1156ZM11.559 19.0993L12.5443 19.2701L12.5449 19.2665L11.559 19.0993ZM11.6646 18.4704L12.6508 18.6356L12.6536 18.619L12.6558 18.6024L11.6646 18.4704ZM11.6407 17.8061L12.5687 17.4334L12.5673 17.4301L11.6407 17.8061ZM10.9887 17.4439L11.1979 16.466L11.1586 16.4576L11.1189 16.4524L10.9887 17.4439ZM1 12C1 5.92487 5.92487 1 12 1V-1C4.8203 -1 -1 4.8203 -1 12H1ZM12 23C5.92487 23 1 18.0751 1 12H-1C-1 19.1797 4.8203 25 12 25V23ZM23 12C23 18.0751 18.0751 23 12 23V25C19.1797 25 25 19.1797 25 12H23ZM12 1C18.0751 1 23 5.92487 23 12H25C25 4.8203 19.1797 -1 12 -1V1ZM20.6 11.5619C20.6 7.53124 16.6202 4.6 12.1999 4.6V6.6C15.9408 6.6 18.6 9.01771 18.6 11.5619H20.6ZM18.7503 15.9064C19.9549 14.5951 20.6 13.1784 20.6 11.5619H18.6C18.6 12.5768 18.2178 13.5298 17.2774 14.5535L18.7503 15.9064ZM18.0142 14.2299H18.0139V16.2299H18.0142V14.2299ZM12.5858 20.4179C13.0852 20.2089 14.2246 19.5329 15.3901 18.7263C16.5664 17.9123 17.9063 16.8717 18.7667 15.8885L17.2616 14.5714C16.5696 15.3623 15.3972 16.2892 14.252 17.0817C13.096 17.8817 12.1045 18.4513 11.814 18.5728L12.5858 20.4179ZM10.5714 18.9417C10.5639 18.9842 10.537 19.1265 10.5341 19.2861C10.5316 19.4284 10.5423 19.7339 10.7308 20.0333C10.9635 20.4029 11.3444 20.5792 11.7202 20.5982C12.0368 20.6142 12.3373 20.5219 12.5859 20.4178L11.8139 18.5728C11.6788 18.6293 11.7025 18.5947 11.821 18.6007C11.8917 18.6043 12.0039 18.6231 12.1275 18.6903C12.2556 18.76 12.3553 18.8598 12.4232 18.9677C12.5424 19.1569 12.5339 19.3197 12.5338 19.322C12.5335 19.3415 12.5308 19.3465 12.5409 19.2895L10.5714 18.9417ZM10.5737 18.9285C10.5731 18.9318 10.5724 18.9356 10.5714 18.9417L12.5409 19.2895C12.5418 19.2842 12.5431 19.2771 12.5443 19.2701L10.5737 18.9285ZM11.6646 18.4704C10.6783 18.3053 10.6783 18.3053 10.6783 18.3053C10.6783 18.3053 10.6783 18.3053 10.6783 18.3053C10.6783 18.3053 10.6783 18.3053 10.6783 18.3054C10.6783 18.3054 10.6782 18.3055 10.6782 18.3056C10.6782 18.3059 10.6781 18.3063 10.678 18.3068C10.6779 18.3077 10.6776 18.3092 10.6773 18.3111C10.6767 18.3149 10.6757 18.3205 10.6745 18.3277C10.6721 18.3421 10.6687 18.3628 10.6644 18.3879C10.656 18.4382 10.6446 18.5064 10.6326 18.5781C10.6084 18.722 10.5823 18.878 10.5731 18.9321L12.5449 19.2665C12.5545 19.2101 12.5811 19.0517 12.605 18.9088C12.6171 18.8371 12.6285 18.7688 12.6369 18.7184C12.6412 18.6932 12.6446 18.6725 12.647 18.6581C12.6483 18.6509 12.6492 18.6453 12.6498 18.6415C12.6502 18.6396 12.6504 18.6381 12.6506 18.6371C12.6507 18.6366 12.6507 18.6362 12.6508 18.636C12.6508 18.6359 12.6508 18.6358 12.6508 18.6357C12.6508 18.6357 12.6508 18.6357 12.6508 18.6356C12.6508 18.6356 12.6508 18.6356 12.6508 18.6356C12.6508 18.6356 12.6508 18.6356 11.6646 18.4704ZM10.7128 18.1789C10.7018 18.1515 10.6959 18.1304 10.6928 18.118C10.6898 18.1054 10.6887 18.098 10.6886 18.097C10.6885 18.0964 10.69 18.1085 10.69 18.1355C10.6899 18.1919 10.6834 18.2625 10.6733 18.3385L12.6558 18.6024C12.6707 18.4907 12.6896 18.3221 12.69 18.1397C12.6903 17.976 12.6775 17.7044 12.5687 17.4334L10.7128 18.1789ZM10.7796 18.4218C10.8175 18.4299 10.8535 18.439 10.8851 18.4488C10.9177 18.4589 10.9363 18.4668 10.9427 18.4699C10.9516 18.4741 10.927 18.464 10.8876 18.4303C10.8476 18.3961 10.7689 18.3171 10.7141 18.1822L12.5673 17.4301C12.3823 16.9741 11.9945 16.7559 11.8053 16.6654C11.5818 16.5586 11.3536 16.4993 11.1979 16.466L10.7796 18.4218ZM3.8 11.5619C3.8 15.1665 6.97614 17.9258 10.8586 18.4354L11.1189 16.4524C7.88909 16.0285 5.8 13.8515 5.8 11.5619H3.8ZM12.1999 4.6C7.78027 4.6 3.8 7.53122 3.8 11.5619H5.8C5.8 9.01773 8.45958 6.6 12.1999 6.6V4.6Z" fill="white" mask="url(#path-1-inside-1_94_520)"/>
<mask id="path-3-inside-2_94_520" fill="white">
<path d="M10.6572 10H10.1429C10.0641 10 10 10.0662 10 10.1474V13.4526C10 13.534 10.0641 13.6 10.1429 13.6H10.6572C10.7361 13.6 10.8 13.534 10.8 13.4526V10.1474C10.8 10.0662 10.7361 10 10.6572 10Z"/>
</mask>
<path d="M10.6572 10H10.1429C10.0641 10 10 10.0662 10 10.1474V13.4526C10 13.534 10.0641 13.6 10.1429 13.6H10.6572C10.7361 13.6 10.8 13.534 10.8 13.4526V10.1474C10.8 10.0662 10.7361 10 10.6572 10Z" fill="#D9D9D9"/>
<path d="M10.6572 9.5H10.1429V10.5H10.6572V9.5ZM10.1429 9.5C9.77332 9.5 9.5 9.80487 9.5 10.1474H10.5C10.5 10.3274 10.3549 10.5 10.1429 10.5V9.5ZM9.5 10.1474V13.4526H10.5V10.1474H9.5ZM9.5 13.4526C9.5 13.7956 9.77364 14.1 10.1429 14.1V13.1C10.3545 13.1 10.5 13.2724 10.5 13.4526H9.5ZM10.1429 14.1H10.6572V13.1H10.1429V14.1ZM10.6572 14.1C11.0271 14.1 11.3 13.795 11.3 13.4526H10.3C10.3 13.273 10.445 13.1 10.6572 13.1V14.1ZM11.3 13.4526V10.1474H10.3V13.4526H11.3ZM11.3 10.1474C11.3 9.80552 11.0274 9.5 10.6572 9.5V10.5C10.4447 10.5 10.3 10.3268 10.3 10.1474H11.3Z" fill="white" mask="url(#path-3-inside-2_94_520)"/>
<mask id="path-5-inside-3_94_520" fill="white">
<path d="M14.2499 10H13.7085C13.6255 10 13.5582 10.0662 13.5582 10.1474V12.111L12.0171 10.0656C12.0135 10.0603 12.0095 10.0554 12.0054 10.0506L12.0043 10.0497C12.0014 10.0464 11.9984 10.0435 11.9953 10.0406C11.9944 10.0397 11.9935 10.039 11.9925 10.0381C11.99 10.0358 11.9873 10.0336 11.9845 10.0316C11.9833 10.0304 11.982 10.0295 11.9807 10.0285C11.978 10.0268 11.9755 10.0249 11.9728 10.0233C11.9713 10.0222 11.9699 10.0214 11.9682 10.0206C11.9656 10.019 11.9629 10.0174 11.9602 10.0161C11.9586 10.0154 11.9571 10.0145 11.9555 10.014C11.9527 10.0127 11.9499 10.0113 11.9469 10.0103C11.9452 10.0097 11.9437 10.0092 11.942 10.0086C11.9391 10.0076 11.9361 10.0065 11.933 10.0058C11.9314 10.0052 11.9296 10.0049 11.9278 10.0044C11.9249 10.0038 11.9221 10.0031 11.9193 10.0025C11.9172 10.0022 11.915 10.0019 11.9129 10.0017C11.9102 10.0012 11.9076 10.001 11.9049 10.0007C11.9024 10.0004 11.8999 10.0004 11.8972 10.0003C11.8953 10.0003 11.8938 10 11.8919 10H11.3507C11.2677 10 11.2002 10.0662 11.2002 10.1474V13.4526C11.2002 13.534 11.2677 13.6 11.3507 13.6H11.8919C11.975 13.6 12.0424 13.534 12.0424 13.4526V11.4896L13.5854 13.5376C13.5961 13.5525 13.6092 13.5645 13.6236 13.5741C13.624 13.5744 13.6246 13.5748 13.6251 13.5753C13.6282 13.5772 13.6313 13.5791 13.6344 13.5808C13.6359 13.5817 13.6372 13.5823 13.6387 13.583C13.6409 13.5843 13.6434 13.5855 13.6458 13.5865C13.6483 13.5875 13.6505 13.5885 13.6532 13.5895C13.6546 13.5901 13.6561 13.5907 13.6576 13.5911C13.6612 13.5924 13.6644 13.5935 13.6678 13.5945C13.6686 13.5945 13.6693 13.5948 13.67 13.5949C13.6823 13.5981 13.6952 13.6 13.7085 13.6H14.2499C14.333 13.6 14.4002 13.534 14.4002 13.4526V10.1474C14.4002 10.0662 14.333 10 14.2499 10Z"/>
</mask>
<path d="M14.2499 10H13.7085C13.6255 10 13.5582 10.0662 13.5582 10.1474V12.111L12.0171 10.0656C12.0135 10.0603 12.0095 10.0554 12.0054 10.0506L12.0043 10.0497C12.0014 10.0464 11.9984 10.0435 11.9953 10.0406C11.9944 10.0397 11.9935 10.039 11.9925 10.0381C11.99 10.0358 11.9873 10.0336 11.9845 10.0316C11.9833 10.0304 11.982 10.0295 11.9807 10.0285C11.978 10.0268 11.9755 10.0249 11.9728 10.0233C11.9713 10.0222 11.9699 10.0214 11.9682 10.0206C11.9656 10.019 11.9629 10.0174 11.9602 10.0161C11.9586 10.0154 11.9571 10.0145 11.9555 10.014C11.9527 10.0127 11.9499 10.0113 11.9469 10.0103C11.9452 10.0097 11.9437 10.0092 11.942 10.0086C11.9391 10.0076 11.9361 10.0065 11.933 10.0058C11.9314 10.0052 11.9296 10.0049 11.9278 10.0044C11.9249 10.0038 11.9221 10.0031 11.9193 10.0025C11.9172 10.0022 11.915 10.0019 11.9129 10.0017C11.9102 10.0012 11.9076 10.001 11.9049 10.0007C11.9024 10.0004 11.8999 10.0004 11.8972 10.0003C11.8953 10.0003 11.8938 10 11.8919 10H11.3507C11.2677 10 11.2002 10.0662 11.2002 10.1474V13.4526C11.2002 13.534 11.2677 13.6 11.3507 13.6H11.8919C11.975 13.6 12.0424 13.534 12.0424 13.4526V11.4896L13.5854 13.5376C13.5961 13.5525 13.6092 13.5645 13.6236 13.5741C13.624 13.5744 13.6246 13.5748 13.6251 13.5753C13.6282 13.5772 13.6313 13.5791 13.6344 13.5808C13.6359 13.5817 13.6372 13.5823 13.6387 13.583C13.6409 13.5843 13.6434 13.5855 13.6458 13.5865C13.6483 13.5875 13.6505 13.5885 13.6532 13.5895C13.6546 13.5901 13.6561 13.5907 13.6576 13.5911C13.6612 13.5924 13.6644 13.5935 13.6678 13.5945C13.6686 13.5945 13.6693 13.5948 13.67 13.5949C13.6823 13.5981 13.6952 13.6 13.7085 13.6H14.2499C14.333 13.6 14.4002 13.534 14.4002 13.4526V10.1474C14.4002 10.0662 14.333 10 14.2499 10Z" fill="#D9D9D9"/>
<path d="M13.5582 12.111L13.1588 12.4119L14.0582 13.6056V12.111H13.5582ZM12.0171 10.0656L11.6033 10.3463L11.6103 10.3565L11.6177 10.3665L12.0171 10.0656ZM12.0054 10.0506L12.3838 9.72385L12.3579 9.69379L12.3275 9.6682L12.0054 10.0506ZM12.0043 10.0497L11.6299 10.3811L11.6542 10.4085L11.6822 10.4321L12.0043 10.0497ZM11.9953 10.0406L11.6447 10.3973L11.6536 10.4056L11.9953 10.0406ZM11.9925 10.0381L11.653 10.4052L11.6615 10.413L11.6704 10.4205L11.9925 10.0381ZM11.9845 10.0316L11.634 10.3882L11.6608 10.4145L11.6913 10.4365L11.9845 10.0316ZM11.9807 10.0285L12.2843 9.63126L12.2699 9.62023L12.2547 9.61027L11.9807 10.0285ZM11.9728 10.0233L11.6894 10.4352L11.7022 10.444L11.7154 10.4519L11.9728 10.0233ZM11.9682 10.0206L11.7108 10.4493L11.7367 10.4648L11.7643 10.4772L11.9682 10.0206ZM11.9602 10.0161L12.1808 9.56739L12.1725 9.56335L12.1642 9.55962L11.9602 10.0161ZM11.9555 10.014L11.7445 10.4672L11.7655 10.477L11.7872 10.4848L11.9555 10.014ZM11.9469 10.0103L12.1096 9.53746L12.1026 9.53517L11.9469 10.0103ZM11.942 10.0086L12.1103 9.53771L12.1047 9.53577L11.942 10.0086ZM11.933 10.0058L11.7648 10.4767L11.7915 10.4862L11.8191 10.4927L11.933 10.0058ZM11.9278 10.0044L12.0835 9.52921L12.0544 9.51966L12.0243 9.51375L11.9278 10.0044ZM11.9193 10.0025L12.0206 9.51284L12.0048 9.50957L11.9888 9.50733L11.9193 10.0025ZM11.9129 10.0017L11.8062 10.4902L11.8417 10.498L11.8779 10.5005L11.9129 10.0017ZM11.9049 10.0007L11.8475 10.4974L11.8506 10.4978L11.9049 10.0007ZM11.8972 10.0003L11.9245 9.50103L11.9109 9.50029H11.8972V10.0003ZM12.0424 11.4896L12.4417 11.1887L11.5424 9.99499V11.4896H12.0424ZM13.5854 13.5376L13.9916 13.2459L13.9847 13.2367L13.5854 13.5376ZM13.6236 13.5741L13.3456 13.9898L13.3495 13.9923L13.6236 13.5741ZM13.6251 13.5753L13.2746 13.9319L13.3158 13.9724L13.3652 14.0024L13.6251 13.5753ZM13.6344 13.5808L13.8884 13.15L13.8792 13.1448L13.6344 13.5808ZM13.6387 13.583L13.8926 13.1523L13.8762 13.1426L13.8592 13.1342L13.6387 13.583ZM13.6458 13.5865L13.4482 14.0459L13.4582 14.05L13.6458 13.5865ZM13.6532 13.5895L13.8361 13.1242L13.8317 13.1225L13.6532 13.5895ZM13.6576 13.5911L13.8305 13.122L13.8149 13.1162L13.799 13.1115L13.6576 13.5911ZM13.6678 13.5945L13.5245 14.0735L13.5946 14.0945H13.6678V13.5945ZM13.67 13.5949L13.7961 13.1111L13.7814 13.1072L13.7665 13.1043L13.67 13.5949ZM14.2499 9.5H13.7085V10.5H14.2499V9.5ZM13.7085 9.5C13.3582 9.5 13.0582 9.78123 13.0582 10.1474H14.0582C14.0582 10.3511 13.8928 10.5 13.7085 10.5V9.5ZM13.0582 10.1474V12.111H14.0582V10.1474H13.0582ZM13.9575 11.8101L12.4164 9.7647L11.6177 10.3665L13.1588 12.4119L13.9575 11.8101ZM12.4308 9.78489C12.4121 9.75733 12.3944 9.73611 12.3838 9.72385L11.6269 10.3774C11.6246 10.3747 11.6149 10.3634 11.6033 10.3463L12.4308 9.78489ZM12.3275 9.6682L12.3265 9.66732L11.6822 10.4321L11.6832 10.433L12.3275 9.6682ZM12.3788 9.7184C12.3613 9.69865 12.3459 9.68384 12.337 9.67552L11.6536 10.4056C11.651 10.4031 11.6414 10.3941 11.6299 10.3811L12.3788 9.7184ZM12.3458 9.68397C12.3354 9.67372 12.3265 9.66585 12.321 9.66115C12.3184 9.65889 12.3163 9.6571 12.3154 9.65633C12.3149 9.65594 12.3145 9.65558 12.3144 9.65553C12.3143 9.6554 12.3144 9.65553 12.3146 9.6557L11.6704 10.4205C11.6708 10.4209 11.6712 10.4212 11.6713 10.4213C11.6715 10.4215 11.6713 10.4213 11.6711 10.4211C11.6707 10.4208 11.669 10.4194 11.6669 10.4175C11.6624 10.4136 11.6544 10.4065 11.6448 10.3972L12.3458 9.68397ZM12.332 9.67104C12.3147 9.65499 12.2965 9.64017 12.2778 9.62659L11.6913 10.4365C11.6781 10.427 11.6653 10.4166 11.653 10.4052L12.332 9.67104ZM12.335 9.67494C12.3126 9.65295 12.293 9.63781 12.2847 9.63153C12.2825 9.62986 12.2807 9.62851 12.2796 9.62771C12.279 9.62729 12.2786 9.62696 12.2783 9.62676C12.2782 9.62665 12.2781 9.62657 12.278 9.62651C12.2778 9.62637 12.278 9.62652 12.2779 9.62643C12.2774 9.62608 12.2805 9.62835 12.2843 9.63126L11.677 10.4257C11.6815 10.4292 11.6853 10.4319 11.6854 10.4321C11.6867 10.433 11.6838 10.4308 11.6806 10.4284C11.6736 10.4231 11.6552 10.409 11.634 10.3882L12.335 9.67494ZM12.2547 9.61027C12.2583 9.61264 12.2609 9.61445 12.2617 9.61497C12.2621 9.61523 12.2623 9.6154 12.262 9.61517C12.2618 9.61507 12.261 9.61449 12.2601 9.61389C12.2584 9.61268 12.2546 9.61008 12.2498 9.60695C12.245 9.60376 12.2383 9.59946 12.2303 9.59463L11.7154 10.4519C11.7087 10.4479 11.7033 10.4444 11.6998 10.4421C11.6963 10.4398 11.6938 10.4381 11.6934 10.4378C11.6931 10.4376 11.6929 10.4375 11.6934 10.4378C11.6938 10.438 11.6947 10.4387 11.6957 10.4394C11.6977 10.4408 11.7017 10.4435 11.7066 10.4467L12.2547 9.61027ZM12.2562 9.61133C12.2359 9.59736 12.2077 9.58002 12.1722 9.56413L11.7643 10.4772C11.732 10.4627 11.7068 10.4471 11.6894 10.4352L12.2562 9.61133ZM12.2257 9.59201C12.2251 9.59167 12.2194 9.58823 12.2129 9.58451C12.2061 9.58057 12.1948 9.5743 12.1808 9.56739L11.7397 10.4649C11.7283 10.4593 11.7198 10.4545 11.7156 10.4521C11.7117 10.4499 11.7087 10.448 11.7108 10.4493L12.2257 9.59201ZM12.1642 9.55962C12.1717 9.56299 12.1775 9.56579 12.1796 9.56683C12.1806 9.56733 12.1814 9.56775 12.1811 9.56757C12.1811 9.56757 12.1798 9.56695 12.1784 9.56625C12.1755 9.56485 12.1688 9.56153 12.16 9.55766C12.1511 9.55368 12.1388 9.54848 12.1238 9.54312L11.7872 10.4848C11.7731 10.4797 11.7615 10.4749 11.7534 10.4712C11.7455 10.4677 11.7394 10.4648 11.7374 10.4637C11.7363 10.4632 11.7355 10.4628 11.7359 10.463C11.7359 10.463 11.7371 10.4636 11.7385 10.4643C11.7414 10.4657 11.748 10.4689 11.7563 10.4727L12.1642 9.55962ZM12.1665 9.56067C12.1661 9.56047 12.1588 9.55702 12.1503 9.55336C12.1412 9.54938 12.127 9.54353 12.1096 9.53751L11.7843 10.4831C11.7698 10.4781 11.7585 10.4734 11.7522 10.4707C11.7466 10.4683 11.7421 10.4661 11.7445 10.4672L12.1665 9.56067ZM12.1026 9.53517C12.1095 9.53743 12.1147 9.53933 12.1162 9.53987C12.1163 9.53991 12.1175 9.54036 12.1159 9.53975C12.115 9.53943 12.1129 9.53866 12.1103 9.53774L11.7738 10.4794C11.772 10.4788 11.7707 10.4783 11.7706 10.4783C11.7698 10.478 11.7718 10.4787 11.7727 10.479C11.7758 10.4802 11.7826 10.4826 11.7913 10.4855L12.1026 9.53517ZM12.1047 9.53577C12.1042 9.5356 12.0967 9.53298 12.088 9.53025C12.0786 9.52729 12.0644 9.52305 12.0469 9.51897L11.8191 10.4927C11.8048 10.4893 11.7936 10.4859 11.7872 10.4839C11.7815 10.4821 11.7769 10.4805 11.7794 10.4814L12.1047 9.53577ZM12.1013 9.53498C12.0865 9.52969 12.0741 9.52605 12.0663 9.52385C12.0588 9.52177 12.0527 9.52025 12.0522 9.52012C12.0512 9.51987 12.0522 9.52012 12.0528 9.52029C12.0538 9.52054 12.0558 9.52105 12.0584 9.52174C12.0635 9.52311 12.0724 9.52559 12.0835 9.52921L11.7722 10.4795C11.7841 10.4834 11.794 10.4862 11.7999 10.4878C11.803 10.4886 11.8054 10.4892 11.8068 10.4896C11.8079 10.4898 11.8094 10.4902 11.8088 10.4901C11.8088 10.49 11.8074 10.4897 11.8057 10.4893C11.8038 10.4888 11.8009 10.488 11.7973 10.487C11.7903 10.485 11.7788 10.4817 11.7648 10.4767L12.1013 9.53498ZM12.0243 9.51375C12.0313 9.51514 12.0367 9.5164 12.0355 9.51611C12.0354 9.51609 12.0353 9.51607 12.0351 9.51602C12.0349 9.51598 12.0346 9.51591 12.0343 9.51584C12.0336 9.51569 12.0326 9.51546 12.0314 9.51518C12.029 9.51465 12.0252 9.5138 12.0206 9.51284L11.818 10.4921C11.8147 10.4914 11.8123 10.4909 11.8114 10.4907C11.8108 10.4905 11.8099 10.4903 11.8115 10.4907C11.8131 10.4911 11.8214 10.493 11.8314 10.495L12.0243 9.51375ZM11.9888 9.50733C11.9857 9.5069 11.9687 9.50443 11.9479 9.50297L11.8779 10.5005C11.8686 10.4999 11.8613 10.4991 11.8572 10.4986C11.853 10.4981 11.8501 10.4977 11.8498 10.4976L11.9888 9.50733ZM12.0196 9.51326C11.9936 9.50758 11.9726 9.50511 11.9632 9.50408C11.9586 9.50358 11.9546 9.5032 11.9545 9.50319C11.9532 9.50308 11.9559 9.50333 11.9592 9.50368L11.8506 10.4978C11.8552 10.4983 11.8592 10.4986 11.8594 10.4987C11.8606 10.4988 11.8579 10.4985 11.8546 10.4982C11.8479 10.4974 11.8296 10.4953 11.8062 10.4902L12.0196 9.51326ZM11.9623 9.50404C11.9431 9.50181 11.9277 9.50113 11.9225 9.50091C11.9205 9.50082 11.9169 9.50069 11.9184 9.50075C11.9186 9.50076 11.9211 9.50085 11.9245 9.50103L11.87 10.4995C11.8747 10.4998 11.8785 10.5 11.88 10.5C11.8803 10.5 11.8818 10.5001 11.8812 10.5001C11.8812 10.5001 11.881 10.5001 11.8808 10.5C11.8806 10.5 11.8802 10.5 11.8798 10.5C11.8781 10.4999 11.8741 10.4997 11.8689 10.4994C11.8636 10.499 11.8562 10.4984 11.8475 10.4974L11.9623 9.50404ZM11.8972 9.50029C11.9095 9.50029 11.9196 9.50076 11.9268 9.50121C11.9303 9.50142 11.9331 9.50164 11.9348 9.50177C11.9363 9.50189 11.9376 9.502 11.9371 9.50196C11.9371 9.50196 11.9366 9.50192 11.9361 9.50187C11.9355 9.50182 11.9346 9.50175 11.9335 9.50166C11.9314 9.50149 11.9282 9.50125 11.9242 9.50101C11.9162 9.50051 11.9051 9.5 11.8919 9.5V10.5C11.8796 10.5 11.8695 10.4995 11.8623 10.4991C11.8588 10.4989 11.856 10.4987 11.8543 10.4985C11.8528 10.4984 11.8515 10.4983 11.852 10.4983C11.852 10.4983 11.8525 10.4984 11.853 10.4984C11.8536 10.4985 11.8545 10.4985 11.8556 10.4986C11.8577 10.4988 11.8609 10.499 11.8649 10.4993C11.8729 10.4998 11.884 10.5003 11.8972 10.5003V9.50029ZM11.8919 9.5H11.3507V10.5H11.8919V9.5ZM11.3507 9.5C11.001 9.5 10.7002 9.78059 10.7002 10.1474H11.7002C11.7002 10.3517 11.5343 10.5 11.3507 10.5V9.5ZM10.7002 10.1474V13.4526H11.7002V10.1474H10.7002ZM10.7002 13.4526C10.7002 13.8199 11.0014 14.1 11.3507 14.1V13.1C11.534 13.1 11.7002 13.2481 11.7002 13.4526H10.7002ZM11.3507 14.1H11.8919V13.1H11.3507V14.1ZM11.8919 14.1C12.2417 14.1 12.5424 13.8196 12.5424 13.4526H11.5424C11.5424 13.2484 11.7084 13.1 11.8919 13.1V14.1ZM12.5424 13.4526V11.4896H11.5424V13.4526H12.5424ZM11.643 11.7904L13.1861 13.8385L13.9847 13.2367L12.4417 11.1887L11.643 11.7904ZM13.1793 13.8293C13.2291 13.8987 13.2879 13.9511 13.3456 13.9898L13.9015 13.1585C13.9306 13.1779 13.963 13.2062 13.9915 13.2459L13.1793 13.8293ZM13.3495 13.9923C13.3398 13.986 13.3295 13.9787 13.3187 13.9704C13.3087 13.9627 13.2927 13.9497 13.2746 13.9319L13.9755 13.2187C13.9428 13.1865 13.9125 13.1657 13.8976 13.1559L13.3495 13.9923ZM13.3652 14.0024C13.3669 14.0035 13.3775 14.01 13.3895 14.0168L13.8792 13.1448C13.8827 13.1468 13.8851 13.1483 13.8859 13.1487C13.8865 13.1491 13.8868 13.1493 13.8849 13.1481L13.3652 14.0024ZM13.3804 14.0115C13.396 14.0207 13.409 14.0272 13.416 14.0307C13.4177 14.0315 13.4191 14.0322 13.4201 14.0327C13.4209 14.0331 13.4217 14.0334 13.4217 14.0335C13.4223 14.0338 13.4205 14.0329 13.4182 14.0317L13.8592 13.1342C13.8561 13.1327 13.8535 13.1315 13.8534 13.1315C13.8526 13.1311 13.8546 13.132 13.857 13.1332C13.8626 13.136 13.8742 13.1418 13.8883 13.1501L13.3804 14.0115ZM13.3847 14.0137C13.4143 14.0312 13.4397 14.0421 13.4483 14.0458L13.8433 13.1271C13.8463 13.1284 13.8523 13.1311 13.8599 13.1348C13.8674 13.1384 13.8789 13.1442 13.8926 13.1523L13.3847 14.0137ZM13.4582 14.05C13.4557 14.049 13.4539 14.0482 13.4533 14.0479C13.453 14.0478 13.4529 14.0478 13.4531 14.0479C13.4532 14.0479 13.4539 14.0482 13.4545 14.0484C13.4571 14.0496 13.4649 14.0528 13.4747 14.0566L13.8317 13.1225C13.8388 13.1252 13.8441 13.1275 13.8443 13.1276C13.8444 13.1276 13.8444 13.1276 13.8439 13.1274C13.8436 13.1272 13.8428 13.1269 13.8419 13.1265C13.8401 13.1258 13.8371 13.1245 13.8333 13.123L13.4582 14.05ZM13.4702 14.0549C13.4704 14.0549 13.472 14.0556 13.4738 14.0563C13.4758 14.057 13.4788 14.0582 13.4825 14.0595C13.4896 14.0622 13.5014 14.0664 13.5162 14.0707L13.799 13.1115C13.8123 13.1155 13.8226 13.1191 13.8283 13.1212C13.8334 13.1231 13.8377 13.1248 13.8361 13.1242L13.4702 14.0549ZM13.4847 14.0603C13.5026 14.0669 13.5173 14.0714 13.5245 14.0735L13.8111 13.1154C13.8115 13.1156 13.8197 13.118 13.8305 13.122L13.4847 14.0603ZM13.6678 14.0945C13.6355 14.0945 13.6087 14.0913 13.5895 14.0883C13.5708 14.0853 13.5562 14.0818 13.5497 14.0802C13.5462 14.0794 13.5436 14.0787 13.5429 14.0785C13.5411 14.078 13.5437 14.0787 13.5446 14.0789C13.5476 14.0797 13.5589 14.0826 13.5736 14.0855L13.7665 13.1043C13.7808 13.1071 13.7918 13.11 13.7943 13.1106C13.7951 13.1108 13.7975 13.1115 13.7955 13.1109C13.7947 13.1107 13.7918 13.11 13.7882 13.1091C13.7812 13.1074 13.7663 13.1038 13.7472 13.1008C13.7277 13.0977 13.7004 13.0945 13.6678 13.0945V14.0945ZM13.544 14.0788C13.5923 14.0913 13.6476 14.1 13.7085 14.1V13.1C13.7427 13.1 13.7724 13.1049 13.7961 13.1111L13.544 14.0788ZM13.7085 14.1H14.2499V13.1H13.7085V14.1ZM14.2499 14.1C14.6003 14.1 14.9002 13.8189 14.9002 13.4526H13.9002C13.9002 13.2491 14.0658 13.1 14.2499 13.1V14.1ZM14.9002 13.4526V10.1474H13.9002V13.4526H14.9002ZM14.9002 10.1474C14.9002 9.78154 14.6006 9.5 14.2499 9.5V10.5C14.0654 10.5 13.9002 10.3508 13.9002 10.1474H14.9002Z" fill="white" mask="url(#path-5-inside-3_94_520)"/>
<mask id="path-7-inside-4_94_520" fill="white">
<path d="M9.45401 12.7724H8.02067V10.1477C8.02067 10.0662 7.95507 10 7.87433 10H7.34667C7.26579 10 7.2002 10.0662 7.2002 10.1477V13.4521V13.4524C7.2002 13.4921 7.21591 13.528 7.24114 13.5545C7.24172 13.5552 7.24229 13.5559 7.24316 13.5567C7.24388 13.5574 7.2446 13.558 7.24532 13.5587C7.2717 13.5843 7.30717 13.6 7.34653 13.6H9.45401C9.53489 13.6 9.6002 13.5337 9.6002 13.4521V12.9201C9.6002 12.8385 9.53489 12.7724 9.45401 12.7724Z"/>
</mask>
<path d="M9.45401 12.7724H8.02067V10.1477C8.02067 10.0662 7.95507 10 7.87433 10H7.34667C7.26579 10 7.2002 10.0662 7.2002 10.1477V13.4521V13.4524C7.2002 13.4921 7.21591 13.528 7.24114 13.5545C7.24172 13.5552 7.24229 13.5559 7.24316 13.5567C7.24388 13.5574 7.2446 13.558 7.24532 13.5587C7.2717 13.5843 7.30717 13.6 7.34653 13.6H9.45401C9.53489 13.6 9.6002 13.5337 9.6002 13.4521V12.9201C9.6002 12.8385 9.53489 12.7724 9.45401 12.7724Z" fill="#D9D9D9"/>
<path d="M8.02067 12.7724H7.52067V13.2724H8.02067V12.7724ZM7.24114 13.5545L7.63286 13.2438L7.61872 13.2259L7.60303 13.2095L7.24114 13.5545ZM7.24316 13.5567L7.5982 13.2046L7.58223 13.1885L7.56487 13.1739L7.24316 13.5567ZM7.24532 13.5587L6.8902 13.9108L6.8972 13.9176L7.24532 13.5587ZM9.45401 12.2724H8.02067V13.2724H9.45401V12.2724ZM8.52067 12.7724V10.1477H7.52067V12.7724H8.52067ZM8.52067 10.1477C8.52067 9.79436 8.23553 9.5 7.87433 9.5V10.5C7.67461 10.5 7.52067 10.338 7.52067 10.1477H8.52067ZM7.87433 9.5H7.34667V10.5H7.87433V9.5ZM7.34667 9.5C6.98565 9.5 6.7002 9.79403 6.7002 10.1477H7.7002C7.7002 10.3383 7.54594 10.5 7.34667 10.5V9.5ZM6.7002 10.1477V13.4521H7.7002V10.1477H6.7002ZM6.7002 13.4521V13.4524H7.7002V13.4521H6.7002ZM6.7002 13.4524C6.7002 13.6269 6.7698 13.7847 6.87925 13.8995L7.60303 13.2095C7.66202 13.2713 7.7002 13.3573 7.7002 13.4524H6.7002ZM6.84942 13.8652C6.84943 13.8652 6.84961 13.8655 6.84982 13.8657C6.85004 13.866 6.85039 13.8664 6.85081 13.867C6.85164 13.868 6.85295 13.8696 6.85457 13.8716C6.8578 13.8756 6.86274 13.8815 6.86898 13.8885C6.88207 13.9032 6.89944 13.9209 6.92145 13.9394L7.56487 13.1739C7.60695 13.2093 7.63408 13.2453 7.63286 13.2438L6.84942 13.8652ZM6.88811 13.9087C6.89413 13.9148 6.89923 13.9196 6.90265 13.9228C6.90436 13.9244 6.90577 13.9257 6.90668 13.9265C6.90713 13.927 6.90752 13.9273 6.90777 13.9275C6.908 13.9277 6.9082 13.9279 6.90822 13.9279C6.9088 13.9285 6.90646 13.9264 6.90373 13.9238C6.90067 13.921 6.89592 13.9165 6.89027 13.9108L7.60037 13.2067C7.59436 13.2006 7.58925 13.1957 7.58583 13.1926C7.58413 13.191 7.58271 13.1897 7.58181 13.1888C7.58135 13.1884 7.58096 13.1881 7.58071 13.1878C7.58048 13.1876 7.58028 13.1874 7.58026 13.1874C7.57968 13.1869 7.58202 13.189 7.58475 13.1916C7.58781 13.1944 7.59255 13.1989 7.5982 13.2046L6.88811 13.9087ZM6.8972 13.9176C7.01163 14.0286 7.17008 14.1 7.34653 14.1V13.1C7.44426 13.1 7.53178 13.14 7.59344 13.1998L6.8972 13.9176ZM7.34653 14.1H9.45401V13.1H7.34653V14.1ZM9.45401 14.1C9.81694 14.1 10.1002 13.8039 10.1002 13.4521H9.1002C9.1002 13.2635 9.25283 13.1 9.45401 13.1V14.1ZM10.1002 13.4521V12.9201H9.1002V13.4521H10.1002ZM10.1002 12.9201C10.1002 12.5677 9.81631 12.2724 9.45401 12.2724V13.2724C9.25347 13.2724 9.1002 13.1094 9.1002 12.9201H10.1002Z" fill="white" mask="url(#path-7-inside-4_94_520)"/>
<path d="M14.946 10.25H14.9463C14.9462 10.25 14.9461 10.25 14.946 10.25ZM15.0498 10.25H16.9498V10.5776H15.6204H15.3704V10.8276V11.3861V11.6361H15.6204H16.9498V11.9637H15.6204H15.3704V12.2137V12.7724V13.0224H15.6204H16.9498V13.35H15.0498V10.25ZM15.0498 13.4524V13.4523C15.0498 13.4523 15.0498 13.4524 15.0498 13.4524Z" fill="#D9D9D9" stroke="white" stroke-width="0.5"/>
</svg>
