<svg width="80" height="80" viewBox="0 0 80 80" fill="none" xmlns="http://www.w3.org/2000/svg">
<g clip-path="url(#clip0_766_5566)">
<path d="M25.0003 61.6667H48.3337V58.3333C48.3337 52.1449 45.8753 46.21 41.4995 41.8342C37.1236 37.4583 31.1887 35 25.0003 35C18.8119 35 12.877 37.4583 8.50117 41.8342C4.12532 46.21 1.66699 52.1449 1.66699 58.3333V61.6667H25.0003Z" fill="#EEC2B0"/>
<path d="M24.999 45.1731C29.5936 45.1702 34.119 46.2929 38.1795 48.4428C42.2401 50.5928 45.7122 53.7047 48.2923 57.5065C48.0758 51.4738 45.527 45.7604 41.1827 41.5692C36.8383 37.378 31.0372 35.0358 25.0007 35.0358C18.9641 35.0358 13.163 37.378 8.81864 41.5692C4.47426 45.7604 1.92553 51.4738 1.70898 57.5065C4.28861 53.705 7.76014 50.5932 11.8201 48.4432C15.8801 46.2933 20.4049 45.1705 24.999 45.1731Z" fill="white"/>
<path d="M39.2667 14.2638C36.3122 15.5095 33.1396 16.1554 29.9333 16.1638C26.7768 16.1701 23.6513 15.5419 20.7424 14.3165C17.8335 13.0911 15.2005 11.2935 13 9.0305C14.4851 6.48203 16.729 4.46096 19.4184 3.24948C22.1077 2.038 25.1083 1.69661 28.001 2.27296C30.8938 2.84931 33.5344 4.31463 35.5541 6.46433C37.5737 8.61403 38.8717 11.3408 39.2667 14.2638Z" fill="#C83F00" stroke="#B43900" stroke-width="3" stroke-linecap="round" stroke-linejoin="round"/>
<path d="M39.1664 15.8333C39.1664 19.5906 37.6738 23.1939 35.017 25.8507C32.3603 28.5075 28.7569 30 24.9997 30C21.2425 30 17.6391 28.5075 14.9824 25.8507C12.3256 23.1939 10.833 19.5906 10.833 15.8333C10.8282 13.3255 11.4958 10.8622 12.7664 8.70001C14.9669 10.963 17.5998 12.7606 20.5087 13.986C23.4177 15.2114 26.5432 15.8397 29.6997 15.8333C32.906 15.8249 36.0786 15.1791 39.033 13.9333C39.1272 14.5622 39.1718 15.1975 39.1664 15.8333Z" fill="#EEC2B0" stroke="#B43900" stroke-width="3" stroke-linecap="round" stroke-linejoin="round"/>
<path d="M36.667 38.1233C33.1197 36.0753 29.0957 34.9971 24.9996 34.9973C20.9036 34.9974 16.8797 36.0758 13.3325 38.124C9.78528 40.1723 6.83977 43.1182 4.79204 46.6657C2.74431 50.2132 1.66651 54.2372 1.66699 58.3333V61.6667H31.667" stroke="#B43900" stroke-width="3" stroke-linecap="round" stroke-linejoin="round"/>
<path d="M14.9863 37.2466V48.3333" stroke="#B43900" stroke-width="3" stroke-linecap="round" stroke-linejoin="round"/>
<path d="M11.6533 51.6666C11.6533 52.5507 12.0045 53.3986 12.6296 54.0237C13.2548 54.6488 14.1026 55 14.9867 55C15.8707 55 16.7186 54.6488 17.3437 54.0237C17.9688 53.3986 18.32 52.5507 18.32 51.6666C18.32 50.7826 17.9688 49.9347 17.3437 49.3096C16.7186 48.6845 15.8707 48.3333 14.9867 48.3333C14.1026 48.3333 13.2548 48.6845 12.6296 49.3096C12.0045 49.9347 11.6533 50.7826 11.6533 51.6666Z" fill="#EEC2B0" stroke="#B43900" stroke-width="3" stroke-linecap="round" stroke-linejoin="round"/>
<path d="M24.9863 35V61.6667" stroke="#B43900" stroke-width="3" stroke-linecap="round" stroke-linejoin="round"/>
<path d="M36.6533 38.12V43.3333" stroke="#B43900" stroke-width="3" stroke-linecap="round" stroke-linejoin="round"/>
<path d="M38.3337 43.6233C37.7986 43.4327 37.235 43.3346 36.667 43.3333C35.3409 43.3333 34.0691 43.8601 33.1315 44.7978C32.1938 45.7355 31.667 47.0072 31.667 48.3333V55" stroke="#B43900" stroke-width="3" stroke-linecap="round" stroke-linejoin="round"/>
<path d="M41.6663 48.3333H74.9997C74.9997 48.3333 78.333 48.3333 78.333 51.6666V75C78.333 75 78.333 78.3333 74.9997 78.3333H41.6663C41.6663 78.3333 38.333 78.3333 38.333 75V51.6666C38.333 51.6666 38.333 48.3333 41.6663 48.3333Z" fill="#EEC2B0"/>
<path d="M74.9997 48.3333H41.6663C40.7823 48.3333 39.9344 48.6845 39.3093 49.3096C38.6842 49.9347 38.333 50.7826 38.333 51.6666V59.3333C38.333 58.4493 38.6842 57.6014 39.3093 56.9763C39.9344 56.3512 40.7823 56 41.6663 56H74.9997C75.8837 56 76.7316 56.3512 77.3567 56.9763C77.9818 57.6014 78.333 58.4493 78.333 59.3333V51.6666C78.333 50.7826 77.9818 49.9347 77.3567 49.3096C76.7316 48.6845 75.8837 48.3333 74.9997 48.3333Z" fill="#EEC2B0"/>
<path d="M41.6566 48.3333H74.9899C74.9899 48.3333 78.3232 48.3333 78.3232 51.6666V75C78.3232 75 78.3232 78.3333 74.9899 78.3333H41.6566C41.6566 78.3333 38.3232 78.3333 38.3232 75V51.6666C38.3232 51.6666 38.3232 48.3333 41.6566 48.3333Z" stroke="#B43900" stroke-width="3" stroke-linecap="round" stroke-linejoin="round"/>
<path d="M66.6667 60.8333C66.6667 60.6123 66.5789 60.4004 66.4226 60.2441C66.2663 60.0878 66.0543 60 65.8333 60H61.6667V55.8333C61.6667 55.6123 61.5789 55.4004 61.4226 55.2441C61.2663 55.0878 61.0543 55 60.8333 55H55.8333C55.6123 55 55.4004 55.0878 55.2441 55.2441C55.0878 55.4004 55 55.6123 55 55.8333V60H50.8333C50.6123 60 50.4004 60.0878 50.2441 60.2441C50.0878 60.4004 50 60.6123 50 60.8333V65.8333C50 66.0543 50.0878 66.2663 50.2441 66.4226C50.4004 66.5789 50.6123 66.6667 50.8333 66.6667H55V70.8333C55 71.0543 55.0878 71.2663 55.2441 71.4226C55.4004 71.5789 55.6123 71.6667 55.8333 71.6667H60.8333C61.0543 71.6667 61.2663 71.5789 61.4226 71.4226C61.5789 71.2663 61.6667 71.0543 61.6667 70.8333V66.6667H65.8333C66.0543 66.6667 66.2663 66.5789 66.4226 66.4226C66.5789 66.2663 66.6667 66.0543 66.6667 65.8333V60.8333Z" fill="white" stroke="#B43900" stroke-width="3" stroke-linecap="round" stroke-linejoin="round"/>
<path d="M51.667 48.3334V45C51.667 44.116 52.0182 43.2681 52.6433 42.643C53.2684 42.0179 54.1163 41.6667 55.0003 41.6667H61.667C62.551 41.6667 63.3989 42.0179 64.024 42.643C64.6491 43.2681 65.0003 44.116 65.0003 45V48.3334" stroke="#B43900" stroke-width="3" stroke-linecap="round" stroke-linejoin="round"/>
</g>
<defs>
<clipPath id="clip0_766_5566">
<rect width="80" height="80" fill="white"/>
</clipPath>
</defs>
</svg>
