<svg width="80" height="80" viewBox="0 0 80 80" fill="none" xmlns="http://www.w3.org/2000/svg">
<path d="M14.1665 10C14.1665 12.2102 15.0445 14.3298 16.6073 15.8926C18.1701 17.4554 20.2897 18.3334 22.4998 18.3334C24.71 18.3334 26.8296 17.4554 28.3924 15.8926C29.9552 14.3298 30.8332 12.2102 30.8332 10C30.8332 7.78988 29.9552 5.67027 28.3924 4.10746C26.8296 2.54466 24.71 1.66669 22.4998 1.66669C20.2897 1.66669 18.1701 2.54466 16.6073 4.10746C15.0445 5.67027 14.1665 7.78988 14.1665 10Z" fill="white" stroke="#B43900" stroke-width="3" stroke-linecap="round" stroke-linejoin="round"/>
<path d="M34.1667 65H12.5" stroke="#B43900" stroke-width="3" stroke-linecap="round" stroke-linejoin="round"/>
<path d="M51.3636 58.9467C51.1126 56.0425 49.7787 53.339 47.6266 51.3728C45.4746 49.4066 42.6619 48.3217 39.7469 48.3333H31.6669C31.2527 48.3301 30.8542 48.1748 30.547 47.8971C30.2397 47.6193 30.0452 47.2384 30.0002 46.8267L28.2836 35H45.8336C47.1597 35 48.4314 34.4732 49.3691 33.5355C50.3068 32.5979 50.8336 31.3261 50.8336 30C50.8336 28.6739 50.3068 27.4021 49.3691 26.4645C48.4314 25.5268 47.1597 25 45.8336 25H22.5002C21.7826 25.0001 21.0733 25.1547 20.4207 25.4533C19.7681 25.7519 19.1874 26.1875 18.7181 26.7305C18.2488 27.2734 17.9019 27.9111 17.701 28.6001C17.5 29.289 17.4497 30.0132 17.5536 30.7233L20.1102 48.2133C20.4928 51.01 21.873 53.5743 23.9966 55.4339C26.1202 57.2935 28.8442 58.3232 31.6669 58.3333H39.7436C40.1539 58.325 40.5526 58.4706 40.861 58.7414C41.1694 59.0122 41.3654 59.3887 41.4102 59.7967L42.5269 73.7333C42.6274 74.9849 43.195 76.1528 44.117 77.0051C45.0391 77.8573 46.248 78.3315 47.5036 78.3333H47.9102C49.2318 78.2271 50.4571 77.6003 51.3166 76.5907C52.1761 75.5812 52.5995 74.2716 52.4936 72.95L51.3636 58.9467Z" fill="#EEC2B0" stroke="#B43900" stroke-width="3" stroke-linecap="round" stroke-linejoin="round"/>
<path d="M54.167 35V31.6667C54.167 29.8986 54.8694 28.2029 56.1196 26.9526C57.3699 25.7024 59.0655 25 60.8337 25C62.6018 25 64.2975 25.7024 65.5477 26.9526C66.7979 28.2029 67.5003 29.8986 67.5003 31.6667V78.3333" stroke="#B43900" stroke-width="3" stroke-linecap="round" stroke-linejoin="round"/>
</svg>
