<svg width="80" height="80" viewBox="0 0 80 80" fill="none" xmlns="http://www.w3.org/2000/svg">
<path d="M44.9998 68.3333V11.6666C44.9998 10.7826 44.6486 9.93474 44.0235 9.30962C43.3984 8.6845 42.5506 8.33331 41.6665 8.33331H4.99984C4.11578 8.33331 3.26794 8.6845 2.64281 9.30962C2.01769 9.93474 1.6665 10.7826 1.6665 11.6666V68.3333C1.6665 69.2174 2.01769 70.0652 2.64281 70.6903C3.26794 71.3155 4.11578 71.6666 4.99984 71.6666H41.6665C42.5506 71.6666 43.3984 71.3155 44.0235 70.6903C44.6486 70.0652 44.9998 69.2174 44.9998 68.3333Z" fill="#EEC2B0"/>
<path d="M48.3333 1.66669H10V8.33335H41.6667C42.5507 8.33335 43.3986 8.68454 44.0237 9.30966C44.6488 9.93478 45 10.7826 45 11.6667V26.6667H51.6667V5.00002C51.6667 4.11597 51.3155 3.26812 50.6904 2.643C50.0652 2.01788 49.2174 1.66669 48.3333 1.66669Z" fill="#B43900"/>
<path d="M38.3333 78.3333L29.49 68.07C29.0696 67.565 28.7527 66.9822 28.5575 66.3549C28.3623 65.7275 28.2925 65.0677 28.3523 64.4134C28.4729 63.0919 29.1136 61.8724 30.1333 61.0233C31.1531 60.1742 32.4684 59.7649 33.7899 59.8856C35.1114 60.0062 36.3309 60.6469 37.18 61.6666L45 71.0866V38.3333C45 37.0072 45.5268 35.7355 46.4645 34.7978C47.4022 33.8601 48.6739 33.3333 50 33.3333C51.3261 33.3333 52.5979 33.8601 53.5355 34.7978C54.4732 35.7355 55 37.0072 55 38.3333V58.3333H65C68.5362 58.3333 71.9276 59.7381 74.4281 62.2386C76.9286 64.739 78.3333 68.1304 78.3333 71.6666V78.3333" fill="#EEC2B0"/>
<path d="M38.3333 78.3333L29.49 68.07C29.0696 67.565 28.7527 66.9822 28.5575 66.3549C28.3623 65.7275 28.2925 65.0677 28.3523 64.4134C28.4729 63.0919 29.1136 61.8724 30.1333 61.0233C31.1531 60.1742 32.4684 59.7649 33.7899 59.8856C35.1114 60.0062 36.3309 60.6469 37.18 61.6666L45 71.0866V38.3333C45 37.0072 45.5268 35.7355 46.4645 34.7978C47.4022 33.8601 48.6739 33.3333 50 33.3333C51.3261 33.3333 52.5979 33.8601 53.5355 34.7978C54.4732 35.7355 55 37.0072 55 38.3333V58.3333H65C68.5362 58.3333 71.9276 59.7381 74.4281 62.2386C76.9286 64.739 78.3333 68.1304 78.3333 71.6666V78.3333" stroke="#B43900" stroke-linecap="round" stroke-linejoin="round"/>
<path d="M44.3332 9.76331C44.0362 9.32837 43.6388 8.97134 43.1746 8.72243C42.7104 8.47353 42.1932 8.34006 41.6665 8.33331H4.99984C4.11578 8.33331 3.26794 8.6845 2.64281 9.30962C2.01769 9.93474 1.6665 10.7826 1.6665 11.6666V52.4266L44.3332 9.76331Z" fill="white"/>
<path d="M44.9998 26.6666V11.6666C44.9998 10.7826 44.6486 9.93474 44.0235 9.30962C43.3984 8.6845 42.5506 8.33331 41.6665 8.33331H4.99984C4.11578 8.33331 3.26794 8.6845 2.64281 9.30962C2.01769 9.93474 1.6665 10.7826 1.6665 11.6666V68.3333C1.6665 69.2174 2.01769 70.0652 2.64281 70.6903C3.26794 71.3155 4.11578 71.6666 4.99984 71.6666H19.9998" stroke="#B43900" stroke-linecap="round" stroke-linejoin="round"/>
<path d="M51.6667 26.6667V5.00002C51.6667 4.11597 51.3155 3.26812 50.6904 2.643C50.0652 2.01788 49.2174 1.66669 48.3333 1.66669H10" stroke="#B43900" stroke-linecap="round" stroke-linejoin="round"/>
<path d="M11.6665 51.6667H34.9998" stroke="#B43900" stroke-linecap="round" stroke-linejoin="round"/>
<path d="M23.3333 30C24.4871 30 25.6149 29.6579 26.5742 29.0169C27.5334 28.3759 28.2811 27.4649 28.7226 26.399C29.1641 25.3331 29.2797 24.1602 29.0546 23.0286C28.8295 21.8971 28.2739 20.8577 27.4581 20.0419C26.6423 19.2261 25.6029 18.6705 24.4714 18.4454C23.3398 18.2203 22.1669 18.3358 21.101 18.7774C20.0351 19.2189 19.1241 19.9665 18.4831 20.9258C17.8421 21.8851 17.5 23.0129 17.5 24.1666C17.4996 24.9328 17.6501 25.6916 17.9431 26.3995C18.2361 27.1074 18.6658 27.7507 19.2076 28.2924C19.7493 28.8342 20.3926 29.2638 21.1005 29.5568C21.8084 29.8498 22.5672 30.0004 23.3333 30Z" fill="#EEC2B0" stroke="#B43900" stroke-linecap="round" stroke-linejoin="round"/>
<path d="M34.9998 41.6666C34.3388 39.0742 32.8331 36.7758 30.7204 35.1343C28.6078 33.4927 26.0086 32.6016 23.3332 32.6016C20.6578 32.6016 18.0586 33.4927 15.9459 35.1343C13.8333 36.7758 12.3276 39.0742 11.6665 41.6666H34.9998Z" fill="#C83F00" stroke="#B43900" stroke-linecap="round" stroke-linejoin="round"/>
<path d="M66.5 15C66.489 17.827 67.868 19.433 71 19.5C68.093 19.489 66.648 21.049 66.5 24C66.475 21.216 65.227 19.5 62 19.5C64.888 19.46 66.489 18.066 66.5 15Z" fill="white" stroke="#B43900" stroke-linecap="round" stroke-linejoin="round"/>
<path d="M5.5 2C5.45596 2.33875 5.4903 2.68308 5.60036 3.00646C5.71043 3.32984 5.89328 3.62363 6.13483 3.86517C6.37637 4.10672 6.67016 4.28957 6.99354 4.39964C7.31692 4.5097 7.66125 4.54404 8 4.5C6.385 4.494 5.582 5.36 5.5 7C5.54824 6.66045 5.51682 6.31434 5.40825 5.98903C5.29967 5.66371 5.1169 5.36811 4.87439 5.12561C4.63188 4.8831 4.33629 4.70033 4.01097 4.59175C3.68566 4.48318 3.33955 4.45176 3 4.5C3.33871 4.54383 3.68295 4.50935 4.00624 4.39921C4.32952 4.28908 4.62322 4.10622 4.86472 3.86472C5.10622 3.62322 5.28908 3.32952 5.39922 3.00624C5.50935 2.68295 5.54383 2.33871 5.5 2Z" fill="white" stroke="#B43900" stroke-linecap="round" stroke-linejoin="round"/>
<path d="M65.5 45V52" stroke="#B43900" stroke-linecap="round" stroke-linejoin="round"/>
<path d="M68 48.5H63" stroke="#B43900" stroke-linecap="round" stroke-linejoin="round"/>
</svg>
