<svg width="80" height="80" viewBox="0 0 80 80" fill="none" xmlns="http://www.w3.org/2000/svg">
<g clip-path="url(#clip0_766_5564)">
<path d="M43.4936 58.2667C47.0051 58.2623 50.4973 57.7469 53.8603 56.7367L56.2136 63.12C56.7104 64.3727 57.6772 65.3815 58.9076 65.9311C60.138 66.4806 61.5345 66.5274 62.7989 66.0614C64.0633 65.5954 65.0954 64.6536 65.6749 63.437C66.2544 62.2204 66.3353 60.8254 65.9003 59.55L63.207 52.2467C67.1102 49.6125 70.1347 45.8694 71.8903 41.5H75.0003C75.8843 41.5 76.7322 41.1488 77.3573 40.5237C77.9824 39.8986 78.3336 39.0507 78.3336 38.1667V28.1667C78.3336 27.2826 77.9824 26.4348 77.3573 25.8096C76.7322 25.1845 75.8843 24.8333 75.0003 24.8333H71.8803C70.3342 20.3946 67.6641 16.4325 64.1303 13.3333V3.47666C64.1304 3.21959 64.0711 2.96597 63.957 2.73564C63.8428 2.5053 63.6769 2.30449 63.4723 2.14891C63.2677 1.99333 63.0298 1.8872 62.7773 1.83881C62.5249 1.79042 62.2646 1.8011 62.017 1.86999C58.5674 2.92976 55.5679 5.10606 53.4903 8.05666C50.2379 7.12911 46.8724 6.65794 43.4903 6.65666C30.3336 6.66666 19.0703 13.5167 14.5936 23.17C12.8518 27.746 12.1089 32.6417 12.4147 37.5285C12.7206 42.4153 14.0681 47.1802 16.367 51.5033C24.9095 55.4262 34.1093 57.7199 43.4936 58.2667Z" fill="#EEC2B0"/>
<path d="M73.4302 32.4434C72.8019 32.4562 72.1893 32.6423 71.6599 32.981C71.1306 33.3198 70.7051 33.7982 70.4302 34.3634C65.5436 43.6967 54.0402 48.8334 43.5302 48.85C13.6469 48.85 13.5302 35.2667 13.1469 27.8234C11.4867 35.8547 12.6217 44.2123 16.3636 51.51C24.9055 55.4303 34.1041 57.7217 43.4869 58.2667C46.9995 58.2626 50.4928 57.7472 53.8569 56.7367L56.1169 62.8667C56.5264 64.0534 57.34 65.0585 58.4155 65.7062C59.4909 66.3539 60.7597 66.603 62.0002 66.41C62.7381 66.2711 63.4367 65.973 64.0476 65.5366C64.6585 65.1001 65.167 64.5358 65.5376 63.8828C65.9082 63.2298 66.132 62.504 66.1935 61.7557C66.2549 61.0074 66.1526 60.2547 65.8936 59.55L63.1969 52.2467C67.1021 49.6138 70.1279 45.8704 71.8836 41.5H75.0002C75.8843 41.5 76.7321 41.1488 77.3573 40.5237C77.9824 39.8986 78.3336 39.0508 78.3336 38.1667V32.4434H73.4302Z" fill="white"/>
<path d="M14.5938 23.17C19.0704 13.5167 30.3338 6.66666 43.4904 6.66666C46.8725 6.66794 50.238 7.13911 53.4904 8.06666C55.5665 5.11233 58.5661 2.93237 62.0171 1.86999C62.2647 1.8011 62.525 1.79042 62.7775 1.83881C63.0299 1.8872 63.2678 1.99333 63.4724 2.14891C63.6771 2.30449 63.843 2.5053 63.9571 2.73564C64.0712 2.96597 64.1306 3.21959 64.1304 3.47666V13.3333C67.6666 16.4317 70.3391 20.3939 71.8871 24.8333H75.0004C75.8845 24.8333 76.7323 25.1845 77.3574 25.8096C77.9826 26.4348 78.3337 27.2826 78.3337 28.1667V38.1667C78.3337 39.0507 77.9826 39.8986 77.3574 40.5237C76.7323 41.1488 75.8845 41.5 75.0004 41.5H71.8837C70.1281 45.8694 67.1036 49.6125 63.2004 52.2467L65.8937 59.55C66.3287 60.8254 66.2478 62.2204 65.6684 63.437C65.0889 64.6536 64.0567 65.5954 62.7923 66.0614C61.5279 66.5274 60.1314 66.4806 58.901 65.9311C57.6706 65.3815 56.7038 64.3727 56.2071 63.12L53.8537 56.7367C50.4907 57.7469 46.9986 58.2623 43.4871 58.2667" stroke="#B43900" stroke-width="3" stroke-linecap="round" stroke-linejoin="round"/>
<path d="M57.5062 23.1766C57.3414 23.1766 57.1803 23.2255 57.0432 23.3171C56.9062 23.4087 56.7994 23.5388 56.7363 23.6911C56.6732 23.8433 56.6567 24.0109 56.6889 24.1726C56.721 24.3342 56.8004 24.4827 56.9169 24.5992C57.0335 24.7158 57.182 24.7951 57.3436 24.8273C57.5053 24.8595 57.6728 24.8429 57.8251 24.7799C57.9774 24.7168 58.1075 24.61 58.1991 24.473C58.2906 24.3359 58.3395 24.1748 58.3395 24.01C58.34 23.9004 58.3187 23.7919 58.277 23.6906C58.2353 23.5892 58.1739 23.4972 58.0964 23.4197C58.019 23.3423 57.9269 23.2809 57.8256 23.2392C57.7243 23.1975 57.6157 23.1762 57.5062 23.1766Z" stroke="#B43900" stroke-width="3" stroke-linecap="round" stroke-linejoin="round"/>
<path d="M26.667 19.8434C30.1206 16.0309 34.8782 13.6521 40.0003 13.1767" stroke="#B43900" stroke-width="3" stroke-linecap="round" stroke-linejoin="round"/>
<path d="M1.66016 34.8566C1.66016 35.7407 3.4161 36.5885 6.54171 37.2137C9.66732 37.8388 13.9065 38.19 18.3268 38.19C22.7471 38.19 26.9863 37.8388 30.1119 37.2137C33.2375 36.5885 34.9935 35.7407 34.9935 34.8566C34.9935 33.9726 33.2375 33.1247 30.1119 32.4996C26.9863 31.8745 22.7471 31.5233 18.3268 31.5233C13.9065 31.5233 9.66732 31.8745 6.54171 32.4996C3.4161 33.1247 1.66016 33.9726 1.66016 34.8566Z" fill="#EEC2B0" stroke="#B43900" stroke-width="3" stroke-linecap="round" stroke-linejoin="round"/>
<path d="M35.0003 34.8567V44.8567C35.0003 46.6934 27.5337 48.19 18.3337 48.19C9.13366 48.19 1.66699 46.6934 1.66699 44.8567V34.8567C1.66699 36.6934 9.13033 38.19 18.3337 38.19C27.537 38.19 35.0003 36.6934 35.0003 34.8567Z" fill="white"/>
<path d="M35.0003 44.8567V54.8567C35.0003 56.6934 27.5337 58.19 18.3337 58.19C9.13366 58.19 1.66699 56.6934 1.66699 54.8567V44.8567C1.66699 46.6934 9.13033 48.19 18.3337 48.19C27.537 48.19 35.0003 46.6934 35.0003 44.8567Z" fill="white"/>
<path d="M35.0003 54.8567V64.8567C35.0003 66.6934 27.5337 68.19 18.3337 68.19C9.13366 68.19 1.66699 66.6934 1.66699 64.8567V54.8567C1.66699 56.6934 9.13033 58.19 18.3337 58.19C27.537 58.19 35.0003 56.6934 35.0003 54.8567Z" fill="#C83F00"/>
<path d="M35.0003 64.8567V74.8567C35.0003 76.6934 27.5337 78.19 18.3337 78.19C9.13366 78.19 1.66699 76.6934 1.66699 74.8567V64.8567C1.66699 66.6934 9.13033 68.19 18.3337 68.19C27.537 68.19 35.0003 66.6934 35.0003 64.8567Z" fill="#C83F00"/>
<path d="M18.3337 38.19C9.13033 38.19 1.66699 36.69 1.66699 34.8567V44.8567C1.66699 46.69 9.13033 48.19 18.3337 48.19V38.19Z" fill="#EEC2B0"/>
<path d="M18.3337 48.19C9.13033 48.19 1.66699 46.69 1.66699 44.8567V54.8567C1.66699 56.69 9.13033 58.19 18.3337 58.19V48.19Z" fill="#EEC2B0"/>
<path d="M18.3337 58.19C9.13033 58.19 1.66699 56.69 1.66699 54.8567V64.8567C1.66699 66.69 9.13033 68.19 18.3337 68.19V58.19Z" fill="#EEC2B0"/>
<path d="M18.3337 68.19C9.13033 68.19 1.66699 66.69 1.66699 64.8567V74.8567C1.66699 76.69 9.13033 78.19 18.3337 78.19V68.19Z" fill="#EEC2B0"/>
<path d="M35.0003 34.8567V44.8567C35.0003 46.6934 27.5337 48.19 18.3337 48.19C9.13366 48.19 1.66699 46.6934 1.66699 44.8567V34.8567C1.66699 36.6934 9.13033 38.19 18.3337 38.19C27.537 38.19 35.0003 36.6934 35.0003 34.8567Z" stroke="#B43900" stroke-width="3" stroke-linecap="round" stroke-linejoin="round"/>
<path d="M35.0003 44.8567V54.8567C35.0003 56.6934 27.5337 58.19 18.3337 58.19C9.13366 58.19 1.66699 56.6934 1.66699 54.8567V44.8567C1.66699 46.6934 9.13033 48.19 18.3337 48.19C27.537 48.19 35.0003 46.6934 35.0003 44.8567Z" stroke="#B43900" stroke-width="3" stroke-linecap="round" stroke-linejoin="round"/>
<path d="M35.0003 54.8567V64.8567C35.0003 66.6934 27.5337 68.19 18.3337 68.19C9.13366 68.19 1.66699 66.6934 1.66699 64.8567V54.8567C1.66699 56.6934 9.13033 58.19 18.3337 58.19C27.537 58.19 35.0003 56.6934 35.0003 54.8567Z" stroke="#B43900" stroke-width="3" stroke-linecap="round" stroke-linejoin="round"/>
<path d="M35.0003 64.8567V74.8567C35.0003 76.6934 27.5337 78.19 18.3337 78.19C9.13366 78.19 1.66699 76.6934 1.66699 74.8567V64.8567C1.66699 66.6934 9.13033 68.19 18.3337 68.19C27.537 68.19 35.0003 66.6934 35.0003 64.8567Z" stroke="#B43900" stroke-width="3" stroke-linecap="round" stroke-linejoin="round"/>
</g>
<defs>
<clipPath id="clip0_766_5564">
<rect width="80" height="80" fill="white"/>
</clipPath>
</defs>
</svg>
