<svg width="80" height="80" viewBox="0 0 80 80" fill="none" xmlns="http://www.w3.org/2000/svg">
<path d="M58.3332 11.6667C58.3332 10.7826 57.982 9.93479 57.3569 9.30967C56.7317 8.68455 55.8839 8.33336 54.9998 8.33336H40.1732C39.3085 6.35656 37.8863 4.67471 36.0806 3.49366C34.275 2.31261 32.1641 1.68359 30.0065 1.68359C27.8489 1.68359 25.738 2.31261 23.9324 3.49366C22.1267 4.67471 20.7045 6.35656 19.8398 8.33336H4.99984C4.11578 8.33336 3.26794 8.68455 2.64281 9.30967C2.01769 9.93479 1.6665 10.7826 1.6665 11.6667V68.3334C1.6665 69.2174 2.01769 70.0653 2.64281 70.6904C3.26794 71.3155 4.11578 71.6667 4.99984 71.6667H54.9998C55.8839 71.6667 56.7317 71.3155 57.3569 70.6904C57.982 70.0653 58.3332 69.2174 58.3332 68.3334V11.6667Z" fill="#C83F00"/>
<path d="M48.3332 18.3333H11.6665V61.6666H48.3332V18.3333Z" fill="#EEC2B0"/>
<path d="M11.6665 55.13L48.3332 18.4633V18.3267H11.6665V55.13Z" fill="white"/>
<path d="M48.3332 31.6666V18.3333H11.6665V61.6666H28.3332" stroke="#B43900" stroke-linecap="round" stroke-linejoin="round"/>
<path d="M21.6665 28.3333H38.3332" stroke="#B43900" stroke-linecap="round" stroke-linejoin="round"/>
<path d="M21.6665 38.3333H38.3332" stroke="#B43900" stroke-linecap="round" stroke-linejoin="round"/>
<path d="M21.6665 48.3333H31.6665" stroke="#B43900" stroke-linecap="round" stroke-linejoin="round"/>
<path d="M58.3332 28.3334V11.6667C58.3332 10.7826 57.982 9.93479 57.3569 9.30967C56.7317 8.68455 55.8839 8.33336 54.9998 8.33336H40.1732C39.3085 6.35656 37.8863 4.67471 36.0806 3.49366C34.275 2.31261 32.1641 1.68359 30.0065 1.68359C27.8489 1.68359 25.738 2.31261 23.9324 3.49366C22.1267 4.67471 20.7045 6.35656 19.8398 8.33336H4.99984C4.11578 8.33336 3.26794 8.68455 2.64281 9.30967C2.01769 9.93479 1.6665 10.7826 1.6665 11.6667V68.3334C1.6665 69.2174 2.01769 70.0653 2.64281 70.6904C3.26794 71.3155 4.11578 71.6667 4.99984 71.6667H31.6665" stroke="#B43900" stroke-linecap="round" stroke-linejoin="round"/>
<path d="M58.3335 78.29C62.2891 78.29 66.1559 77.117 69.4449 74.9194C72.7339 72.7217 75.2973 69.5982 76.8111 65.9437C78.3248 62.2891 78.7209 58.2678 77.9492 54.3882C77.1775 50.5086 75.2727 46.9449 72.4756 44.1479C69.6786 41.3508 66.1149 39.446 62.2353 38.6743C58.3557 37.9026 54.3343 38.2986 50.6798 39.8124C47.0253 41.3261 43.9017 43.8896 41.7041 47.1786C39.5065 50.4676 38.3335 54.3344 38.3335 58.29C38.3335 63.5943 40.4406 68.6814 44.1914 72.4321C47.9421 76.1829 53.0292 78.29 58.3335 78.29Z" fill="#EEC2B0"/>
<path d="M58.3334 38.2867C54.2677 38.2932 50.3006 39.5388 46.9607 41.8572C43.6209 44.1757 41.0669 47.457 39.6393 51.2638C38.2116 55.0706 37.9781 59.2221 38.9698 63.165C39.9615 67.1079 42.1313 70.6549 45.1901 73.3334L73.3834 45.14C71.5114 42.9872 69.1991 41.2613 66.6027 40.079C64.0063 38.8967 61.1863 38.2855 58.3334 38.2867Z" fill="white"/>
<path d="M58.3335 78.29C62.2891 78.29 66.1559 77.117 69.4449 74.9194C72.7339 72.7217 75.2973 69.5982 76.8111 65.9437C78.3248 62.2891 78.7209 58.2678 77.9492 54.3882C77.1775 50.5086 75.2727 46.9449 72.4756 44.1479C69.6786 41.3508 66.1149 39.446 62.2353 38.6743C58.3557 37.9026 54.3343 38.2986 50.6798 39.8124C47.0253 41.3261 43.9017 43.8896 41.7041 47.1786C39.5065 50.4676 38.3335 54.3344 38.3335 58.29C38.3335 63.5943 40.4406 68.6814 44.1914 72.4321C47.9421 76.1829 53.0292 78.29 58.3335 78.29Z" stroke="#B43900" stroke-linecap="round" stroke-linejoin="round"/>
<path d="M65.0002 58.2733H58.3335V48.2733" stroke="#B43900" stroke-linecap="round" stroke-linejoin="round"/>
<path d="M66.5 22C66.489 24.827 67.868 26.433 71 26.5C68.093 26.489 66.648 28.049 66.5 31C66.475 28.216 65.227 26.5 62 26.5C64.888 26.46 66.489 25.066 66.5 22Z" fill="white" stroke="#B43900" stroke-linecap="round" stroke-linejoin="round"/>
<path d="M7.5 11V18" stroke="white" stroke-linecap="round" stroke-linejoin="round"/>
<path d="M10 14.5H5" stroke="white" stroke-linecap="round" stroke-linejoin="round"/>
<path d="M75.5 38C75.456 38.3387 75.4903 38.6831 75.6004 39.0065C75.7104 39.3298 75.8933 39.6236 76.1348 39.8652C76.3764 40.1067 76.6702 40.2896 76.9935 40.3996C77.3169 40.5097 77.6613 40.544 78 40.5C76.385 40.494 75.582 41.36 75.5 43C75.5482 42.6605 75.5168 42.3143 75.4082 41.989C75.2997 41.6637 75.1169 41.3681 74.8744 41.1256C74.6319 40.8831 74.3363 40.7003 74.011 40.5918C73.6857 40.4832 73.3395 40.4518 73 40.5C73.3387 40.5438 73.683 40.5094 74.0062 40.3992C74.3295 40.2891 74.6232 40.1062 74.8647 39.8647C75.1062 39.6232 75.2891 39.3295 75.3992 39.0062C75.5094 38.683 75.5438 38.3387 75.5 38Z" fill="white" stroke="#B43900" stroke-linecap="round" stroke-linejoin="round"/>
</svg>
