<svg width="80" height="80" viewBox="0 0 80 80" fill="none" xmlns="http://www.w3.org/2000/svg">
<path d="M28.3335 30C28.3335 30.442 28.5091 30.866 28.8217 31.1785C29.1342 31.4911 29.5581 31.6667 30.0002 31.6667H51.6668V45L66.6668 31.6667H78.3335V1.66669H28.3335V30Z" fill="white"/>
<path d="M70.8335 1.66669H28.3335V30C28.3335 30.442 28.5091 30.866 28.8217 31.1785C29.1342 31.4911 29.5581 31.6667 30.0002 31.6667H40.8335L70.8335 1.66669Z" fill="#EEC2B0"/>
<path d="M1.6665 78.3333C1.6665 72.1449 4.12483 66.21 8.50068 61.8342C12.8765 57.4583 18.8115 55 24.9998 55C31.1882 55 37.1231 57.4583 41.499 61.8342C45.8748 66.21 48.3332 72.1449 48.3332 78.3333H1.6665Z" fill="#C83F00"/>
<path d="M24.9998 55C18.8115 55 12.8765 57.4583 8.50068 61.8342C4.12483 66.21 1.6665 72.1449 1.6665 78.3333H24.9998V55Z" fill="#C83F00"/>
<path d="M15.5131 45.3204C12.997 42.8043 11.5835 39.3917 11.5835 35.8334C11.5835 32.275 12.997 28.8625 15.5131 26.3463C18.0293 23.8302 21.4418 22.4167 25.0002 22.4167C28.5585 22.4167 31.9711 23.8302 34.4872 26.3463C37.0033 28.8625 38.4168 32.275 38.4168 35.8334C38.4168 39.3917 37.0033 42.8043 34.4872 45.3204C31.9711 47.8365 28.5585 49.25 25.0002 49.25C21.4418 49.25 18.0293 47.8365 15.5131 45.3204Z" fill="#EEC2B0" stroke="white" stroke-width="1.5"/>
<path d="M25.0002 50C21.2429 50 17.6396 48.5075 14.9828 45.8507C12.3261 43.1939 10.8335 39.5906 10.8335 35.8334C10.8335 32.0761 12.3261 28.4728 14.9828 25.816C17.6396 23.1592 21.2429 21.6667 25.0002 21.6667V50Z" fill="#EEC2B0"/>
<path d="M10.8335 35.8334C10.8335 39.5906 12.3261 43.1939 14.9828 45.8507C17.6396 48.5075 21.2429 50 25.0002 50C28.7574 50 32.3607 48.5075 35.0175 45.8507C37.6743 43.1939 39.1668 39.5906 39.1668 35.8334C39.1668 32.0761 37.6743 28.4728 35.0175 25.816C32.3607 23.1592 28.7574 21.6667 25.0002 21.6667C21.2429 21.6667 17.6396 23.1592 14.9828 25.816C12.3261 28.4728 10.8335 32.0761 10.8335 35.8334Z" stroke="#EEC2B0" stroke-linecap="round" stroke-linejoin="round"/>
<path d="M1.6665 78.3333C1.6665 72.1449 4.12483 66.21 8.50068 61.8342C12.8765 57.4583 18.8115 55 24.9998 55C31.1882 55 37.1231 57.4583 41.499 61.8342C45.8748 66.21 48.3332 72.1449 48.3332 78.3333H1.6665Z" stroke="#B43900" stroke-linecap="round" stroke-linejoin="round"/>
<path d="M44.9902 31.6667H51.6668V45L66.6668 31.6667H78.3335V1.66669H28.3335V15" stroke="#B43900" stroke-linecap="round" stroke-linejoin="round"/>
<path d="M53.3333 15.8333C53.4429 15.8329 53.5515 15.8541 53.6528 15.8959C53.7541 15.9376 53.8461 15.9989 53.9236 16.0764C54.001 16.1539 54.0624 16.2459 54.1041 16.3472C54.1459 16.4485 54.1671 16.5571 54.1667 16.6667C54.1671 16.7762 54.1459 16.8848 54.1041 16.9861C54.0624 17.0874 54.001 17.1794 53.9236 17.2569C53.8461 17.3344 53.7541 17.3957 53.6528 17.4375C53.5515 17.4792 53.4429 17.5004 53.3333 17.5C53.1123 17.5 52.9004 17.4122 52.7441 17.2559C52.5878 17.0996 52.5 16.8877 52.5 16.6667C52.5 16.4456 52.5878 16.2337 52.7441 16.0774C52.9004 15.9211 53.1123 15.8333 53.3333 15.8333Z" stroke="#B43900" stroke-linecap="round" stroke-linejoin="round"/>
<path d="M64.9998 15.8333C65.1094 15.8329 65.218 15.8541 65.3193 15.8959C65.4206 15.9376 65.5126 15.9989 65.5901 16.0764C65.6675 16.1539 65.7289 16.2459 65.7706 16.3472C65.8124 16.4485 65.8336 16.5571 65.8332 16.6667C65.8336 16.7762 65.8124 16.8848 65.7706 16.9861C65.7289 17.0874 65.6675 17.1794 65.5901 17.2569C65.5126 17.3344 65.4206 17.3957 65.3193 17.4375C65.218 17.4792 65.1094 17.5004 64.9998 17.5C64.7788 17.5 64.5669 17.4122 64.4106 17.2559C64.2543 17.0996 64.1665 16.8877 64.1665 16.6667C64.1665 16.4456 64.2543 16.2337 64.4106 16.0774C64.5669 15.9211 64.7788 15.8333 64.9998 15.8333Z" stroke="#B43900" stroke-linecap="round" stroke-linejoin="round"/>
<path d="M41.6668 15.8333C41.4458 15.8333 41.2339 15.9211 41.0776 16.0774C40.9213 16.2337 40.8335 16.4456 40.8335 16.6666C40.8335 16.8877 40.9213 17.0996 41.0776 17.2559C41.2339 17.4122 41.4458 17.5 41.6668 17.5C41.8878 17.5 42.0998 17.4122 42.2561 17.2559C42.4124 17.0996 42.5002 16.8877 42.5002 16.6666C42.5002 16.4456 42.4124 16.2337 42.2561 16.0774C42.0998 15.9211 41.8878 15.8333 41.6668 15.8333Z" stroke="#B43900" stroke-linecap="round" stroke-linejoin="round"/>
<path d="M5.5 14C5.45596 14.3387 5.4903 14.6831 5.60036 15.0065C5.71043 15.3298 5.89328 15.6236 6.13483 15.8652C6.37637 16.1067 6.67016 16.2896 6.99354 16.3996C7.31692 16.5097 7.66125 16.544 8 16.5C6.385 16.494 5.582 17.36 5.5 19C5.54824 18.6605 5.51682 18.3143 5.40825 17.989C5.29967 17.6637 5.1169 17.3681 4.87439 17.1256C4.63188 16.8831 4.33629 16.7003 4.01097 16.5918C3.68566 16.4832 3.33955 16.4518 3 16.5C3.33871 16.5438 3.68295 16.5094 4.00624 16.3992C4.32952 16.2891 4.62322 16.1062 4.86472 15.8647C5.10622 15.6232 5.28908 15.3295 5.39922 15.0062C5.50935 14.683 5.54383 14.3387 5.5 14Z" fill="white" stroke="#B43900" stroke-linecap="round" stroke-linejoin="round"/>
<path d="M70.5 40C70.489 42.827 71.868 44.433 75 44.5C72.093 44.489 70.648 46.049 70.5 49C70.475 46.216 69.227 44.5 66 44.5C68.888 44.46 70.489 43.066 70.5 40Z" fill="white" stroke="#B43900" stroke-linecap="round" stroke-linejoin="round"/>
<path d="M47.5 52V59" stroke="#B43900" stroke-linecap="round" stroke-linejoin="round"/>
<path d="M50 55.5H45" stroke="#B43900" stroke-linecap="round" stroke-linejoin="round"/>
</svg>
