<svg width="361" height="107" viewBox="0 0 361 107" fill="none" xmlns="http://www.w3.org/2000/svg">
<mask id="path-1-outside-1_193_1172" maskUnits="userSpaceOnUse" x="0" y="19.5662" width="87" height="68" fill="black">
<rect fill="white" y="19.5662" width="87" height="68"/>
<path d="M25.8181 20.6165C25.2851 20.7619 24.526 20.988 24.1223 21.1333C17.8397 23.4751 15.2395 31.0174 18.0013 38.915C19.374 42.8395 21.9904 46.538 27.1263 51.8676C35.153 60.1851 36.3966 61.897 36.4612 64.7395C36.4935 66.0315 36.6873 66.4353 37.1395 66.0638C37.3656 65.8862 37.3979 65.6278 37.3333 64.465C37.1557 61.3479 36.1059 59.9267 27.207 50.6563C21.4413 44.6645 18.8895 40.4654 18.0497 35.6687C17.7267 33.8599 17.8236 30.4844 18.2274 29.0147C18.6473 27.4804 19.6809 25.5262 20.6176 24.5411C24.5906 20.2773 31.9229 20.1158 36.2351 24.2019C37.8663 25.72 39.4329 28.3526 40.1112 30.6459C40.2889 31.2435 40.2727 31.4211 39.9013 32.3417C39.2229 34.0375 38.69 36.0725 38.48 37.7844C38.1409 40.4169 38.6415 42.6457 39.659 43.0818C40.4504 43.4209 40.9833 43.1302 41.5163 42.0481C41.9685 41.1276 41.9685 41.1114 41.9685 37.8167C41.9685 35.2165 41.9039 34.1667 41.6617 32.9231C41.3548 31.3565 41.3548 31.3404 41.6617 30.7913C41.8393 30.4844 42.3238 29.8384 42.7437 29.3539C44.7302 27.0605 47.7827 26.8183 50.0114 28.7725C50.7382 29.4023 51.7718 31.0981 52.2079 32.3579C52.9993 34.6674 53.2415 38.7696 52.8055 42.3388C52.3048 46.4088 50.9482 51.8515 49.6884 54.8877C49.43 55.5176 49.3493 55.5338 48.461 55.0815C46.8944 54.2902 45.1017 52.9174 43.5028 51.3023C41.5486 49.2997 40.8057 48.8152 39.5621 48.686C38.803 48.6052 38.5769 48.6537 37.9309 49.0413C36.7035 49.7519 36.219 51.3023 36.5581 53.4019C37.0103 56.2121 38.6415 58.7477 41.4517 61.0572C42.8083 62.1393 43.2767 62.43 43.5997 62.3008C44.0681 62.1231 43.7935 61.7355 42.4207 60.6211C39.1583 58.0209 37.5917 55.5499 37.4141 52.7397C37.2687 50.6079 37.8501 49.6388 39.2552 49.5742C40.2566 49.5419 41.1771 50.1557 43.099 52.126C44.9079 53.9833 46.9105 55.4853 48.2995 56.0021C48.6871 56.1475 48.9939 56.3413 48.9939 56.4382C48.9939 56.745 47.3466 59.6844 46.3937 61.0734C43.519 65.2725 39.5298 68.4864 35.5891 69.7785C34.394 70.1661 33.974 70.1984 33.974 69.8915C33.974 69.3908 32.6174 67.0167 31.9552 66.3546C30.7763 65.1594 29.355 65.0625 28.7251 66.1123C28.4667 66.5322 28.386 67.049 28.3214 68.6641L28.2406 70.6829H26.8032H25.3497L23.6539 68.6641C19.697 63.9643 17.1776 62.0424 14.9165 62.0424C11.9771 62.0424 11.5411 64.5296 13.9959 67.3074C14.3513 67.7112 14.5935 68.0665 14.5451 68.115C14.5128 68.1634 13.3176 67.6466 11.9125 67.0006C8.52094 65.4017 7.48731 65.0625 6.19528 65.0625C4.56408 65.0625 3.12669 65.9346 2.88444 67.0813C2.62603 68.2442 3.53045 69.3262 5.79152 70.5698C6.58289 71.0059 7.26121 71.4581 7.29351 71.555C7.32581 71.6681 7.0997 71.7327 6.64749 71.7327C5.12935 71.7488 2.91674 72.4433 1.99616 73.2185C0.978684 74.0745 0.671825 75.5603 1.3986 76.2063C1.99616 76.7554 2.41607 76.9008 3.40125 76.9008C4.67714 76.9008 8.58554 77.2723 14.5774 77.9667C20.0685 78.5966 19.7617 78.4997 21.8612 80.2924C23.6378 81.8105 25.1559 82.6019 27.3524 83.1833C28.0145 83.361 28.9836 83.6517 29.5004 83.8293C30.7763 84.2815 32.6659 84.6207 34.8946 84.8145C36.332 84.9437 36.9134 85.0729 37.5594 85.3959C39.6428 86.4457 41.7101 86.6718 48.2672 86.5265C52.8216 86.4296 55.4541 86.2035 57.1338 85.7674C60.7999 84.8307 63.917 83.3448 68.1322 80.5185C69.8119 79.4041 71.5077 78.3382 71.9276 78.1605C72.7351 77.8052 74.334 77.4176 75.5614 77.2561C76.9827 77.0623 82.1347 77.1431 83.9274 77.3692C85.2517 77.5468 85.7201 77.5468 85.8654 77.4015C86.253 77.0138 85.5909 76.707 83.782 76.497C78.7431 75.8833 74.124 76.2386 71.4269 77.4338C70.9424 77.6437 69.3274 78.645 67.8092 79.6787C63.3517 82.6827 60.7999 83.9101 57.1661 84.8145C54.3559 85.4928 52.757 85.622 46.6037 85.622C40.628 85.622 39.7074 85.509 37.8663 84.5884C36.4128 83.8455 33.6672 81.3906 32.0037 79.3234C30.2433 77.1269 29.4035 74.236 29.1935 69.6331C29.0805 67.1782 29.2743 66.3546 29.9849 66.2738C31.3577 66.1123 32.892 68.6802 33.7479 72.5886C34.1517 74.4459 35.2499 76.5455 36.2997 77.5145C37.4302 78.5481 38.4477 78.9035 40.192 78.9035C42.34 78.9035 43.3574 78.4835 51.901 74.0422C57.6021 71.0705 61.1552 70.0369 63.5455 70.6829C64.9183 71.0705 65.3705 71.0705 65.4351 70.7313C65.4997 70.3922 64.886 70.053 63.7232 69.8108C60.8161 69.197 57.4245 70.1984 50.7705 73.6384C43.2767 77.5145 42.4207 77.8698 40.4181 77.9829C39.1745 78.0636 38.9322 78.0313 38.1409 77.676C36.978 77.1431 36.1544 76.2709 35.4922 74.882C35.04 73.9614 34.2163 71.2643 34.3455 71.1512C34.3616 71.1351 34.9592 70.9251 35.6698 70.6829C41.1287 68.8579 45.99 64.3842 49.0747 58.3601C49.4946 57.5364 49.8984 56.8258 49.9791 56.7773C50.0599 56.7289 50.2537 56.7773 50.4152 56.8581C51.0451 57.1973 54.049 57.6818 56.9238 57.924C61.9305 58.3439 64.2884 58.8931 66.2103 60.0397C67.5024 60.815 68.1484 61.4771 68.6329 62.4785C68.9074 63.076 69.1174 63.3344 69.3435 63.3344C70.0057 63.3344 73.4619 62.3331 74.8024 61.7678C77.8871 60.4273 81.0526 58.4085 81.0526 57.7625C81.0526 57.1973 80.5681 57.3265 79.3406 58.2309C77.9678 59.2484 75.9652 60.3304 74.1079 61.0734C72.7836 61.6063 70.2641 62.3654 69.8119 62.3654C69.6665 62.3654 69.4243 62.0747 69.2628 61.7032C68.8751 60.8473 67.5024 59.636 66.2265 59.0061C63.9816 57.924 62.2212 57.5364 57.6344 57.1165C54.4851 56.8419 52.4501 56.5351 51.1097 56.1313C50.4152 55.9375 50.286 55.8406 50.3667 55.6145C51.7072 52.3198 52.9993 47.3132 53.5807 43.3079C54.8566 34.3121 52.6116 27.7711 47.8796 26.6729C45.6024 26.14 43.1313 27.2382 41.3709 29.58L40.9349 30.1453L40.7411 29.58C40.3535 28.5141 39.1422 26.2692 38.3347 25.1871C36.8811 23.2167 34.297 21.424 31.9391 20.778C30.5663 20.4065 27.0616 20.3096 25.8181 20.6165ZM41.0964 35.6041C41.2417 37.09 41.2417 38.1074 41.1125 39.4964C40.8541 42.1289 40.3212 43.001 39.6751 41.8059C39.2391 41.0145 39.2714 37.5745 39.7559 35.6849C39.9497 34.9096 40.2243 34.0052 40.3535 33.6661C40.7249 32.7778 40.8864 33.1815 41.0964 35.6041ZM16.58 63.3183C18.082 63.9804 21.0698 66.7422 23.1209 69.3747C24.6391 71.345 27.2232 73.9776 28.4183 74.8174C28.9028 75.1404 29.1128 75.4311 29.1935 75.8187C29.3389 76.6262 30.2917 78.4835 31.1477 79.6464C31.5838 80.2278 32.6497 81.4068 33.538 82.2789C34.4263 83.151 35.1207 83.8939 35.0723 83.9262C34.9592 84.0554 31.0347 83.3771 30.001 83.0541C27.8692 82.4081 27.8692 82.4081 20.7791 73.913C18.5504 71.2481 16.2409 68.5187 15.6433 67.8565C13.7537 65.757 13.0108 64.3681 13.3176 63.5444C13.576 62.8338 15.1911 62.7207 16.58 63.3183ZM7.98798 66.2577C8.9247 66.5645 11.4603 67.7273 15.1911 69.5523L16.5154 70.1984L20.0201 74.3975C21.942 76.707 24.1384 79.3072 24.8975 80.1793C25.6404 81.0515 26.2218 81.8105 26.1734 81.859C26.0119 82.0205 23.6378 80.6315 22.701 79.824C20.763 78.1767 15.8532 75.0758 10.4751 72.1364C10.0229 71.8942 9.05391 71.345 8.29483 70.9251C7.53576 70.5052 6.45368 69.9077 5.87227 69.5846C4.09572 68.5995 3.5143 67.8242 3.91806 66.9521C4.14417 66.4353 5.2747 65.9185 6.21143 65.9185C6.61519 65.9185 7.42271 66.0638 7.98798 66.2577ZM28.5798 72.6371C28.6767 73.2185 28.6928 73.7192 28.6282 73.7676C28.4829 73.8484 26.3833 71.9265 26.3833 71.7165C26.3833 71.6358 26.8517 71.5711 27.4008 71.5711H28.4344L28.5798 72.6371ZM10.5559 73.2346C11.7187 73.8484 17.1937 77.03 17.3229 77.1592C17.5652 77.3853 16.7415 77.3369 12.8816 76.9169C10.4913 76.6424 7.1643 76.3032 5.46851 76.1579C2.06076 75.8672 1.6893 75.7218 1.89926 74.8658C2.25457 73.4931 4.69329 72.5725 7.97183 72.5725C9.26386 72.5725 9.40921 72.6048 10.5559 73.2346Z"/>
</mask>
<path d="M25.8181 20.6165C25.2851 20.7619 24.526 20.988 24.1223 21.1333C17.8397 23.4751 15.2395 31.0174 18.0013 38.915C19.374 42.8395 21.9904 46.538 27.1263 51.8676C35.153 60.1851 36.3966 61.897 36.4612 64.7395C36.4935 66.0315 36.6873 66.4353 37.1395 66.0638C37.3656 65.8862 37.3979 65.6278 37.3333 64.465C37.1557 61.3479 36.1059 59.9267 27.207 50.6563C21.4413 44.6645 18.8895 40.4654 18.0497 35.6687C17.7267 33.8599 17.8236 30.4844 18.2274 29.0147C18.6473 27.4804 19.6809 25.5262 20.6176 24.5411C24.5906 20.2773 31.9229 20.1158 36.2351 24.2019C37.8663 25.72 39.4329 28.3526 40.1112 30.6459C40.2889 31.2435 40.2727 31.4211 39.9013 32.3417C39.2229 34.0375 38.69 36.0725 38.48 37.7844C38.1409 40.4169 38.6415 42.6457 39.659 43.0818C40.4504 43.4209 40.9833 43.1302 41.5163 42.0481C41.9685 41.1276 41.9685 41.1114 41.9685 37.8167C41.9685 35.2165 41.9039 34.1667 41.6617 32.9231C41.3548 31.3565 41.3548 31.3404 41.6617 30.7913C41.8393 30.4844 42.3238 29.8384 42.7437 29.3539C44.7302 27.0605 47.7827 26.8183 50.0114 28.7725C50.7382 29.4023 51.7718 31.0981 52.2079 32.3579C52.9993 34.6674 53.2415 38.7696 52.8055 42.3388C52.3048 46.4088 50.9482 51.8515 49.6884 54.8877C49.43 55.5176 49.3493 55.5338 48.461 55.0815C46.8944 54.2902 45.1017 52.9174 43.5028 51.3023C41.5486 49.2997 40.8057 48.8152 39.5621 48.686C38.803 48.6052 38.5769 48.6537 37.9309 49.0413C36.7035 49.7519 36.219 51.3023 36.5581 53.4019C37.0103 56.2121 38.6415 58.7477 41.4517 61.0572C42.8083 62.1393 43.2767 62.43 43.5997 62.3008C44.0681 62.1231 43.7935 61.7355 42.4207 60.6211C39.1583 58.0209 37.5917 55.5499 37.4141 52.7397C37.2687 50.6079 37.8501 49.6388 39.2552 49.5742C40.2566 49.5419 41.1771 50.1557 43.099 52.126C44.9079 53.9833 46.9105 55.4853 48.2995 56.0021C48.6871 56.1475 48.9939 56.3413 48.9939 56.4382C48.9939 56.745 47.3466 59.6844 46.3937 61.0734C43.519 65.2725 39.5298 68.4864 35.5891 69.7785C34.394 70.1661 33.974 70.1984 33.974 69.8915C33.974 69.3908 32.6174 67.0167 31.9552 66.3546C30.7763 65.1594 29.355 65.0625 28.7251 66.1123C28.4667 66.5322 28.386 67.049 28.3214 68.6641L28.2406 70.6829H26.8032H25.3497L23.6539 68.6641C19.697 63.9643 17.1776 62.0424 14.9165 62.0424C11.9771 62.0424 11.5411 64.5296 13.9959 67.3074C14.3513 67.7112 14.5935 68.0665 14.5451 68.115C14.5128 68.1634 13.3176 67.6466 11.9125 67.0006C8.52094 65.4017 7.48731 65.0625 6.19528 65.0625C4.56408 65.0625 3.12669 65.9346 2.88444 67.0813C2.62603 68.2442 3.53045 69.3262 5.79152 70.5698C6.58289 71.0059 7.26121 71.4581 7.29351 71.555C7.32581 71.6681 7.0997 71.7327 6.64749 71.7327C5.12935 71.7488 2.91674 72.4433 1.99616 73.2185C0.978684 74.0745 0.671825 75.5603 1.3986 76.2063C1.99616 76.7554 2.41607 76.9008 3.40125 76.9008C4.67714 76.9008 8.58554 77.2723 14.5774 77.9667C20.0685 78.5966 19.7617 78.4997 21.8612 80.2924C23.6378 81.8105 25.1559 82.6019 27.3524 83.1833C28.0145 83.361 28.9836 83.6517 29.5004 83.8293C30.7763 84.2815 32.6659 84.6207 34.8946 84.8145C36.332 84.9437 36.9134 85.0729 37.5594 85.3959C39.6428 86.4457 41.7101 86.6718 48.2672 86.5265C52.8216 86.4296 55.4541 86.2035 57.1338 85.7674C60.7999 84.8307 63.917 83.3448 68.1322 80.5185C69.8119 79.4041 71.5077 78.3382 71.9276 78.1605C72.7351 77.8052 74.334 77.4176 75.5614 77.2561C76.9827 77.0623 82.1347 77.1431 83.9274 77.3692C85.2517 77.5468 85.7201 77.5468 85.8654 77.4015C86.253 77.0138 85.5909 76.707 83.782 76.497C78.7431 75.8833 74.124 76.2386 71.4269 77.4338C70.9424 77.6437 69.3274 78.645 67.8092 79.6787C63.3517 82.6827 60.7999 83.9101 57.1661 84.8145C54.3559 85.4928 52.757 85.622 46.6037 85.622C40.628 85.622 39.7074 85.509 37.8663 84.5884C36.4128 83.8455 33.6672 81.3906 32.0037 79.3234C30.2433 77.1269 29.4035 74.236 29.1935 69.6331C29.0805 67.1782 29.2743 66.3546 29.9849 66.2738C31.3577 66.1123 32.892 68.6802 33.7479 72.5886C34.1517 74.4459 35.2499 76.5455 36.2997 77.5145C37.4302 78.5481 38.4477 78.9035 40.192 78.9035C42.34 78.9035 43.3574 78.4835 51.901 74.0422C57.6021 71.0705 61.1552 70.0369 63.5455 70.6829C64.9183 71.0705 65.3705 71.0705 65.4351 70.7313C65.4997 70.3922 64.886 70.053 63.7232 69.8108C60.8161 69.197 57.4245 70.1984 50.7705 73.6384C43.2767 77.5145 42.4207 77.8698 40.4181 77.9829C39.1745 78.0636 38.9322 78.0313 38.1409 77.676C36.978 77.1431 36.1544 76.2709 35.4922 74.882C35.04 73.9614 34.2163 71.2643 34.3455 71.1512C34.3616 71.1351 34.9592 70.9251 35.6698 70.6829C41.1287 68.8579 45.99 64.3842 49.0747 58.3601C49.4946 57.5364 49.8984 56.8258 49.9791 56.7773C50.0599 56.7289 50.2537 56.7773 50.4152 56.8581C51.0451 57.1973 54.049 57.6818 56.9238 57.924C61.9305 58.3439 64.2884 58.8931 66.2103 60.0397C67.5024 60.815 68.1484 61.4771 68.6329 62.4785C68.9074 63.076 69.1174 63.3344 69.3435 63.3344C70.0057 63.3344 73.4619 62.3331 74.8024 61.7678C77.8871 60.4273 81.0526 58.4085 81.0526 57.7625C81.0526 57.1973 80.5681 57.3265 79.3406 58.2309C77.9678 59.2484 75.9652 60.3304 74.1079 61.0734C72.7836 61.6063 70.2641 62.3654 69.8119 62.3654C69.6665 62.3654 69.4243 62.0747 69.2628 61.7032C68.8751 60.8473 67.5024 59.636 66.2265 59.0061C63.9816 57.924 62.2212 57.5364 57.6344 57.1165C54.4851 56.8419 52.4501 56.5351 51.1097 56.1313C50.4152 55.9375 50.286 55.8406 50.3667 55.6145C51.7072 52.3198 52.9993 47.3132 53.5807 43.3079C54.8566 34.3121 52.6116 27.7711 47.8796 26.6729C45.6024 26.14 43.1313 27.2382 41.3709 29.58L40.9349 30.1453L40.7411 29.58C40.3535 28.5141 39.1422 26.2692 38.3347 25.1871C36.8811 23.2167 34.297 21.424 31.9391 20.778C30.5663 20.4065 27.0616 20.3096 25.8181 20.6165ZM41.0964 35.6041C41.2417 37.09 41.2417 38.1074 41.1125 39.4964C40.8541 42.1289 40.3212 43.001 39.6751 41.8059C39.2391 41.0145 39.2714 37.5745 39.7559 35.6849C39.9497 34.9096 40.2243 34.0052 40.3535 33.6661C40.7249 32.7778 40.8864 33.1815 41.0964 35.6041ZM16.58 63.3183C18.082 63.9804 21.0698 66.7422 23.1209 69.3747C24.6391 71.345 27.2232 73.9776 28.4183 74.8174C28.9028 75.1404 29.1128 75.4311 29.1935 75.8187C29.3389 76.6262 30.2917 78.4835 31.1477 79.6464C31.5838 80.2278 32.6497 81.4068 33.538 82.2789C34.4263 83.151 35.1207 83.8939 35.0723 83.9262C34.9592 84.0554 31.0347 83.3771 30.001 83.0541C27.8692 82.4081 27.8692 82.4081 20.7791 73.913C18.5504 71.2481 16.2409 68.5187 15.6433 67.8565C13.7537 65.757 13.0108 64.3681 13.3176 63.5444C13.576 62.8338 15.1911 62.7207 16.58 63.3183ZM7.98798 66.2577C8.9247 66.5645 11.4603 67.7273 15.1911 69.5523L16.5154 70.1984L20.0201 74.3975C21.942 76.707 24.1384 79.3072 24.8975 80.1793C25.6404 81.0515 26.2218 81.8105 26.1734 81.859C26.0119 82.0205 23.6378 80.6315 22.701 79.824C20.763 78.1767 15.8532 75.0758 10.4751 72.1364C10.0229 71.8942 9.05391 71.345 8.29483 70.9251C7.53576 70.5052 6.45368 69.9077 5.87227 69.5846C4.09572 68.5995 3.5143 67.8242 3.91806 66.9521C4.14417 66.4353 5.2747 65.9185 6.21143 65.9185C6.61519 65.9185 7.42271 66.0638 7.98798 66.2577ZM28.5798 72.6371C28.6767 73.2185 28.6928 73.7192 28.6282 73.7676C28.4829 73.8484 26.3833 71.9265 26.3833 71.7165C26.3833 71.6358 26.8517 71.5711 27.4008 71.5711H28.4344L28.5798 72.6371ZM10.5559 73.2346C11.7187 73.8484 17.1937 77.03 17.3229 77.1592C17.5652 77.3853 16.7415 77.3369 12.8816 76.9169C10.4913 76.6424 7.1643 76.3032 5.46851 76.1579C2.06076 75.8672 1.6893 75.7218 1.89926 74.8658C2.25457 73.4931 4.69329 72.5725 7.97183 72.5725C9.26386 72.5725 9.40921 72.6048 10.5559 73.2346Z" fill="black"/>
<path d="M25.8181 20.6165C25.2851 20.7619 24.526 20.988 24.1223 21.1333C17.8397 23.4751 15.2395 31.0174 18.0013 38.915C19.374 42.8395 21.9904 46.538 27.1263 51.8676C35.153 60.1851 36.3966 61.897 36.4612 64.7395C36.4935 66.0315 36.6873 66.4353 37.1395 66.0638C37.3656 65.8862 37.3979 65.6278 37.3333 64.465C37.1557 61.3479 36.1059 59.9267 27.207 50.6563C21.4413 44.6645 18.8895 40.4654 18.0497 35.6687C17.7267 33.8599 17.8236 30.4844 18.2274 29.0147C18.6473 27.4804 19.6809 25.5262 20.6176 24.5411C24.5906 20.2773 31.9229 20.1158 36.2351 24.2019C37.8663 25.72 39.4329 28.3526 40.1112 30.6459C40.2889 31.2435 40.2727 31.4211 39.9013 32.3417C39.2229 34.0375 38.69 36.0725 38.48 37.7844C38.1409 40.4169 38.6415 42.6457 39.659 43.0818C40.4504 43.4209 40.9833 43.1302 41.5163 42.0481C41.9685 41.1276 41.9685 41.1114 41.9685 37.8167C41.9685 35.2165 41.9039 34.1667 41.6617 32.9231C41.3548 31.3565 41.3548 31.3404 41.6617 30.7913C41.8393 30.4844 42.3238 29.8384 42.7437 29.3539C44.7302 27.0605 47.7827 26.8183 50.0114 28.7725C50.7382 29.4023 51.7718 31.0981 52.2079 32.3579C52.9993 34.6674 53.2415 38.7696 52.8055 42.3388C52.3048 46.4088 50.9482 51.8515 49.6884 54.8877C49.43 55.5176 49.3493 55.5338 48.461 55.0815C46.8944 54.2902 45.1017 52.9174 43.5028 51.3023C41.5486 49.2997 40.8057 48.8152 39.5621 48.686C38.803 48.6052 38.5769 48.6537 37.9309 49.0413C36.7035 49.7519 36.219 51.3023 36.5581 53.4019C37.0103 56.2121 38.6415 58.7477 41.4517 61.0572C42.8083 62.1393 43.2767 62.43 43.5997 62.3008C44.0681 62.1231 43.7935 61.7355 42.4207 60.6211C39.1583 58.0209 37.5917 55.5499 37.4141 52.7397C37.2687 50.6079 37.8501 49.6388 39.2552 49.5742C40.2566 49.5419 41.1771 50.1557 43.099 52.126C44.9079 53.9833 46.9105 55.4853 48.2995 56.0021C48.6871 56.1475 48.9939 56.3413 48.9939 56.4382C48.9939 56.745 47.3466 59.6844 46.3937 61.0734C43.519 65.2725 39.5298 68.4864 35.5891 69.7785C34.394 70.1661 33.974 70.1984 33.974 69.8915C33.974 69.3908 32.6174 67.0167 31.9552 66.3546C30.7763 65.1594 29.355 65.0625 28.7251 66.1123C28.4667 66.5322 28.386 67.049 28.3214 68.6641L28.2406 70.6829H26.8032H25.3497L23.6539 68.6641C19.697 63.9643 17.1776 62.0424 14.9165 62.0424C11.9771 62.0424 11.5411 64.5296 13.9959 67.3074C14.3513 67.7112 14.5935 68.0665 14.5451 68.115C14.5128 68.1634 13.3176 67.6466 11.9125 67.0006C8.52094 65.4017 7.48731 65.0625 6.19528 65.0625C4.56408 65.0625 3.12669 65.9346 2.88444 67.0813C2.62603 68.2442 3.53045 69.3262 5.79152 70.5698C6.58289 71.0059 7.26121 71.4581 7.29351 71.555C7.32581 71.6681 7.0997 71.7327 6.64749 71.7327C5.12935 71.7488 2.91674 72.4433 1.99616 73.2185C0.978684 74.0745 0.671825 75.5603 1.3986 76.2063C1.99616 76.7554 2.41607 76.9008 3.40125 76.9008C4.67714 76.9008 8.58554 77.2723 14.5774 77.9667C20.0685 78.5966 19.7617 78.4997 21.8612 80.2924C23.6378 81.8105 25.1559 82.6019 27.3524 83.1833C28.0145 83.361 28.9836 83.6517 29.5004 83.8293C30.7763 84.2815 32.6659 84.6207 34.8946 84.8145C36.332 84.9437 36.9134 85.0729 37.5594 85.3959C39.6428 86.4457 41.7101 86.6718 48.2672 86.5265C52.8216 86.4296 55.4541 86.2035 57.1338 85.7674C60.7999 84.8307 63.917 83.3448 68.1322 80.5185C69.8119 79.4041 71.5077 78.3382 71.9276 78.1605C72.7351 77.8052 74.334 77.4176 75.5614 77.2561C76.9827 77.0623 82.1347 77.1431 83.9274 77.3692C85.2517 77.5468 85.7201 77.5468 85.8654 77.4015C86.253 77.0138 85.5909 76.707 83.782 76.497C78.7431 75.8833 74.124 76.2386 71.4269 77.4338C70.9424 77.6437 69.3274 78.645 67.8092 79.6787C63.3517 82.6827 60.7999 83.9101 57.1661 84.8145C54.3559 85.4928 52.757 85.622 46.6037 85.622C40.628 85.622 39.7074 85.509 37.8663 84.5884C36.4128 83.8455 33.6672 81.3906 32.0037 79.3234C30.2433 77.1269 29.4035 74.236 29.1935 69.6331C29.0805 67.1782 29.2743 66.3546 29.9849 66.2738C31.3577 66.1123 32.892 68.6802 33.7479 72.5886C34.1517 74.4459 35.2499 76.5455 36.2997 77.5145C37.4302 78.5481 38.4477 78.9035 40.192 78.9035C42.34 78.9035 43.3574 78.4835 51.901 74.0422C57.6021 71.0705 61.1552 70.0369 63.5455 70.6829C64.9183 71.0705 65.3705 71.0705 65.4351 70.7313C65.4997 70.3922 64.886 70.053 63.7232 69.8108C60.8161 69.197 57.4245 70.1984 50.7705 73.6384C43.2767 77.5145 42.4207 77.8698 40.4181 77.9829C39.1745 78.0636 38.9322 78.0313 38.1409 77.676C36.978 77.1431 36.1544 76.2709 35.4922 74.882C35.04 73.9614 34.2163 71.2643 34.3455 71.1512C34.3616 71.1351 34.9592 70.9251 35.6698 70.6829C41.1287 68.8579 45.99 64.3842 49.0747 58.3601C49.4946 57.5364 49.8984 56.8258 49.9791 56.7773C50.0599 56.7289 50.2537 56.7773 50.4152 56.8581C51.0451 57.1973 54.049 57.6818 56.9238 57.924C61.9305 58.3439 64.2884 58.8931 66.2103 60.0397C67.5024 60.815 68.1484 61.4771 68.6329 62.4785C68.9074 63.076 69.1174 63.3344 69.3435 63.3344C70.0057 63.3344 73.4619 62.3331 74.8024 61.7678C77.8871 60.4273 81.0526 58.4085 81.0526 57.7625C81.0526 57.1973 80.5681 57.3265 79.3406 58.2309C77.9678 59.2484 75.9652 60.3304 74.1079 61.0734C72.7836 61.6063 70.2641 62.3654 69.8119 62.3654C69.6665 62.3654 69.4243 62.0747 69.2628 61.7032C68.8751 60.8473 67.5024 59.636 66.2265 59.0061C63.9816 57.924 62.2212 57.5364 57.6344 57.1165C54.4851 56.8419 52.4501 56.5351 51.1097 56.1313C50.4152 55.9375 50.286 55.8406 50.3667 55.6145C51.7072 52.3198 52.9993 47.3132 53.5807 43.3079C54.8566 34.3121 52.6116 27.7711 47.8796 26.6729C45.6024 26.14 43.1313 27.2382 41.3709 29.58L40.9349 30.1453L40.7411 29.58C40.3535 28.5141 39.1422 26.2692 38.3347 25.1871C36.8811 23.2167 34.297 21.424 31.9391 20.778C30.5663 20.4065 27.0616 20.3096 25.8181 20.6165ZM41.0964 35.6041C41.2417 37.09 41.2417 38.1074 41.1125 39.4964C40.8541 42.1289 40.3212 43.001 39.6751 41.8059C39.2391 41.0145 39.2714 37.5745 39.7559 35.6849C39.9497 34.9096 40.2243 34.0052 40.3535 33.6661C40.7249 32.7778 40.8864 33.1815 41.0964 35.6041ZM16.58 63.3183C18.082 63.9804 21.0698 66.7422 23.1209 69.3747C24.6391 71.345 27.2232 73.9776 28.4183 74.8174C28.9028 75.1404 29.1128 75.4311 29.1935 75.8187C29.3389 76.6262 30.2917 78.4835 31.1477 79.6464C31.5838 80.2278 32.6497 81.4068 33.538 82.2789C34.4263 83.151 35.1207 83.8939 35.0723 83.9262C34.9592 84.0554 31.0347 83.3771 30.001 83.0541C27.8692 82.4081 27.8692 82.4081 20.7791 73.913C18.5504 71.2481 16.2409 68.5187 15.6433 67.8565C13.7537 65.757 13.0108 64.3681 13.3176 63.5444C13.576 62.8338 15.1911 62.7207 16.58 63.3183ZM7.98798 66.2577C8.9247 66.5645 11.4603 67.7273 15.1911 69.5523L16.5154 70.1984L20.0201 74.3975C21.942 76.707 24.1384 79.3072 24.8975 80.1793C25.6404 81.0515 26.2218 81.8105 26.1734 81.859C26.0119 82.0205 23.6378 80.6315 22.701 79.824C20.763 78.1767 15.8532 75.0758 10.4751 72.1364C10.0229 71.8942 9.05391 71.345 8.29483 70.9251C7.53576 70.5052 6.45368 69.9077 5.87227 69.5846C4.09572 68.5995 3.5143 67.8242 3.91806 66.9521C4.14417 66.4353 5.2747 65.9185 6.21143 65.9185C6.61519 65.9185 7.42271 66.0638 7.98798 66.2577ZM28.5798 72.6371C28.6767 73.2185 28.6928 73.7192 28.6282 73.7676C28.4829 73.8484 26.3833 71.9265 26.3833 71.7165C26.3833 71.6358 26.8517 71.5711 27.4008 71.5711H28.4344L28.5798 72.6371ZM10.5559 73.2346C11.7187 73.8484 17.1937 77.03 17.3229 77.1592C17.5652 77.3853 16.7415 77.3369 12.8816 76.9169C10.4913 76.6424 7.1643 76.3032 5.46851 76.1579C2.06076 75.8672 1.6893 75.7218 1.89926 74.8658C2.25457 73.4931 4.69329 72.5725 7.97183 72.5725C9.26386 72.5725 9.40921 72.6048 10.5559 73.2346Z" stroke="black" stroke-width="1.6" mask="url(#path-1-outside-1_193_1172)"/>
<path d="M98.8122 41.96H135.092V46.16H98.8122V41.96ZM108.172 30.44H129.772V34.16H108.172V30.44ZM108.172 36.16H129.772V39.88H108.172V36.16ZM100.572 55.96C105.292 55.44 112.492 54.36 119.132 53.4L119.332 57.64C113.172 58.64 106.532 59.64 101.652 60.4L100.572 55.96ZM118.652 43.12C121.212 50.12 126.812 54.68 135.852 56.36C134.812 57.36 133.452 59.36 132.812 60.68C123.012 58.36 117.492 52.96 114.252 44.2L118.652 43.12ZM130.012 45.64L133.852 48.36C130.932 50.48 127.292 52.6 124.492 53.92L121.292 51.44C124.052 50 127.772 47.56 130.012 45.64ZM105.532 24.4H130.892V28.36H110.452V43.72H105.532V24.4ZM105.492 43.2H110.452V56.52L105.492 57.04V43.2ZM152.052 24.56H156.572V50.12H152.052V24.56ZM154.612 24.56H164.852V48.28H154.612V44H160.452V28.76H154.612V24.56ZM154.492 34H162.772V38.16H154.492V34ZM166.052 24.44H183.692V28.64H166.052V24.44ZM182.172 24.44H186.732C186.732 24.44 186.692 25.48 186.652 26.04C186.332 31.56 185.972 34.08 185.052 35.08C184.292 35.92 183.372 36.24 182.252 36.36C181.252 36.48 179.492 36.52 177.652 36.44C177.572 35.24 177.132 33.64 176.492 32.6C177.972 32.72 179.332 32.76 179.972 32.76C180.532 32.76 180.852 32.68 181.172 32.4C181.692 31.84 181.932 29.92 182.172 25.04V24.44ZM172.172 25.72H176.852C176.292 31.76 174.692 35.8 167.172 38.04C166.732 36.96 165.612 35.32 164.652 34.52C170.812 32.92 171.772 30.08 172.172 25.72ZM171.732 41.52V45.8H180.732V41.52H171.732ZM167.252 37.68H185.492V49.64H167.252V37.68ZM161.892 52.04L166.332 51.48C166.852 54.16 167.332 57.6 167.372 59.72L162.652 60.48C162.652 58.32 162.332 54.76 161.892 52.04ZM170.372 51.96L174.892 51.12C175.892 53.72 176.892 57.12 177.252 59.32L172.452 60.32C172.172 58.2 171.292 54.64 170.372 51.96ZM178.652 51.92L183.012 50.24C184.652 52.84 186.772 56.36 187.692 58.6L183.052 60.6C182.252 58.36 180.252 54.64 178.652 51.92ZM155.212 50.56L159.852 51.84C158.532 54.88 156.572 58.44 154.932 60.8L150.292 58.8C151.892 56.84 153.932 53.48 155.212 50.56ZM219.052 25.04H235.292V29.48H219.052V25.04ZM217.692 38.96H239.772V43.48H217.692V38.96ZM226.132 34.28H230.972V55.28C230.972 57.68 230.492 58.96 228.932 59.72C227.332 60.44 225.132 60.6 222.172 60.56C221.932 59.24 221.132 57.16 220.492 55.88C222.532 55.96 224.612 56 225.292 55.96C225.932 55.92 226.132 55.76 226.132 55.2V34.28ZM233.572 25.04H234.732L235.732 24.8L238.852 27.16C236.492 30.64 233.092 34.88 229.972 37.52C229.332 36.68 228.012 35.36 227.252 34.72C229.612 32.44 232.372 28.48 233.572 26.08V25.04ZM202.452 31H215.372V35.44H202.452V31ZM207.812 23.04L212.332 23.52C210.812 32.04 208.492 42.76 206.612 49.96L202.692 47.88C204.412 41.56 206.572 31 207.812 23.04ZM204.772 47.2L207.412 43.84C211.572 46.44 216.852 50.32 219.172 53.32L216.292 57.2C214.052 54.16 208.972 49.96 204.772 47.2ZM213.732 31H214.492L215.332 30.88L218.172 31.36C217.252 46.96 213.372 55.8 205.452 60.72C204.812 59.56 203.532 57.84 202.572 56.92C209.372 53.36 212.932 44.52 213.732 31.88V31ZM260.212 24.56H290.932V28.92H260.212V24.56ZM257.372 24.56H262.052V36.88C262.052 43.68 261.532 53.92 258.172 60.48C257.252 59.76 255.132 58.6 253.972 58.2C257.132 52.08 257.372 43.16 257.372 36.84V24.56ZM263.772 31.76H289.452V35.6H263.772V31.76ZM262.812 38.24H290.652V42.08H262.812V38.24ZM268.692 29.6H273.332V40.68H268.692V29.6ZM279.332 29.6H284.092V40.68H279.332V29.6ZM265.852 43.88H287.452V60.44H282.652V47.8H270.452V60.6H265.852V43.88ZM268.492 49.88H284.132V53.48H268.492V49.88ZM268.492 55.68H284.132V59.4H268.492V55.68ZM315.532 41.24V53.92H310.892V45.64H306.452V41.24H315.532ZM315.532 51.56C317.172 54.2 320.212 55.36 324.452 55.52C329.212 55.76 338.492 55.64 343.932 55.2C343.372 56.28 342.652 58.44 342.452 59.8C337.572 60.04 329.252 60.12 324.452 59.92C319.452 59.72 316.092 58.56 313.532 55.44C311.892 57.04 310.172 58.56 308.132 60.28L305.852 55.56C307.612 54.44 309.612 53.04 311.372 51.56H315.532ZM307.972 26.2L311.172 23.32C313.372 24.6 316.092 26.6 317.372 28.08L313.972 31.24C312.812 29.72 310.172 27.6 307.972 26.2ZM306.532 34.32L309.652 31.36C311.892 32.56 314.732 34.44 316.092 35.96L312.812 39.2C311.572 37.76 308.812 35.64 306.532 34.32ZM327.492 35.68H331.892V38.64H327.492V35.68ZM324.572 29.84V31.04H335.252V29.84H324.572ZM324.572 32.88V34.12H335.252V32.88H324.572ZM324.572 26.8V28H335.252V26.8H324.572ZM320.132 24.88H339.932V36.04H320.132V24.88ZM327.812 23L332.732 23.36C332.012 24.68 331.212 25.72 330.612 26.48L326.972 25.92C327.332 24.88 327.692 23.8 327.812 23ZM317.172 37.24H342.932V41.44H338.652V39.52H321.332V41.44H317.172V37.24ZM327.572 42.44H331.932V45.56H327.572V42.44ZM317.092 44.76H343.092V47.32H317.092V44.76ZM325.172 48.44H336.172V50.92H325.172V48.44ZM335.092 48.44H339.052C339.052 48.44 339.012 49.28 338.892 49.72C338.492 52.36 337.972 53.68 337.132 54.36C336.372 54.96 335.452 55.12 334.412 55.16C333.492 55.24 331.732 55.24 329.852 55.08C329.812 54.36 329.452 53.24 329.052 52.52C330.612 52.68 332.092 52.72 332.732 52.68C333.332 52.68 333.612 52.68 333.932 52.44C334.372 52.04 334.732 51 335.092 48.84V48.44ZM324.932 46.08H328.892C328.212 50.72 326.332 53.52 319.452 55.16C319.092 54.24 318.132 52.72 317.332 52.04C323.052 51 324.412 49.16 324.932 46.08ZM324.772 39.16H328.012C327.372 42.4 325.452 44.04 319.812 45C319.532 44.24 318.732 43.04 318.132 42.48C322.772 41.96 324.252 41.12 324.772 39.16ZM330.252 38.32H333.692V40.36C333.692 41.12 333.732 41.16 334.332 41.16C334.572 41.16 335.652 41.16 335.972 41.16C336.452 41.16 336.652 41 336.732 39.92C337.332 40.32 338.612 40.68 339.492 40.88C339.212 43 338.372 43.64 336.452 43.64C335.892 43.64 334.332 43.64 333.772 43.64C330.852 43.64 330.252 42.92 330.252 40.36V38.32Z" fill="black"/>
<path d="M126.075 86.1V81.2484L122.075 74.8266H123.677L126.716 79.8344H126.841L129.88 74.8266H131.482L127.482 81.2484V86.1H126.075ZM137.819 86.2484C137.022 86.2484 136.332 86.074 135.749 85.725C135.171 85.3708 134.723 84.8682 134.405 84.2172C134.092 83.5662 133.936 82.7927 133.936 81.8969V81.8813C133.936 80.9802 134.092 80.2042 134.405 79.5531C134.723 78.9021 135.171 78.4021 135.749 78.0531C136.332 77.7042 137.022 77.5297 137.819 77.5297C138.621 77.5297 139.311 77.7042 139.889 78.0531C140.467 78.4021 140.913 78.9021 141.225 79.5531C141.543 80.2042 141.702 80.9802 141.702 81.8813V81.8969C141.702 82.7927 141.543 83.5662 141.225 84.2172C140.913 84.8682 140.467 85.3708 139.889 85.725C139.311 86.074 138.621 86.2484 137.819 86.2484ZM137.819 85.0453C138.35 85.0453 138.801 84.9203 139.171 84.6703C139.54 84.4203 139.822 84.0609 140.014 83.5922C140.212 83.1234 140.311 82.5583 140.311 81.8969V81.8813C140.311 81.2146 140.212 80.6469 140.014 80.1781C139.822 79.7094 139.54 79.3526 139.171 79.1078C138.801 78.8578 138.35 78.7328 137.819 78.7328C137.288 78.7328 136.837 78.8578 136.467 79.1078C136.098 79.3526 135.814 79.7094 135.616 80.1781C135.423 80.6469 135.327 81.2146 135.327 81.8813V81.8969C135.327 82.5583 135.423 83.1234 135.616 83.5922C135.814 84.0609 136.098 84.4203 136.467 84.6703C136.837 84.9203 137.288 85.0453 137.819 85.0453ZM149.032 86.2484C148.396 86.2484 147.862 86.1287 147.43 85.8891C146.998 85.6443 146.672 85.2901 146.453 84.8266C146.24 84.3578 146.133 83.7927 146.133 83.1313V77.6781H147.492V82.8031C147.492 83.5583 147.638 84.1208 147.93 84.4906C148.227 84.8604 148.711 85.0453 149.383 85.0453C149.753 85.0453 150.078 84.9906 150.36 84.8813C150.646 84.7719 150.886 84.6156 151.078 84.4125C151.271 84.2042 151.414 83.9542 151.508 83.6625C151.607 83.3656 151.657 83.0323 151.657 82.6625V77.6781H153.016V86.1H151.657V84.8422H151.532C151.396 85.1391 151.211 85.3943 150.977 85.6078C150.742 85.8162 150.461 85.975 150.133 86.0844C149.81 86.1938 149.443 86.2484 149.032 86.2484ZM157.955 86.1V77.6781H159.314V78.9281H159.439C159.601 78.4854 159.874 78.1417 160.26 77.8969C160.645 77.6521 161.122 77.5297 161.689 77.5297C161.82 77.5297 161.947 77.5375 162.072 77.5531C162.202 77.5635 162.301 77.574 162.369 77.5844V78.9047C162.228 78.8787 162.09 78.8604 161.955 78.85C161.825 78.8344 161.684 78.8266 161.533 78.8266C161.101 78.8266 160.718 78.9125 160.385 79.0844C160.051 79.2563 159.788 79.4958 159.596 79.8031C159.408 80.1104 159.314 80.4698 159.314 80.8813V86.1H157.955ZM174.224 86.1V84.8578H177.708C178.557 84.8578 179.2 84.6885 179.638 84.35C180.075 84.0115 180.294 83.5193 180.294 82.8734V82.8578C180.294 82.4255 180.192 82.0635 179.989 81.7719C179.786 81.4802 179.482 81.2615 179.075 81.1156C178.674 80.9698 178.174 80.8969 177.575 80.8969H174.224V79.6859H177.177C178.031 79.6859 178.672 79.5349 179.099 79.2328C179.531 78.9307 179.747 78.4828 179.747 77.8891V77.8734C179.747 77.3005 179.552 76.8578 179.161 76.5453C178.776 76.2276 178.234 76.0688 177.536 76.0688H174.224V74.8266H177.833C178.526 74.8266 179.12 74.9412 179.614 75.1703C180.114 75.3995 180.497 75.725 180.763 76.1469C181.034 76.5635 181.169 77.0583 181.169 77.6313V77.6469C181.169 78.0375 181.081 78.4047 180.903 78.7484C180.732 79.0922 180.5 79.3813 180.208 79.6156C179.916 79.85 179.588 80.001 179.224 80.0688V80.1938C179.739 80.2563 180.185 80.4099 180.56 80.6547C180.935 80.8995 181.224 81.2172 181.427 81.6078C181.635 81.9932 181.739 82.4333 181.739 82.9281V82.9438C181.739 83.6 181.586 84.1651 181.278 84.6391C180.976 85.1078 180.541 85.4698 179.974 85.725C179.406 85.975 178.721 86.1 177.919 86.1H174.224ZM173.521 86.1V74.8266H174.927V86.1H173.521ZM189.702 86.2484C188.9 86.2484 188.21 86.0714 187.632 85.7172C187.059 85.363 186.616 84.863 186.303 84.2172C185.996 83.5662 185.842 82.8005 185.842 81.9203V81.9125C185.842 81.0427 185.996 80.2797 186.303 79.6234C186.616 78.9672 187.056 78.4542 187.624 78.0844C188.191 77.7146 188.856 77.5297 189.616 77.5297C190.382 77.5297 191.038 77.7068 191.585 78.0609C192.137 78.4151 192.559 78.9099 192.85 79.5453C193.147 80.1755 193.296 80.9099 193.296 81.7484V82.2797H186.546V81.1938H192.6L191.928 82.1859V81.6469C191.928 80.9854 191.829 80.4412 191.632 80.0141C191.434 79.587 191.16 79.2693 190.811 79.0609C190.462 78.8474 190.061 78.7406 189.608 78.7406C189.155 78.7406 188.749 78.8526 188.389 79.0766C188.035 79.2953 187.754 79.6208 187.546 80.0531C187.337 80.4854 187.233 81.0167 187.233 81.6469V82.1859C187.233 82.7849 187.335 83.2979 187.538 83.725C187.741 84.1469 188.03 84.4724 188.405 84.7016C188.78 84.9255 189.223 85.0375 189.733 85.0375C190.113 85.0375 190.444 84.9854 190.725 84.8813C191.007 84.7771 191.238 84.6443 191.421 84.4828C191.603 84.3214 191.731 84.1573 191.803 83.9906L191.835 83.9203H193.194L193.178 83.9828C193.106 84.2693 192.975 84.5479 192.788 84.8188C192.606 85.0844 192.369 85.3266 192.077 85.5453C191.785 85.7589 191.439 85.9307 191.038 86.0609C190.642 86.1859 190.197 86.2484 189.702 86.2484ZM200.696 86.2484C200.071 86.2484 199.519 86.1547 199.039 85.9672C198.56 85.7745 198.175 85.5063 197.883 85.1625C197.597 84.8188 197.427 84.4151 197.375 83.9516H198.766C198.881 84.3005 199.104 84.5818 199.438 84.7953C199.771 85.0089 200.206 85.1156 200.742 85.1156C201.123 85.1156 201.456 85.0609 201.742 84.9516C202.034 84.837 202.263 84.6833 202.43 84.4906C202.597 84.2927 202.68 84.0662 202.68 83.8109V83.7953C202.68 83.5089 202.565 83.2667 202.336 83.0688C202.107 82.8656 201.732 82.7016 201.211 82.5766L199.907 82.2641C199.381 82.1391 198.948 81.9776 198.61 81.7797C198.271 81.5766 198.021 81.3292 197.86 81.0375C197.698 80.7406 197.617 80.3917 197.617 79.9906V79.9828C197.617 79.5141 197.753 79.0948 198.024 78.725C198.3 78.3552 198.675 78.0635 199.149 77.85C199.623 77.6365 200.157 77.5297 200.75 77.5297C201.339 77.5297 201.86 77.6234 202.313 77.8109C202.771 77.9932 203.138 78.2537 203.414 78.5922C203.696 78.9307 203.867 79.3292 203.93 79.7875H202.594C202.506 79.4542 202.302 79.1833 201.985 78.975C201.667 78.7667 201.253 78.6625 200.742 78.6625C200.409 78.6625 200.112 78.7172 199.852 78.8266C199.591 78.9307 199.386 79.0766 199.235 79.2641C199.084 79.4516 199.008 79.6703 199.008 79.9203V79.9359C199.008 80.1234 199.058 80.2901 199.157 80.4359C199.256 80.5818 199.409 80.7094 199.617 80.8188C199.826 80.9281 200.094 81.0245 200.422 81.1078L201.719 81.4203C202.511 81.613 203.099 81.8891 203.485 82.2484C203.875 82.6078 204.071 83.0896 204.071 83.6938V83.7094C204.071 84.2094 203.922 84.6521 203.625 85.0375C203.328 85.4177 202.925 85.7146 202.414 85.9281C201.909 86.1417 201.336 86.2484 200.696 86.2484ZM211.494 86.1625C210.629 86.1625 210.002 85.988 209.611 85.6391C209.226 85.2901 209.033 84.7146 209.033 83.9125V78.8031H207.705V77.6781H209.033V75.4984H210.439V77.6781H212.283V78.8031H210.439V83.5688C210.439 84.0635 210.533 84.4203 210.721 84.6391C210.908 84.8526 211.221 84.9594 211.658 84.9594C211.778 84.9594 211.879 84.9568 211.963 84.9516C212.051 84.9464 212.158 84.9385 212.283 84.9281V86.0844C212.153 86.1052 212.023 86.1234 211.892 86.1391C211.762 86.1547 211.629 86.1625 211.494 86.1625ZM223.786 86.1V74.8266H225.153L231.614 84.0922L230.677 83.6H231.396V74.8266H232.786V86.1H231.419L224.958 76.8656L225.896 77.3578H225.177V86.1H223.786ZM241.327 86.2484C240.525 86.2484 239.835 86.0714 239.257 85.7172C238.684 85.363 238.241 84.863 237.928 84.2172C237.621 83.5662 237.467 82.8005 237.467 81.9203V81.9125C237.467 81.0427 237.621 80.2797 237.928 79.6234C238.241 78.9672 238.681 78.4542 239.249 78.0844C239.816 77.7146 240.481 77.5297 241.241 77.5297C242.007 77.5297 242.663 77.7068 243.21 78.0609C243.762 78.4151 244.184 78.9099 244.475 79.5453C244.772 80.1755 244.921 80.9099 244.921 81.7484V82.2797H238.171V81.1938H244.225L243.553 82.1859V81.6469C243.553 80.9854 243.454 80.4412 243.257 80.0141C243.059 79.587 242.785 79.2693 242.436 79.0609C242.087 78.8474 241.686 78.7406 241.233 78.7406C240.78 78.7406 240.374 78.8526 240.014 79.0766C239.66 79.2953 239.379 79.6208 239.171 80.0531C238.962 80.4854 238.858 81.0167 238.858 81.6469V82.1859C238.858 82.7849 238.96 83.2979 239.163 83.725C239.366 84.1469 239.655 84.4724 240.03 84.7016C240.405 84.9255 240.848 85.0375 241.358 85.0375C241.738 85.0375 242.069 84.9854 242.35 84.8813C242.632 84.7771 242.863 84.6443 243.046 84.4828C243.228 84.3214 243.356 84.1573 243.428 83.9906L243.46 83.9203H244.819L244.803 83.9828C244.731 84.2693 244.6 84.5479 244.413 84.8188C244.231 85.0844 243.994 85.3266 243.702 85.5453C243.41 85.7589 243.064 85.9307 242.663 86.0609C242.267 86.1859 241.822 86.2484 241.327 86.2484ZM249.461 86.1V77.6781H250.821V86.1H249.461ZM250.149 76.0531C249.894 76.0531 249.672 75.962 249.485 75.7797C249.302 75.5922 249.211 75.3708 249.211 75.1156C249.211 74.8552 249.302 74.6339 249.485 74.4516C249.672 74.2693 249.894 74.1781 250.149 74.1781C250.409 74.1781 250.631 74.2693 250.813 74.4516C250.995 74.6339 251.086 74.8552 251.086 75.1156C251.086 75.3708 250.995 75.5922 250.813 75.7797C250.631 75.962 250.409 76.0531 250.149 76.0531ZM259.252 89.0688C258.575 89.0688 257.984 88.9724 257.478 88.7797C256.973 88.5922 256.57 88.324 256.267 87.975C255.971 87.6313 255.786 87.2302 255.713 86.7719L255.728 86.7641H257.135L257.142 86.7719C257.215 87.0896 257.434 87.35 257.799 87.5531C258.163 87.7615 258.648 87.8656 259.252 87.8656C260.007 87.8656 260.596 87.6938 261.017 87.35C261.445 87.0115 261.658 86.5323 261.658 85.9125V84.2094H261.533C261.356 84.5167 261.135 84.7797 260.869 84.9984C260.603 85.2172 260.304 85.3839 259.971 85.4984C259.637 85.6078 259.278 85.6625 258.892 85.6625C258.169 85.6625 257.541 85.4906 257.01 85.1469C256.484 84.7979 256.077 84.3188 255.791 83.7094C255.504 83.1 255.361 82.4021 255.361 81.6156V81.6C255.361 80.8135 255.504 80.1156 255.791 79.5063C256.083 78.8917 256.494 78.4099 257.025 78.0609C257.557 77.7068 258.189 77.5297 258.924 77.5297C259.32 77.5297 259.684 77.5922 260.017 77.7172C260.351 77.8422 260.645 78.0193 260.9 78.2484C261.161 78.4776 261.377 78.751 261.549 79.0688H261.642V77.6781H263.002V85.9828C263.002 86.6078 262.848 87.1521 262.541 87.6156C262.239 88.0792 261.807 88.4359 261.244 88.6859C260.682 88.9412 260.017 89.0688 259.252 89.0688ZM259.189 84.4594C259.71 84.4594 260.156 84.3396 260.525 84.1C260.9 83.8552 261.187 83.5193 261.385 83.0922C261.588 82.6651 261.689 82.1729 261.689 81.6156V81.6C261.689 81.0427 261.588 80.5479 261.385 80.1156C261.187 79.6833 260.9 79.3448 260.525 79.1C260.156 78.8552 259.71 78.7328 259.189 78.7328C258.669 78.7328 258.226 78.8552 257.861 79.1C257.502 79.3448 257.226 79.6833 257.033 80.1156C256.846 80.5479 256.752 81.0427 256.752 81.6V81.6156C256.752 82.1729 256.846 82.6651 257.033 83.0922C257.226 83.5193 257.502 83.8552 257.861 84.1C258.226 84.3396 258.669 84.4594 259.189 84.4594ZM268.011 86.1V74.3344H269.371V78.9438H269.496C269.709 78.4958 270.016 78.1495 270.417 77.9047C270.819 77.6547 271.329 77.5297 271.949 77.5297C272.579 77.5297 273.113 77.6521 273.55 77.8969C273.988 78.1365 274.321 78.488 274.55 78.9516C274.779 79.4151 274.894 79.9802 274.894 80.6469V86.1H273.535V80.975C273.535 80.2146 273.373 79.6521 273.05 79.2875C272.733 78.9177 272.238 78.7328 271.566 78.7328C271.118 78.7328 270.73 78.8292 270.402 79.0219C270.074 79.2146 269.819 79.488 269.636 79.8422C269.459 80.1964 269.371 80.6208 269.371 81.1156V86.1H268.011ZM283.942 86.2484C283.552 86.2484 283.19 86.1885 282.857 86.0688C282.523 85.949 282.226 85.7797 281.966 85.5609C281.705 85.337 281.489 85.0688 281.317 84.7563H281.192V86.1H279.833V74.3344H281.192V79.0063H281.317C281.474 78.7042 281.682 78.4438 281.942 78.225C282.208 78.0063 282.51 77.837 282.849 77.7172C283.192 77.5922 283.557 77.5297 283.942 77.5297C284.656 77.5297 285.276 77.7094 285.802 78.0688C286.333 78.4281 286.745 78.9333 287.036 79.5844C287.328 80.2354 287.474 81.001 287.474 81.8813V81.8969C287.474 82.7719 287.328 83.5375 287.036 84.1938C286.745 84.8448 286.333 85.35 285.802 85.7094C285.276 86.0688 284.656 86.2484 283.942 86.2484ZM283.63 85.0453C284.146 85.0453 284.586 84.9203 284.95 84.6703C285.315 84.4151 285.594 84.0531 285.786 83.5844C285.984 83.1104 286.083 82.5479 286.083 81.8969V81.8813C286.083 81.225 285.984 80.6625 285.786 80.1938C285.594 79.725 285.315 79.3656 284.95 79.1156C284.586 78.8604 284.146 78.7328 283.63 78.7328C283.12 78.7328 282.679 78.8604 282.31 79.1156C281.94 79.3708 281.656 79.7328 281.458 80.2016C281.26 80.6703 281.161 81.2302 281.161 81.8813V81.8969C281.161 82.5427 281.26 83.1026 281.458 83.5766C281.656 84.0453 281.94 84.4073 282.31 84.6625C282.679 84.9177 283.12 85.0453 283.63 85.0453ZM295.444 86.2484C294.647 86.2484 293.957 86.074 293.374 85.725C292.796 85.3708 292.348 84.8682 292.03 84.2172C291.717 83.5662 291.561 82.7927 291.561 81.8969V81.8813C291.561 80.9802 291.717 80.2042 292.03 79.5531C292.348 78.9021 292.796 78.4021 293.374 78.0531C293.957 77.7042 294.647 77.5297 295.444 77.5297C296.246 77.5297 296.936 77.7042 297.514 78.0531C298.092 78.4021 298.538 78.9021 298.85 79.5531C299.168 80.2042 299.327 80.9802 299.327 81.8813V81.8969C299.327 82.7927 299.168 83.5662 298.85 84.2172C298.538 84.8682 298.092 85.3708 297.514 85.725C296.936 86.074 296.246 86.2484 295.444 86.2484ZM295.444 85.0453C295.975 85.0453 296.426 84.9203 296.796 84.6703C297.165 84.4203 297.447 84.0609 297.639 83.5922C297.837 83.1234 297.936 82.5583 297.936 81.8969V81.8813C297.936 81.2146 297.837 80.6469 297.639 80.1781C297.447 79.7094 297.165 79.3526 296.796 79.1078C296.426 78.8578 295.975 78.7328 295.444 78.7328C294.913 78.7328 294.462 78.8578 294.092 79.1078C293.723 79.3526 293.439 79.7094 293.241 80.1781C293.048 80.6469 292.952 81.2146 292.952 81.8813V81.8969C292.952 82.5583 293.048 83.1234 293.241 83.5922C293.439 84.0609 293.723 84.4203 294.092 84.6703C294.462 84.9203 294.913 85.0453 295.444 85.0453ZM306.657 86.2484C306.021 86.2484 305.487 86.1287 305.055 85.8891C304.623 85.6443 304.297 85.2901 304.078 84.8266C303.865 84.3578 303.758 83.7927 303.758 83.1313V77.6781H305.117V82.8031C305.117 83.5583 305.263 84.1208 305.555 84.4906C305.852 84.8604 306.336 85.0453 307.008 85.0453C307.378 85.0453 307.703 84.9906 307.985 84.8813C308.271 84.7719 308.511 84.6156 308.703 84.4125C308.896 84.2042 309.039 83.9542 309.133 83.6625C309.232 83.3656 309.282 83.0323 309.282 82.6625V77.6781H310.641V86.1H309.282V84.8422H309.157C309.021 85.1391 308.836 85.3943 308.602 85.6078C308.367 85.8162 308.086 85.975 307.758 86.0844C307.435 86.1938 307.068 86.2484 306.657 86.2484ZM315.58 86.1V77.6781H316.939V78.9281H317.064C317.226 78.4854 317.499 78.1417 317.885 77.8969C318.27 77.6521 318.747 77.5297 319.314 77.5297C319.445 77.5297 319.572 77.5375 319.697 77.5531C319.827 77.5635 319.926 77.574 319.994 77.5844V78.9047C319.853 78.8787 319.715 78.8604 319.58 78.85C319.45 78.8344 319.309 78.8266 319.158 78.8266C318.726 78.8266 318.343 78.9125 318.01 79.0844C317.676 79.2563 317.413 79.4958 317.221 79.8031C317.033 80.1104 316.939 80.4698 316.939 80.8813V86.1H315.58Z" fill="black"/>
</svg>
