<svg width="361" height="108" viewBox="0 0 361 108" fill="none" xmlns="http://www.w3.org/2000/svg">
<mask id="path-1-outside-1_193_1222" maskUnits="userSpaceOnUse" x="0" y="20.0722" width="87" height="68" fill="black">
<rect fill="white" y="20.0722" width="87" height="68"/>
<path d="M25.8181 21.1225C25.2851 21.2678 24.526 21.4939 24.1223 21.6393C17.8397 23.9811 15.2395 31.5234 18.0013 39.4209C19.374 43.3455 21.9904 47.0439 27.1263 52.3736C35.153 60.6911 36.3966 62.403 36.4612 65.2455C36.4935 66.5375 36.6873 66.9413 37.1395 66.5698C37.3656 66.3922 37.3979 66.1338 37.3333 64.9709C37.1557 61.8539 36.1059 60.4327 27.207 51.1623C21.4413 45.1705 18.8895 40.9714 18.0497 36.1747C17.7267 34.3658 17.8236 30.9904 18.2274 29.5207C18.6473 27.9864 19.6809 26.0322 20.6176 25.047C24.5906 20.7833 31.9229 20.6218 36.2351 24.7079C37.8663 26.226 39.4329 28.8585 40.1112 31.1519C40.2889 31.7495 40.2727 31.9271 39.9013 32.8477C39.2229 34.5435 38.69 36.5784 38.48 38.2904C38.1409 40.9229 38.6415 43.1517 39.659 43.5877C40.4504 43.9269 40.9833 43.6362 41.5163 42.5541C41.9685 41.6335 41.9685 41.6174 41.9685 38.3227C41.9685 35.7225 41.9039 34.6727 41.6617 33.4291C41.3548 31.8625 41.3548 31.8464 41.6617 31.2973C41.8393 30.9904 42.3238 30.3444 42.7437 29.8599C44.7302 27.5665 47.7827 27.3242 50.0114 29.2785C50.7382 29.9083 51.7718 31.6041 52.2079 32.8638C52.9993 35.1734 53.2415 39.2756 52.8055 42.8448C52.3048 46.9147 50.9482 52.3574 49.6884 55.3937C49.43 56.0236 49.3493 56.0397 48.461 55.5875C46.8944 54.7962 45.1017 53.4234 43.5028 51.8083C41.5486 49.8057 40.8057 49.3211 39.5621 49.1919C38.803 49.1112 38.5769 49.1596 37.9309 49.5473C36.7035 50.2579 36.219 51.8083 36.5581 53.9079C37.0103 56.7181 38.6415 59.2537 41.4517 61.5632C42.8083 62.6453 43.2767 62.936 43.5997 62.8068C44.0681 62.6291 43.7935 62.2415 42.4207 61.1271C39.1583 58.5269 37.5917 56.0559 37.4141 53.2457C37.2687 51.1138 37.8501 50.1448 39.2552 50.0802C40.2566 50.0479 41.1771 50.6616 43.099 52.632C44.9079 54.4893 46.9105 55.9913 48.2995 56.5081C48.6871 56.6535 48.9939 56.8473 48.9939 56.9442C48.9939 57.251 47.3466 60.1904 46.3937 61.5793C43.519 65.7785 39.5298 68.9924 35.5891 70.2844C34.394 70.672 33.974 70.7043 33.974 70.3975C33.974 69.8968 32.6174 67.5227 31.9552 66.8605C30.7763 65.6654 29.355 65.5685 28.7251 66.6183C28.4667 67.0382 28.386 67.555 28.3214 69.17L28.2406 71.1888H26.8032H25.3497L23.6539 69.17C19.697 64.4703 17.1776 62.5484 14.9165 62.5484C11.9771 62.5484 11.5411 65.0355 13.9959 67.8134C14.3513 68.2172 14.5935 68.5725 14.5451 68.6209C14.5128 68.6694 13.3176 68.1526 11.9125 67.5065C8.52094 65.9077 7.48731 65.5685 6.19528 65.5685C4.56408 65.5685 3.12669 66.4406 2.88444 67.5873C2.62603 68.7501 3.53045 69.8322 5.79152 71.0758C6.58289 71.5119 7.26121 71.9641 7.29351 72.061C7.32581 72.174 7.0997 72.2386 6.64749 72.2386C5.12935 72.2548 2.91674 72.9492 1.99616 73.7245C0.978684 74.5804 0.671825 76.0663 1.3986 76.7123C1.99616 77.2614 2.41607 77.4068 3.40125 77.4068C4.67714 77.4068 8.58554 77.7782 14.5774 78.4727C20.0685 79.1026 19.7617 79.0057 21.8612 80.7984C23.6378 82.3165 25.1559 83.1079 27.3524 83.6893C28.0145 83.8669 28.9836 84.1577 29.5004 84.3353C30.7763 84.7875 32.6659 85.1267 34.8946 85.3205C36.332 85.4497 36.9134 85.5789 37.5594 85.9019C39.6428 86.9517 41.7101 87.1778 48.2672 87.0324C52.8216 86.9355 55.4541 86.7094 57.1338 86.2734C60.7999 85.3366 63.917 83.8508 68.1322 81.0245C69.8119 79.9101 71.5077 78.8442 71.9276 78.6665C72.7351 78.3112 74.334 77.9236 75.5614 77.7621C76.9827 77.5683 82.1347 77.649 83.9274 77.8751C85.2517 78.0528 85.7201 78.0528 85.8654 77.9074C86.253 77.5198 85.5909 77.213 83.782 77.003C78.7431 76.3893 74.124 76.7446 71.4269 77.9397C70.9424 78.1497 69.3274 79.151 67.8092 80.1846C63.3517 83.1886 60.7999 84.4161 57.1661 85.3205C54.3559 85.9988 52.757 86.128 46.6037 86.128C40.628 86.128 39.7074 86.015 37.8663 85.0944C36.4128 84.3515 33.6672 81.8966 32.0037 79.8293C30.2433 77.6329 29.4035 74.7419 29.1935 70.1391C29.0805 67.6842 29.2743 66.8605 29.9849 66.7798C31.3577 66.6183 32.892 69.1862 33.7479 73.0946C34.1517 74.9519 35.2499 77.0515 36.2997 78.0205C37.4302 79.0541 38.4477 79.4094 40.192 79.4094C42.34 79.4094 43.3574 78.9895 51.901 74.5481C57.6021 71.5765 61.1552 70.5428 63.5455 71.1888C64.9183 71.5765 65.3705 71.5765 65.4351 71.2373C65.4997 70.8981 64.886 70.559 63.7232 70.3167C60.8161 69.703 57.4245 70.7043 50.7705 74.1444C43.2767 78.0205 42.4207 78.3758 40.4181 78.4888C39.1745 78.5696 38.9322 78.5373 38.1409 78.182C36.978 77.649 36.1544 76.7769 35.4922 75.388C35.04 74.4674 34.2163 71.7703 34.3455 71.6572C34.3616 71.6411 34.9592 71.4311 35.6698 71.1888C41.1287 69.3638 45.99 64.8902 49.0747 58.8661C49.4946 58.0424 49.8984 57.3318 49.9791 57.2833C50.0599 57.2349 50.2537 57.2833 50.4152 57.3641C51.0451 57.7032 54.049 58.1877 56.9238 58.43C61.9305 58.8499 64.2884 59.399 66.2103 60.5457C67.5024 61.3209 68.1484 61.9831 68.6329 62.9844C68.9074 63.582 69.1174 63.8404 69.3435 63.8404C70.0057 63.8404 73.4619 62.8391 74.8024 62.2738C77.8871 60.9333 81.0526 58.9145 81.0526 58.2685C81.0526 57.7032 80.5681 57.8324 79.3406 58.7369C77.9678 59.7543 75.9652 60.8364 74.1079 61.5793C72.7836 62.1123 70.2641 62.8714 69.8119 62.8714C69.6665 62.8714 69.4243 62.5807 69.2628 62.2092C68.8751 61.3532 67.5024 60.1419 66.2265 59.5121C63.9816 58.43 62.2212 58.0424 57.6344 57.6225C54.4851 57.3479 52.4501 57.0411 51.1097 56.6373C50.4152 56.4435 50.286 56.3466 50.3667 56.1205C51.7072 52.8258 52.9993 47.8192 53.5807 43.8138C54.8566 34.8181 52.6116 28.2771 47.8796 27.1789C45.6024 26.6459 43.1313 27.7442 41.3709 30.086L40.9349 30.6512L40.7411 30.086C40.3535 29.02 39.1422 26.7751 38.3347 25.6931C36.8811 23.7227 34.297 21.93 31.9391 21.284C30.5663 20.9125 27.0616 20.8156 25.8181 21.1225ZM41.0964 36.1101C41.2417 37.5959 41.2417 38.6134 41.1125 40.0023C40.8541 42.6349 40.3212 43.507 39.6751 42.3119C39.2391 41.5205 39.2714 38.0804 39.7559 36.1908C39.9497 35.4156 40.2243 34.5112 40.3535 34.172C40.7249 33.2838 40.8864 33.6875 41.0964 36.1101ZM16.58 63.8242C18.082 64.4864 21.0698 67.2481 23.1209 69.8807C24.6391 71.851 27.2232 74.4835 28.4183 75.3234C28.9028 75.6464 29.1128 75.9371 29.1935 76.3247C29.3389 77.1322 30.2917 78.9895 31.1477 80.1523C31.5838 80.7338 32.6497 81.9127 33.538 82.7849C34.4263 83.657 35.1207 84.3999 35.0723 84.4322C34.9592 84.5614 31.0347 83.8831 30.001 83.5601C27.8692 82.9141 27.8692 82.9141 20.7791 74.4189C18.5504 71.7541 16.2409 69.0247 15.6433 68.3625C13.7537 66.263 13.0108 64.874 13.3176 64.0504C13.576 63.3397 15.1911 63.2267 16.58 63.8242ZM7.98798 66.7636C8.9247 67.0705 11.4603 68.2333 15.1911 70.0583L16.5154 70.7043L20.0201 74.9035C21.942 77.213 24.1384 79.8132 24.8975 80.6853C25.6404 81.5574 26.2218 82.3165 26.1734 82.365C26.0119 82.5265 23.6378 81.1375 22.701 80.33C20.763 78.6827 15.8532 75.5818 10.4751 72.6424C10.0229 72.4001 9.05391 71.851 8.29483 71.4311C7.53576 71.0112 6.45368 70.4136 5.87227 70.0906C4.09572 69.1054 3.5143 68.3302 3.91806 67.4581C4.14417 66.9413 5.2747 66.4245 6.21143 66.4245C6.61519 66.4245 7.42271 66.5698 7.98798 66.7636ZM28.5798 73.1431C28.6767 73.7245 28.6928 74.2251 28.6282 74.2736C28.4829 74.3543 26.3833 72.4324 26.3833 72.2225C26.3833 72.1417 26.8517 72.0771 27.4008 72.0771H28.4344L28.5798 73.1431ZM10.5559 73.7406C11.7187 74.3543 17.1937 77.536 17.3229 77.6652C17.5652 77.8913 16.7415 77.8428 12.8816 77.4229C10.4913 77.1484 7.1643 76.8092 5.46851 76.6638C2.06076 76.3731 1.6893 76.2278 1.89926 75.3718C2.25457 73.999 4.69329 73.0785 7.97183 73.0785C9.26386 73.0785 9.40921 73.1108 10.5559 73.7406Z"/>
</mask>
<path d="M25.8181 21.1225C25.2851 21.2678 24.526 21.4939 24.1223 21.6393C17.8397 23.9811 15.2395 31.5234 18.0013 39.4209C19.374 43.3455 21.9904 47.0439 27.1263 52.3736C35.153 60.6911 36.3966 62.403 36.4612 65.2455C36.4935 66.5375 36.6873 66.9413 37.1395 66.5698C37.3656 66.3922 37.3979 66.1338 37.3333 64.9709C37.1557 61.8539 36.1059 60.4327 27.207 51.1623C21.4413 45.1705 18.8895 40.9714 18.0497 36.1747C17.7267 34.3658 17.8236 30.9904 18.2274 29.5207C18.6473 27.9864 19.6809 26.0322 20.6176 25.047C24.5906 20.7833 31.9229 20.6218 36.2351 24.7079C37.8663 26.226 39.4329 28.8585 40.1112 31.1519C40.2889 31.7495 40.2727 31.9271 39.9013 32.8477C39.2229 34.5435 38.69 36.5784 38.48 38.2904C38.1409 40.9229 38.6415 43.1517 39.659 43.5877C40.4504 43.9269 40.9833 43.6362 41.5163 42.5541C41.9685 41.6335 41.9685 41.6174 41.9685 38.3227C41.9685 35.7225 41.9039 34.6727 41.6617 33.4291C41.3548 31.8625 41.3548 31.8464 41.6617 31.2973C41.8393 30.9904 42.3238 30.3444 42.7437 29.8599C44.7302 27.5665 47.7827 27.3242 50.0114 29.2785C50.7382 29.9083 51.7718 31.6041 52.2079 32.8638C52.9993 35.1734 53.2415 39.2756 52.8055 42.8448C52.3048 46.9147 50.9482 52.3574 49.6884 55.3937C49.43 56.0236 49.3493 56.0397 48.461 55.5875C46.8944 54.7962 45.1017 53.4234 43.5028 51.8083C41.5486 49.8057 40.8057 49.3211 39.5621 49.1919C38.803 49.1112 38.5769 49.1596 37.9309 49.5473C36.7035 50.2579 36.219 51.8083 36.5581 53.9079C37.0103 56.7181 38.6415 59.2537 41.4517 61.5632C42.8083 62.6453 43.2767 62.936 43.5997 62.8068C44.0681 62.6291 43.7935 62.2415 42.4207 61.1271C39.1583 58.5269 37.5917 56.0559 37.4141 53.2457C37.2687 51.1138 37.8501 50.1448 39.2552 50.0802C40.2566 50.0479 41.1771 50.6616 43.099 52.632C44.9079 54.4893 46.9105 55.9913 48.2995 56.5081C48.6871 56.6535 48.9939 56.8473 48.9939 56.9442C48.9939 57.251 47.3466 60.1904 46.3937 61.5793C43.519 65.7785 39.5298 68.9924 35.5891 70.2844C34.394 70.672 33.974 70.7043 33.974 70.3975C33.974 69.8968 32.6174 67.5227 31.9552 66.8605C30.7763 65.6654 29.355 65.5685 28.7251 66.6183C28.4667 67.0382 28.386 67.555 28.3214 69.17L28.2406 71.1888H26.8032H25.3497L23.6539 69.17C19.697 64.4703 17.1776 62.5484 14.9165 62.5484C11.9771 62.5484 11.5411 65.0355 13.9959 67.8134C14.3513 68.2172 14.5935 68.5725 14.5451 68.6209C14.5128 68.6694 13.3176 68.1526 11.9125 67.5065C8.52094 65.9077 7.48731 65.5685 6.19528 65.5685C4.56408 65.5685 3.12669 66.4406 2.88444 67.5873C2.62603 68.7501 3.53045 69.8322 5.79152 71.0758C6.58289 71.5119 7.26121 71.9641 7.29351 72.061C7.32581 72.174 7.0997 72.2386 6.64749 72.2386C5.12935 72.2548 2.91674 72.9492 1.99616 73.7245C0.978684 74.5804 0.671825 76.0663 1.3986 76.7123C1.99616 77.2614 2.41607 77.4068 3.40125 77.4068C4.67714 77.4068 8.58554 77.7782 14.5774 78.4727C20.0685 79.1026 19.7617 79.0057 21.8612 80.7984C23.6378 82.3165 25.1559 83.1079 27.3524 83.6893C28.0145 83.8669 28.9836 84.1577 29.5004 84.3353C30.7763 84.7875 32.6659 85.1267 34.8946 85.3205C36.332 85.4497 36.9134 85.5789 37.5594 85.9019C39.6428 86.9517 41.7101 87.1778 48.2672 87.0324C52.8216 86.9355 55.4541 86.7094 57.1338 86.2734C60.7999 85.3366 63.917 83.8508 68.1322 81.0245C69.8119 79.9101 71.5077 78.8442 71.9276 78.6665C72.7351 78.3112 74.334 77.9236 75.5614 77.7621C76.9827 77.5683 82.1347 77.649 83.9274 77.8751C85.2517 78.0528 85.7201 78.0528 85.8654 77.9074C86.253 77.5198 85.5909 77.213 83.782 77.003C78.7431 76.3893 74.124 76.7446 71.4269 77.9397C70.9424 78.1497 69.3274 79.151 67.8092 80.1846C63.3517 83.1886 60.7999 84.4161 57.1661 85.3205C54.3559 85.9988 52.757 86.128 46.6037 86.128C40.628 86.128 39.7074 86.015 37.8663 85.0944C36.4128 84.3515 33.6672 81.8966 32.0037 79.8293C30.2433 77.6329 29.4035 74.7419 29.1935 70.1391C29.0805 67.6842 29.2743 66.8605 29.9849 66.7798C31.3577 66.6183 32.892 69.1862 33.7479 73.0946C34.1517 74.9519 35.2499 77.0515 36.2997 78.0205C37.4302 79.0541 38.4477 79.4094 40.192 79.4094C42.34 79.4094 43.3574 78.9895 51.901 74.5481C57.6021 71.5765 61.1552 70.5428 63.5455 71.1888C64.9183 71.5765 65.3705 71.5765 65.4351 71.2373C65.4997 70.8981 64.886 70.559 63.7232 70.3167C60.8161 69.703 57.4245 70.7043 50.7705 74.1444C43.2767 78.0205 42.4207 78.3758 40.4181 78.4888C39.1745 78.5696 38.9322 78.5373 38.1409 78.182C36.978 77.649 36.1544 76.7769 35.4922 75.388C35.04 74.4674 34.2163 71.7703 34.3455 71.6572C34.3616 71.6411 34.9592 71.4311 35.6698 71.1888C41.1287 69.3638 45.99 64.8902 49.0747 58.8661C49.4946 58.0424 49.8984 57.3318 49.9791 57.2833C50.0599 57.2349 50.2537 57.2833 50.4152 57.3641C51.0451 57.7032 54.049 58.1877 56.9238 58.43C61.9305 58.8499 64.2884 59.399 66.2103 60.5457C67.5024 61.3209 68.1484 61.9831 68.6329 62.9844C68.9074 63.582 69.1174 63.8404 69.3435 63.8404C70.0057 63.8404 73.4619 62.8391 74.8024 62.2738C77.8871 60.9333 81.0526 58.9145 81.0526 58.2685C81.0526 57.7032 80.5681 57.8324 79.3406 58.7369C77.9678 59.7543 75.9652 60.8364 74.1079 61.5793C72.7836 62.1123 70.2641 62.8714 69.8119 62.8714C69.6665 62.8714 69.4243 62.5807 69.2628 62.2092C68.8751 61.3532 67.5024 60.1419 66.2265 59.5121C63.9816 58.43 62.2212 58.0424 57.6344 57.6225C54.4851 57.3479 52.4501 57.0411 51.1097 56.6373C50.4152 56.4435 50.286 56.3466 50.3667 56.1205C51.7072 52.8258 52.9993 47.8192 53.5807 43.8138C54.8566 34.8181 52.6116 28.2771 47.8796 27.1789C45.6024 26.6459 43.1313 27.7442 41.3709 30.086L40.9349 30.6512L40.7411 30.086C40.3535 29.02 39.1422 26.7751 38.3347 25.6931C36.8811 23.7227 34.297 21.93 31.9391 21.284C30.5663 20.9125 27.0616 20.8156 25.8181 21.1225ZM41.0964 36.1101C41.2417 37.5959 41.2417 38.6134 41.1125 40.0023C40.8541 42.6349 40.3212 43.507 39.6751 42.3119C39.2391 41.5205 39.2714 38.0804 39.7559 36.1908C39.9497 35.4156 40.2243 34.5112 40.3535 34.172C40.7249 33.2838 40.8864 33.6875 41.0964 36.1101ZM16.58 63.8242C18.082 64.4864 21.0698 67.2481 23.1209 69.8807C24.6391 71.851 27.2232 74.4835 28.4183 75.3234C28.9028 75.6464 29.1128 75.9371 29.1935 76.3247C29.3389 77.1322 30.2917 78.9895 31.1477 80.1523C31.5838 80.7338 32.6497 81.9127 33.538 82.7849C34.4263 83.657 35.1207 84.3999 35.0723 84.4322C34.9592 84.5614 31.0347 83.8831 30.001 83.5601C27.8692 82.9141 27.8692 82.9141 20.7791 74.4189C18.5504 71.7541 16.2409 69.0247 15.6433 68.3625C13.7537 66.263 13.0108 64.874 13.3176 64.0504C13.576 63.3397 15.1911 63.2267 16.58 63.8242ZM7.98798 66.7636C8.9247 67.0705 11.4603 68.2333 15.1911 70.0583L16.5154 70.7043L20.0201 74.9035C21.942 77.213 24.1384 79.8132 24.8975 80.6853C25.6404 81.5574 26.2218 82.3165 26.1734 82.365C26.0119 82.5265 23.6378 81.1375 22.701 80.33C20.763 78.6827 15.8532 75.5818 10.4751 72.6424C10.0229 72.4001 9.05391 71.851 8.29483 71.4311C7.53576 71.0112 6.45368 70.4136 5.87227 70.0906C4.09572 69.1054 3.5143 68.3302 3.91806 67.4581C4.14417 66.9413 5.2747 66.4245 6.21143 66.4245C6.61519 66.4245 7.42271 66.5698 7.98798 66.7636ZM28.5798 73.1431C28.6767 73.7245 28.6928 74.2251 28.6282 74.2736C28.4829 74.3543 26.3833 72.4324 26.3833 72.2225C26.3833 72.1417 26.8517 72.0771 27.4008 72.0771H28.4344L28.5798 73.1431ZM10.5559 73.7406C11.7187 74.3543 17.1937 77.536 17.3229 77.6652C17.5652 77.8913 16.7415 77.8428 12.8816 77.4229C10.4913 77.1484 7.1643 76.8092 5.46851 76.6638C2.06076 76.3731 1.6893 76.2278 1.89926 75.3718C2.25457 73.999 4.69329 73.0785 7.97183 73.0785C9.26386 73.0785 9.40921 73.1108 10.5559 73.7406Z" fill="white"/>
<path d="M25.8181 21.1225C25.2851 21.2678 24.526 21.4939 24.1223 21.6393C17.8397 23.9811 15.2395 31.5234 18.0013 39.4209C19.374 43.3455 21.9904 47.0439 27.1263 52.3736C35.153 60.6911 36.3966 62.403 36.4612 65.2455C36.4935 66.5375 36.6873 66.9413 37.1395 66.5698C37.3656 66.3922 37.3979 66.1338 37.3333 64.9709C37.1557 61.8539 36.1059 60.4327 27.207 51.1623C21.4413 45.1705 18.8895 40.9714 18.0497 36.1747C17.7267 34.3658 17.8236 30.9904 18.2274 29.5207C18.6473 27.9864 19.6809 26.0322 20.6176 25.047C24.5906 20.7833 31.9229 20.6218 36.2351 24.7079C37.8663 26.226 39.4329 28.8585 40.1112 31.1519C40.2889 31.7495 40.2727 31.9271 39.9013 32.8477C39.2229 34.5435 38.69 36.5784 38.48 38.2904C38.1409 40.9229 38.6415 43.1517 39.659 43.5877C40.4504 43.9269 40.9833 43.6362 41.5163 42.5541C41.9685 41.6335 41.9685 41.6174 41.9685 38.3227C41.9685 35.7225 41.9039 34.6727 41.6617 33.4291C41.3548 31.8625 41.3548 31.8464 41.6617 31.2973C41.8393 30.9904 42.3238 30.3444 42.7437 29.8599C44.7302 27.5665 47.7827 27.3242 50.0114 29.2785C50.7382 29.9083 51.7718 31.6041 52.2079 32.8638C52.9993 35.1734 53.2415 39.2756 52.8055 42.8448C52.3048 46.9147 50.9482 52.3574 49.6884 55.3937C49.43 56.0236 49.3493 56.0397 48.461 55.5875C46.8944 54.7962 45.1017 53.4234 43.5028 51.8083C41.5486 49.8057 40.8057 49.3211 39.5621 49.1919C38.803 49.1112 38.5769 49.1596 37.9309 49.5473C36.7035 50.2579 36.219 51.8083 36.5581 53.9079C37.0103 56.7181 38.6415 59.2537 41.4517 61.5632C42.8083 62.6453 43.2767 62.936 43.5997 62.8068C44.0681 62.6291 43.7935 62.2415 42.4207 61.1271C39.1583 58.5269 37.5917 56.0559 37.4141 53.2457C37.2687 51.1138 37.8501 50.1448 39.2552 50.0802C40.2566 50.0479 41.1771 50.6616 43.099 52.632C44.9079 54.4893 46.9105 55.9913 48.2995 56.5081C48.6871 56.6535 48.9939 56.8473 48.9939 56.9442C48.9939 57.251 47.3466 60.1904 46.3937 61.5793C43.519 65.7785 39.5298 68.9924 35.5891 70.2844C34.394 70.672 33.974 70.7043 33.974 70.3975C33.974 69.8968 32.6174 67.5227 31.9552 66.8605C30.7763 65.6654 29.355 65.5685 28.7251 66.6183C28.4667 67.0382 28.386 67.555 28.3214 69.17L28.2406 71.1888H26.8032H25.3497L23.6539 69.17C19.697 64.4703 17.1776 62.5484 14.9165 62.5484C11.9771 62.5484 11.5411 65.0355 13.9959 67.8134C14.3513 68.2172 14.5935 68.5725 14.5451 68.6209C14.5128 68.6694 13.3176 68.1526 11.9125 67.5065C8.52094 65.9077 7.48731 65.5685 6.19528 65.5685C4.56408 65.5685 3.12669 66.4406 2.88444 67.5873C2.62603 68.7501 3.53045 69.8322 5.79152 71.0758C6.58289 71.5119 7.26121 71.9641 7.29351 72.061C7.32581 72.174 7.0997 72.2386 6.64749 72.2386C5.12935 72.2548 2.91674 72.9492 1.99616 73.7245C0.978684 74.5804 0.671825 76.0663 1.3986 76.7123C1.99616 77.2614 2.41607 77.4068 3.40125 77.4068C4.67714 77.4068 8.58554 77.7782 14.5774 78.4727C20.0685 79.1026 19.7617 79.0057 21.8612 80.7984C23.6378 82.3165 25.1559 83.1079 27.3524 83.6893C28.0145 83.8669 28.9836 84.1577 29.5004 84.3353C30.7763 84.7875 32.6659 85.1267 34.8946 85.3205C36.332 85.4497 36.9134 85.5789 37.5594 85.9019C39.6428 86.9517 41.7101 87.1778 48.2672 87.0324C52.8216 86.9355 55.4541 86.7094 57.1338 86.2734C60.7999 85.3366 63.917 83.8508 68.1322 81.0245C69.8119 79.9101 71.5077 78.8442 71.9276 78.6665C72.7351 78.3112 74.334 77.9236 75.5614 77.7621C76.9827 77.5683 82.1347 77.649 83.9274 77.8751C85.2517 78.0528 85.7201 78.0528 85.8654 77.9074C86.253 77.5198 85.5909 77.213 83.782 77.003C78.7431 76.3893 74.124 76.7446 71.4269 77.9397C70.9424 78.1497 69.3274 79.151 67.8092 80.1846C63.3517 83.1886 60.7999 84.4161 57.1661 85.3205C54.3559 85.9988 52.757 86.128 46.6037 86.128C40.628 86.128 39.7074 86.015 37.8663 85.0944C36.4128 84.3515 33.6672 81.8966 32.0037 79.8293C30.2433 77.6329 29.4035 74.7419 29.1935 70.1391C29.0805 67.6842 29.2743 66.8605 29.9849 66.7798C31.3577 66.6183 32.892 69.1862 33.7479 73.0946C34.1517 74.9519 35.2499 77.0515 36.2997 78.0205C37.4302 79.0541 38.4477 79.4094 40.192 79.4094C42.34 79.4094 43.3574 78.9895 51.901 74.5481C57.6021 71.5765 61.1552 70.5428 63.5455 71.1888C64.9183 71.5765 65.3705 71.5765 65.4351 71.2373C65.4997 70.8981 64.886 70.559 63.7232 70.3167C60.8161 69.703 57.4245 70.7043 50.7705 74.1444C43.2767 78.0205 42.4207 78.3758 40.4181 78.4888C39.1745 78.5696 38.9322 78.5373 38.1409 78.182C36.978 77.649 36.1544 76.7769 35.4922 75.388C35.04 74.4674 34.2163 71.7703 34.3455 71.6572C34.3616 71.6411 34.9592 71.4311 35.6698 71.1888C41.1287 69.3638 45.99 64.8902 49.0747 58.8661C49.4946 58.0424 49.8984 57.3318 49.9791 57.2833C50.0599 57.2349 50.2537 57.2833 50.4152 57.3641C51.0451 57.7032 54.049 58.1877 56.9238 58.43C61.9305 58.8499 64.2884 59.399 66.2103 60.5457C67.5024 61.3209 68.1484 61.9831 68.6329 62.9844C68.9074 63.582 69.1174 63.8404 69.3435 63.8404C70.0057 63.8404 73.4619 62.8391 74.8024 62.2738C77.8871 60.9333 81.0526 58.9145 81.0526 58.2685C81.0526 57.7032 80.5681 57.8324 79.3406 58.7369C77.9678 59.7543 75.9652 60.8364 74.1079 61.5793C72.7836 62.1123 70.2641 62.8714 69.8119 62.8714C69.6665 62.8714 69.4243 62.5807 69.2628 62.2092C68.8751 61.3532 67.5024 60.1419 66.2265 59.5121C63.9816 58.43 62.2212 58.0424 57.6344 57.6225C54.4851 57.3479 52.4501 57.0411 51.1097 56.6373C50.4152 56.4435 50.286 56.3466 50.3667 56.1205C51.7072 52.8258 52.9993 47.8192 53.5807 43.8138C54.8566 34.8181 52.6116 28.2771 47.8796 27.1789C45.6024 26.6459 43.1313 27.7442 41.3709 30.086L40.9349 30.6512L40.7411 30.086C40.3535 29.02 39.1422 26.7751 38.3347 25.6931C36.8811 23.7227 34.297 21.93 31.9391 21.284C30.5663 20.9125 27.0616 20.8156 25.8181 21.1225ZM41.0964 36.1101C41.2417 37.5959 41.2417 38.6134 41.1125 40.0023C40.8541 42.6349 40.3212 43.507 39.6751 42.3119C39.2391 41.5205 39.2714 38.0804 39.7559 36.1908C39.9497 35.4156 40.2243 34.5112 40.3535 34.172C40.7249 33.2838 40.8864 33.6875 41.0964 36.1101ZM16.58 63.8242C18.082 64.4864 21.0698 67.2481 23.1209 69.8807C24.6391 71.851 27.2232 74.4835 28.4183 75.3234C28.9028 75.6464 29.1128 75.9371 29.1935 76.3247C29.3389 77.1322 30.2917 78.9895 31.1477 80.1523C31.5838 80.7338 32.6497 81.9127 33.538 82.7849C34.4263 83.657 35.1207 84.3999 35.0723 84.4322C34.9592 84.5614 31.0347 83.8831 30.001 83.5601C27.8692 82.9141 27.8692 82.9141 20.7791 74.4189C18.5504 71.7541 16.2409 69.0247 15.6433 68.3625C13.7537 66.263 13.0108 64.874 13.3176 64.0504C13.576 63.3397 15.1911 63.2267 16.58 63.8242ZM7.98798 66.7636C8.9247 67.0705 11.4603 68.2333 15.1911 70.0583L16.5154 70.7043L20.0201 74.9035C21.942 77.213 24.1384 79.8132 24.8975 80.6853C25.6404 81.5574 26.2218 82.3165 26.1734 82.365C26.0119 82.5265 23.6378 81.1375 22.701 80.33C20.763 78.6827 15.8532 75.5818 10.4751 72.6424C10.0229 72.4001 9.05391 71.851 8.29483 71.4311C7.53576 71.0112 6.45368 70.4136 5.87227 70.0906C4.09572 69.1054 3.5143 68.3302 3.91806 67.4581C4.14417 66.9413 5.2747 66.4245 6.21143 66.4245C6.61519 66.4245 7.42271 66.5698 7.98798 66.7636ZM28.5798 73.1431C28.6767 73.7245 28.6928 74.2251 28.6282 74.2736C28.4829 74.3543 26.3833 72.4324 26.3833 72.2225C26.3833 72.1417 26.8517 72.0771 27.4008 72.0771H28.4344L28.5798 73.1431ZM10.5559 73.7406C11.7187 74.3543 17.1937 77.536 17.3229 77.6652C17.5652 77.8913 16.7415 77.8428 12.8816 77.4229C10.4913 77.1484 7.1643 76.8092 5.46851 76.6638C2.06076 76.3731 1.6893 76.2278 1.89926 75.3718C2.25457 73.999 4.69329 73.0785 7.97183 73.0785C9.26386 73.0785 9.40921 73.1108 10.5559 73.7406Z" stroke="white" stroke-width="1.6" mask="url(#path-1-outside-1_193_1222)"/>
<path d="M98.8122 42.466H135.092V46.666H98.8122V42.466ZM108.172 30.946H129.772V34.666H108.172V30.946ZM108.172 36.666H129.772V40.386H108.172V36.666ZM100.572 56.466C105.292 55.946 112.492 54.866 119.132 53.906L119.332 58.146C113.172 59.146 106.532 60.146 101.652 60.906L100.572 56.466ZM118.652 43.626C121.212 50.626 126.812 55.186 135.852 56.866C134.812 57.866 133.452 59.866 132.812 61.186C123.012 58.866 117.492 53.466 114.252 44.706L118.652 43.626ZM130.012 46.146L133.852 48.866C130.932 50.986 127.292 53.106 124.492 54.426L121.292 51.946C124.052 50.506 127.772 48.066 130.012 46.146ZM105.532 24.906H130.892V28.866H110.452V44.226H105.532V24.906ZM105.492 43.706H110.452V57.026L105.492 57.546V43.706ZM152.052 25.066H156.572V50.626H152.052V25.066ZM154.612 25.066H164.852V48.786H154.612V44.506H160.452V29.266H154.612V25.066ZM154.492 34.506H162.772V38.666H154.492V34.506ZM166.052 24.946H183.692V29.146H166.052V24.946ZM182.172 24.946H186.732C186.732 24.946 186.692 25.986 186.652 26.546C186.332 32.066 185.972 34.586 185.052 35.586C184.292 36.426 183.372 36.746 182.252 36.866C181.252 36.986 179.492 37.026 177.652 36.946C177.572 35.746 177.132 34.146 176.492 33.106C177.972 33.226 179.332 33.266 179.972 33.266C180.532 33.266 180.852 33.186 181.172 32.906C181.692 32.346 181.932 30.426 182.172 25.546V24.946ZM172.172 26.226H176.852C176.292 32.266 174.692 36.306 167.172 38.546C166.732 37.466 165.612 35.826 164.652 35.026C170.812 33.426 171.772 30.586 172.172 26.226ZM171.732 42.026V46.306H180.732V42.026H171.732ZM167.252 38.186H185.492V50.146H167.252V38.186ZM161.892 52.546L166.332 51.986C166.852 54.666 167.332 58.106 167.372 60.226L162.652 60.986C162.652 58.826 162.332 55.266 161.892 52.546ZM170.372 52.466L174.892 51.626C175.892 54.226 176.892 57.626 177.252 59.826L172.452 60.826C172.172 58.706 171.292 55.146 170.372 52.466ZM178.652 52.426L183.012 50.746C184.652 53.346 186.772 56.866 187.692 59.106L183.052 61.106C182.252 58.866 180.252 55.146 178.652 52.426ZM155.212 51.066L159.852 52.346C158.532 55.386 156.572 58.946 154.932 61.306L150.292 59.306C151.892 57.346 153.932 53.986 155.212 51.066ZM219.052 25.546H235.292V29.986H219.052V25.546ZM217.692 39.466H239.772V43.986H217.692V39.466ZM226.132 34.786H230.972V55.786C230.972 58.186 230.492 59.466 228.932 60.226C227.332 60.946 225.132 61.106 222.172 61.066C221.932 59.746 221.132 57.666 220.492 56.386C222.532 56.466 224.612 56.506 225.292 56.466C225.932 56.426 226.132 56.266 226.132 55.706V34.786ZM233.572 25.546H234.732L235.732 25.306L238.852 27.666C236.492 31.146 233.092 35.386 229.972 38.026C229.332 37.186 228.012 35.866 227.252 35.226C229.612 32.946 232.372 28.986 233.572 26.586V25.546ZM202.452 31.506H215.372V35.946H202.452V31.506ZM207.812 23.546L212.332 24.026C210.812 32.546 208.492 43.266 206.612 50.466L202.692 48.386C204.412 42.066 206.572 31.506 207.812 23.546ZM204.772 47.706L207.412 44.346C211.572 46.946 216.852 50.826 219.172 53.826L216.292 57.706C214.052 54.666 208.972 50.466 204.772 47.706ZM213.732 31.506H214.492L215.332 31.386L218.172 31.866C217.252 47.466 213.372 56.306 205.452 61.226C204.812 60.066 203.532 58.346 202.572 57.426C209.372 53.866 212.932 45.026 213.732 32.386V31.506ZM260.212 25.066H290.932V29.426H260.212V25.066ZM257.372 25.066H262.052V37.386C262.052 44.186 261.532 54.426 258.172 60.986C257.252 60.266 255.132 59.106 253.972 58.706C257.132 52.586 257.372 43.666 257.372 37.346V25.066ZM263.772 32.266H289.452V36.106H263.772V32.266ZM262.812 38.746H290.652V42.586H262.812V38.746ZM268.692 30.106H273.332V41.186H268.692V30.106ZM279.332 30.106H284.092V41.186H279.332V30.106ZM265.852 44.386H287.452V60.946H282.652V48.306H270.452V61.106H265.852V44.386ZM268.492 50.386H284.132V53.986H268.492V50.386ZM268.492 56.186H284.132V59.906H268.492V56.186ZM315.532 41.746V54.426H310.892V46.146H306.452V41.746H315.532ZM315.532 52.066C317.172 54.706 320.212 55.866 324.452 56.026C329.212 56.266 338.492 56.146 343.932 55.706C343.372 56.786 342.652 58.946 342.452 60.306C337.572 60.546 329.252 60.626 324.452 60.426C319.452 60.226 316.092 59.066 313.532 55.946C311.892 57.546 310.172 59.066 308.132 60.786L305.852 56.066C307.612 54.946 309.612 53.546 311.372 52.066H315.532ZM307.972 26.706L311.172 23.826C313.372 25.106 316.092 27.106 317.372 28.586L313.972 31.746C312.812 30.226 310.172 28.106 307.972 26.706ZM306.532 34.826L309.652 31.866C311.892 33.066 314.732 34.946 316.092 36.466L312.812 39.706C311.572 38.266 308.812 36.146 306.532 34.826ZM327.492 36.186H331.892V39.146H327.492V36.186ZM324.572 30.346V31.546H335.252V30.346H324.572ZM324.572 33.386V34.626H335.252V33.386H324.572ZM324.572 27.306V28.506H335.252V27.306H324.572ZM320.132 25.386H339.932V36.546H320.132V25.386ZM327.812 23.506L332.732 23.866C332.012 25.186 331.212 26.226 330.612 26.986L326.972 26.426C327.332 25.386 327.692 24.306 327.812 23.506ZM317.172 37.746H342.932V41.946H338.652V40.026H321.332V41.946H317.172V37.746ZM327.572 42.946H331.932V46.066H327.572V42.946ZM317.092 45.266H343.092V47.826H317.092V45.266ZM325.172 48.946H336.172V51.426H325.172V48.946ZM335.092 48.946H339.052C339.052 48.946 339.012 49.786 338.892 50.226C338.492 52.866 337.972 54.186 337.132 54.866C336.372 55.466 335.452 55.626 334.412 55.666C333.492 55.746 331.732 55.746 329.852 55.586C329.812 54.866 329.452 53.746 329.052 53.026C330.612 53.186 332.092 53.226 332.732 53.186C333.332 53.186 333.612 53.186 333.932 52.946C334.372 52.546 334.732 51.506 335.092 49.346V48.946ZM324.932 46.586H328.892C328.212 51.226 326.332 54.026 319.452 55.666C319.092 54.746 318.132 53.226 317.332 52.546C323.052 51.506 324.412 49.666 324.932 46.586ZM324.772 39.666H328.012C327.372 42.906 325.452 44.546 319.812 45.506C319.532 44.746 318.732 43.546 318.132 42.986C322.772 42.466 324.252 41.626 324.772 39.666ZM330.252 38.826H333.692V40.866C333.692 41.626 333.732 41.666 334.332 41.666C334.572 41.666 335.652 41.666 335.972 41.666C336.452 41.666 336.652 41.506 336.732 40.426C337.332 40.826 338.612 41.186 339.492 41.386C339.212 43.506 338.372 44.146 336.452 44.146C335.892 44.146 334.332 44.146 333.772 44.146C330.852 44.146 330.252 43.426 330.252 40.866V38.826Z" fill="white"/>
<path d="M126.075 86.606V81.7544L122.075 75.3325H123.677L126.716 80.3403H126.841L129.88 75.3325H131.482L127.482 81.7544V86.606H126.075ZM137.819 86.7544C137.022 86.7544 136.332 86.5799 135.749 86.231C135.171 85.8768 134.723 85.3742 134.405 84.7232C134.092 84.0721 133.936 83.2987 133.936 82.4028V82.3872C133.936 81.4862 134.092 80.7101 134.405 80.0591C134.723 79.408 135.171 78.908 135.749 78.5591C136.332 78.2101 137.022 78.0357 137.819 78.0357C138.621 78.0357 139.311 78.2101 139.889 78.5591C140.467 78.908 140.913 79.408 141.225 80.0591C141.543 80.7101 141.702 81.4862 141.702 82.3872V82.4028C141.702 83.2987 141.543 84.0721 141.225 84.7232C140.913 85.3742 140.467 85.8768 139.889 86.231C139.311 86.5799 138.621 86.7544 137.819 86.7544ZM137.819 85.5513C138.35 85.5513 138.801 85.4263 139.171 85.1763C139.54 84.9263 139.822 84.5669 140.014 84.0982C140.212 83.6294 140.311 83.0643 140.311 82.4028V82.3872C140.311 81.7205 140.212 81.1528 140.014 80.6841C139.822 80.2153 139.54 79.8586 139.171 79.6138C138.801 79.3638 138.35 79.2388 137.819 79.2388C137.288 79.2388 136.837 79.3638 136.467 79.6138C136.098 79.8586 135.814 80.2153 135.616 80.6841C135.423 81.1528 135.327 81.7205 135.327 82.3872V82.4028C135.327 83.0643 135.423 83.6294 135.616 84.0982C135.814 84.5669 136.098 84.9263 136.467 85.1763C136.837 85.4263 137.288 85.5513 137.819 85.5513ZM149.032 86.7544C148.396 86.7544 147.862 86.6346 147.43 86.395C146.998 86.1502 146.672 85.7961 146.453 85.3325C146.24 84.8638 146.133 84.2987 146.133 83.6372V78.1841H147.492V83.3091C147.492 84.0643 147.638 84.6268 147.93 84.9966C148.227 85.3664 148.711 85.5513 149.383 85.5513C149.753 85.5513 150.078 85.4966 150.36 85.3872C150.646 85.2778 150.886 85.1216 151.078 84.9185C151.271 84.7101 151.414 84.4601 151.508 84.1685C151.607 83.8716 151.657 83.5383 151.657 83.1685V78.1841H153.016V86.606H151.657V85.3482H151.532C151.396 85.645 151.211 85.9002 150.977 86.1138C150.742 86.3221 150.461 86.481 150.133 86.5903C149.81 86.6997 149.443 86.7544 149.032 86.7544ZM157.955 86.606V78.1841H159.314V79.4341H159.439C159.601 78.9914 159.874 78.6476 160.26 78.4028C160.645 78.158 161.122 78.0357 161.689 78.0357C161.82 78.0357 161.947 78.0435 162.072 78.0591C162.202 78.0695 162.301 78.0799 162.369 78.0903V79.4107C162.228 79.3846 162.09 79.3664 161.955 79.356C161.825 79.3403 161.684 79.3325 161.533 79.3325C161.101 79.3325 160.718 79.4185 160.385 79.5903C160.051 79.7622 159.788 80.0018 159.596 80.3091C159.408 80.6164 159.314 80.9758 159.314 81.3872V86.606H157.955ZM174.224 86.606V85.3638H177.708C178.557 85.3638 179.2 85.1945 179.638 84.856C180.075 84.5174 180.294 84.0252 180.294 83.3794V83.3638C180.294 82.9315 180.192 82.5695 179.989 82.2778C179.786 81.9862 179.482 81.7674 179.075 81.6216C178.674 81.4758 178.174 81.4028 177.575 81.4028H174.224V80.1919H177.177C178.031 80.1919 178.672 80.0409 179.099 79.7388C179.531 79.4367 179.747 78.9888 179.747 78.395V78.3794C179.747 77.8065 179.552 77.3638 179.161 77.0513C178.776 76.7336 178.234 76.5747 177.536 76.5747H174.224V75.3325H177.833C178.526 75.3325 179.12 75.4471 179.614 75.6763C180.114 75.9054 180.497 76.231 180.763 76.6528C181.034 77.0695 181.169 77.5643 181.169 78.1372V78.1528C181.169 78.5435 181.081 78.9107 180.903 79.2544C180.732 79.5982 180.5 79.8872 180.208 80.1216C179.916 80.356 179.588 80.507 179.224 80.5747V80.6997C179.739 80.7622 180.185 80.9159 180.56 81.1607C180.935 81.4054 181.224 81.7232 181.427 82.1138C181.635 82.4992 181.739 82.9393 181.739 83.4341V83.4497C181.739 84.106 181.586 84.6711 181.278 85.145C180.976 85.6138 180.541 85.9758 179.974 86.231C179.406 86.481 178.721 86.606 177.919 86.606H174.224ZM173.521 86.606V75.3325H174.927V86.606H173.521ZM189.702 86.7544C188.9 86.7544 188.21 86.5773 187.632 86.2232C187.059 85.869 186.616 85.369 186.303 84.7232C185.996 84.0721 185.842 83.3065 185.842 82.4263V82.4185C185.842 81.5487 185.996 80.7857 186.303 80.1294C186.616 79.4732 187.056 78.9601 187.624 78.5903C188.191 78.2205 188.856 78.0357 189.616 78.0357C190.382 78.0357 191.038 78.2127 191.585 78.5669C192.137 78.9211 192.559 79.4159 192.85 80.0513C193.147 80.6815 193.296 81.4159 193.296 82.2544V82.7857H186.546V81.6997H192.6L191.928 82.6919V82.1528C191.928 81.4914 191.829 80.9471 191.632 80.52C191.434 80.0929 191.16 79.7752 190.811 79.5669C190.462 79.3534 190.061 79.2466 189.608 79.2466C189.155 79.2466 188.749 79.3586 188.389 79.5825C188.035 79.8013 187.754 80.1268 187.546 80.5591C187.337 80.9914 187.233 81.5226 187.233 82.1528V82.6919C187.233 83.2909 187.335 83.8039 187.538 84.231C187.741 84.6528 188.03 84.9784 188.405 85.2075C188.78 85.4315 189.223 85.5435 189.733 85.5435C190.113 85.5435 190.444 85.4914 190.725 85.3872C191.007 85.283 191.238 85.1502 191.421 84.9888C191.603 84.8273 191.731 84.6633 191.803 84.4966L191.835 84.4263H193.194L193.178 84.4888C193.106 84.7752 192.975 85.0539 192.788 85.3247C192.606 85.5903 192.369 85.8325 192.077 86.0513C191.785 86.2648 191.439 86.4367 191.038 86.5669C190.642 86.6919 190.197 86.7544 189.702 86.7544ZM200.696 86.7544C200.071 86.7544 199.519 86.6607 199.039 86.4732C198.56 86.2804 198.175 86.0122 197.883 85.6685C197.597 85.3247 197.427 84.9211 197.375 84.4575H198.766C198.881 84.8065 199.104 85.0877 199.438 85.3013C199.771 85.5148 200.206 85.6216 200.742 85.6216C201.123 85.6216 201.456 85.5669 201.742 85.4575C202.034 85.3429 202.263 85.1893 202.43 84.9966C202.597 84.7987 202.68 84.5721 202.68 84.3169V84.3013C202.68 84.0148 202.565 83.7726 202.336 83.5747C202.107 83.3716 201.732 83.2075 201.211 83.0825L199.907 82.77C199.381 82.645 198.948 82.4836 198.61 82.2857C198.271 82.0825 198.021 81.8351 197.86 81.5435C197.698 81.2466 197.617 80.8976 197.617 80.4966V80.4888C197.617 80.02 197.753 79.6008 198.024 79.231C198.3 78.8612 198.675 78.5695 199.149 78.356C199.623 78.1424 200.157 78.0357 200.75 78.0357C201.339 78.0357 201.86 78.1294 202.313 78.3169C202.771 78.4992 203.138 78.7596 203.414 79.0982C203.696 79.4367 203.867 79.8351 203.93 80.2935H202.594C202.506 79.9601 202.302 79.6893 201.985 79.481C201.667 79.2726 201.253 79.1685 200.742 79.1685C200.409 79.1685 200.112 79.2232 199.852 79.3325C199.591 79.4367 199.386 79.5825 199.235 79.77C199.084 79.9575 199.008 80.1763 199.008 80.4263V80.4419C199.008 80.6294 199.058 80.7961 199.157 80.9419C199.256 81.0877 199.409 81.2153 199.617 81.3247C199.826 81.4341 200.094 81.5304 200.422 81.6138L201.719 81.9263C202.511 82.119 203.099 82.395 203.485 82.7544C203.875 83.1138 204.071 83.5955 204.071 84.1997V84.2153C204.071 84.7153 203.922 85.158 203.625 85.5435C203.328 85.9237 202.925 86.2205 202.414 86.4341C201.909 86.6476 201.336 86.7544 200.696 86.7544ZM211.494 86.6685C210.629 86.6685 210.002 86.494 209.611 86.145C209.226 85.7961 209.033 85.2205 209.033 84.4185V79.3091H207.705V78.1841H209.033V76.0044H210.439V78.1841H212.283V79.3091H210.439V84.0747C210.439 84.5695 210.533 84.9263 210.721 85.145C210.908 85.3586 211.221 85.4653 211.658 85.4653C211.778 85.4653 211.879 85.4627 211.963 85.4575C212.051 85.4523 212.158 85.4445 212.283 85.4341V86.5903C212.153 86.6112 212.023 86.6294 211.892 86.645C211.762 86.6607 211.629 86.6685 211.494 86.6685ZM223.786 86.606V75.3325H225.153L231.614 84.5982L230.677 84.106H231.396V75.3325H232.786V86.606H231.419L224.958 77.3716L225.896 77.8638H225.177V86.606H223.786ZM241.327 86.7544C240.525 86.7544 239.835 86.5773 239.257 86.2232C238.684 85.869 238.241 85.369 237.928 84.7232C237.621 84.0721 237.467 83.3065 237.467 82.4263V82.4185C237.467 81.5487 237.621 80.7857 237.928 80.1294C238.241 79.4732 238.681 78.9601 239.249 78.5903C239.816 78.2205 240.481 78.0357 241.241 78.0357C242.007 78.0357 242.663 78.2127 243.21 78.5669C243.762 78.9211 244.184 79.4159 244.475 80.0513C244.772 80.6815 244.921 81.4159 244.921 82.2544V82.7857H238.171V81.6997H244.225L243.553 82.6919V82.1528C243.553 81.4914 243.454 80.9471 243.257 80.52C243.059 80.0929 242.785 79.7752 242.436 79.5669C242.087 79.3534 241.686 79.2466 241.233 79.2466C240.78 79.2466 240.374 79.3586 240.014 79.5825C239.66 79.8013 239.379 80.1268 239.171 80.5591C238.962 80.9914 238.858 81.5226 238.858 82.1528V82.6919C238.858 83.2909 238.96 83.8039 239.163 84.231C239.366 84.6528 239.655 84.9784 240.03 85.2075C240.405 85.4315 240.848 85.5435 241.358 85.5435C241.738 85.5435 242.069 85.4914 242.35 85.3872C242.632 85.283 242.863 85.1502 243.046 84.9888C243.228 84.8273 243.356 84.6633 243.428 84.4966L243.46 84.4263H244.819L244.803 84.4888C244.731 84.7752 244.6 85.0539 244.413 85.3247C244.231 85.5903 243.994 85.8325 243.702 86.0513C243.41 86.2648 243.064 86.4367 242.663 86.5669C242.267 86.6919 241.822 86.7544 241.327 86.7544ZM249.461 86.606V78.1841H250.821V86.606H249.461ZM250.149 76.5591C249.894 76.5591 249.672 76.4679 249.485 76.2857C249.302 76.0982 249.211 75.8768 249.211 75.6216C249.211 75.3612 249.302 75.1398 249.485 74.9575C249.672 74.7752 249.894 74.6841 250.149 74.6841C250.409 74.6841 250.631 74.7752 250.813 74.9575C250.995 75.1398 251.086 75.3612 251.086 75.6216C251.086 75.8768 250.995 76.0982 250.813 76.2857C250.631 76.4679 250.409 76.5591 250.149 76.5591ZM259.252 89.5747C258.575 89.5747 257.984 89.4784 257.478 89.2857C256.973 89.0982 256.57 88.8299 256.267 88.481C255.971 88.1372 255.786 87.7362 255.713 87.2778L255.728 87.27H257.135L257.142 87.2778C257.215 87.5955 257.434 87.856 257.799 88.0591C258.163 88.2674 258.648 88.3716 259.252 88.3716C260.007 88.3716 260.596 88.1997 261.017 87.856C261.445 87.5174 261.658 87.0383 261.658 86.4185V84.7153H261.533C261.356 85.0226 261.135 85.2857 260.869 85.5044C260.603 85.7232 260.304 85.8898 259.971 86.0044C259.637 86.1138 259.278 86.1685 258.892 86.1685C258.169 86.1685 257.541 85.9966 257.01 85.6528C256.484 85.3039 256.077 84.8247 255.791 84.2153C255.504 83.606 255.361 82.908 255.361 82.1216V82.106C255.361 81.3195 255.504 80.6216 255.791 80.0122C256.083 79.3976 256.494 78.9159 257.025 78.5669C257.557 78.2127 258.189 78.0357 258.924 78.0357C259.32 78.0357 259.684 78.0982 260.017 78.2232C260.351 78.3482 260.645 78.5252 260.9 78.7544C261.161 78.9836 261.377 79.257 261.549 79.5747H261.642V78.1841H263.002V86.4888C263.002 87.1138 262.848 87.658 262.541 88.1216C262.239 88.5851 261.807 88.9419 261.244 89.1919C260.682 89.4471 260.017 89.5747 259.252 89.5747ZM259.189 84.9653C259.71 84.9653 260.156 84.8455 260.525 84.606C260.9 84.3612 261.187 84.0252 261.385 83.5982C261.588 83.1711 261.689 82.6789 261.689 82.1216V82.106C261.689 81.5487 261.588 81.0539 261.385 80.6216C261.187 80.1893 260.9 79.8508 260.525 79.606C260.156 79.3612 259.71 79.2388 259.189 79.2388C258.669 79.2388 258.226 79.3612 257.861 79.606C257.502 79.8508 257.226 80.1893 257.033 80.6216C256.846 81.0539 256.752 81.5487 256.752 82.106V82.1216C256.752 82.6789 256.846 83.1711 257.033 83.5982C257.226 84.0252 257.502 84.3612 257.861 84.606C258.226 84.8455 258.669 84.9653 259.189 84.9653ZM268.011 86.606V74.8403H269.371V79.4497H269.496C269.709 79.0018 270.016 78.6554 270.417 78.4107C270.819 78.1607 271.329 78.0357 271.949 78.0357C272.579 78.0357 273.113 78.158 273.55 78.4028C273.988 78.6424 274.321 78.994 274.55 79.4575C274.779 79.9211 274.894 80.4862 274.894 81.1528V86.606H273.535V81.481C273.535 80.7205 273.373 80.158 273.05 79.7935C272.733 79.4237 272.238 79.2388 271.566 79.2388C271.118 79.2388 270.73 79.3351 270.402 79.5278C270.074 79.7205 269.819 79.994 269.636 80.3482C269.459 80.7023 269.371 81.1268 269.371 81.6216V86.606H268.011ZM283.942 86.7544C283.552 86.7544 283.19 86.6945 282.857 86.5747C282.523 86.4549 282.226 86.2857 281.966 86.0669C281.705 85.8429 281.489 85.5747 281.317 85.2622H281.192V86.606H279.833V74.8403H281.192V79.5122H281.317C281.474 79.2101 281.682 78.9497 281.942 78.731C282.208 78.5122 282.51 78.3429 282.849 78.2232C283.192 78.0982 283.557 78.0357 283.942 78.0357C284.656 78.0357 285.276 78.2153 285.802 78.5747C286.333 78.9341 286.745 79.4393 287.036 80.0903C287.328 80.7414 287.474 81.507 287.474 82.3872V82.4028C287.474 83.2778 287.328 84.0435 287.036 84.6997C286.745 85.3508 286.333 85.856 285.802 86.2153C285.276 86.5747 284.656 86.7544 283.942 86.7544ZM283.63 85.5513C284.146 85.5513 284.586 85.4263 284.95 85.1763C285.315 84.9211 285.594 84.5591 285.786 84.0903C285.984 83.6164 286.083 83.0539 286.083 82.4028V82.3872C286.083 81.731 285.984 81.1685 285.786 80.6997C285.594 80.231 285.315 79.8716 284.95 79.6216C284.586 79.3664 284.146 79.2388 283.63 79.2388C283.12 79.2388 282.679 79.3664 282.31 79.6216C281.94 79.8768 281.656 80.2388 281.458 80.7075C281.26 81.1763 281.161 81.7362 281.161 82.3872V82.4028C281.161 83.0487 281.26 83.6086 281.458 84.0825C281.656 84.5513 281.94 84.9133 282.31 85.1685C282.679 85.4237 283.12 85.5513 283.63 85.5513ZM295.444 86.7544C294.647 86.7544 293.957 86.5799 293.374 86.231C292.796 85.8768 292.348 85.3742 292.03 84.7232C291.717 84.0721 291.561 83.2987 291.561 82.4028V82.3872C291.561 81.4862 291.717 80.7101 292.03 80.0591C292.348 79.408 292.796 78.908 293.374 78.5591C293.957 78.2101 294.647 78.0357 295.444 78.0357C296.246 78.0357 296.936 78.2101 297.514 78.5591C298.092 78.908 298.538 79.408 298.85 80.0591C299.168 80.7101 299.327 81.4862 299.327 82.3872V82.4028C299.327 83.2987 299.168 84.0721 298.85 84.7232C298.538 85.3742 298.092 85.8768 297.514 86.231C296.936 86.5799 296.246 86.7544 295.444 86.7544ZM295.444 85.5513C295.975 85.5513 296.426 85.4263 296.796 85.1763C297.165 84.9263 297.447 84.5669 297.639 84.0982C297.837 83.6294 297.936 83.0643 297.936 82.4028V82.3872C297.936 81.7205 297.837 81.1528 297.639 80.6841C297.447 80.2153 297.165 79.8586 296.796 79.6138C296.426 79.3638 295.975 79.2388 295.444 79.2388C294.913 79.2388 294.462 79.3638 294.092 79.6138C293.723 79.8586 293.439 80.2153 293.241 80.6841C293.048 81.1528 292.952 81.7205 292.952 82.3872V82.4028C292.952 83.0643 293.048 83.6294 293.241 84.0982C293.439 84.5669 293.723 84.9263 294.092 85.1763C294.462 85.4263 294.913 85.5513 295.444 85.5513ZM306.657 86.7544C306.021 86.7544 305.487 86.6346 305.055 86.395C304.623 86.1502 304.297 85.7961 304.078 85.3325C303.865 84.8638 303.758 84.2987 303.758 83.6372V78.1841H305.117V83.3091C305.117 84.0643 305.263 84.6268 305.555 84.9966C305.852 85.3664 306.336 85.5513 307.008 85.5513C307.378 85.5513 307.703 85.4966 307.985 85.3872C308.271 85.2778 308.511 85.1216 308.703 84.9185C308.896 84.7101 309.039 84.4601 309.133 84.1685C309.232 83.8716 309.282 83.5383 309.282 83.1685V78.1841H310.641V86.606H309.282V85.3482H309.157C309.021 85.645 308.836 85.9002 308.602 86.1138C308.367 86.3221 308.086 86.481 307.758 86.5903C307.435 86.6997 307.068 86.7544 306.657 86.7544ZM315.58 86.606V78.1841H316.939V79.4341H317.064C317.226 78.9914 317.499 78.6476 317.885 78.4028C318.27 78.158 318.747 78.0357 319.314 78.0357C319.445 78.0357 319.572 78.0435 319.697 78.0591C319.827 78.0695 319.926 78.0799 319.994 78.0903V79.4107C319.853 79.3846 319.715 79.3664 319.58 79.356C319.45 79.3403 319.309 79.3325 319.158 79.3325C318.726 79.3325 318.343 79.4185 318.01 79.5903C317.676 79.7622 317.413 80.0018 317.221 80.3091C317.033 80.6164 316.939 80.9758 316.939 81.3872V86.606H315.58Z" fill="white"/>
</svg>
