<svg width="171" height="135" viewBox="0 0 171 135" fill="none" xmlns="http://www.w3.org/2000/svg">
<mask id="path-1-outside-1_193_1253" maskUnits="userSpaceOnUse" x="50.7832" y="13.466" width="70" height="55" fill="black">
<rect fill="white" x="50.7832" y="13.466" width="70" height="55"/>
<path d="M71.6377 14.7062C71.2113 14.8225 70.604 15.0034 70.281 15.1196C65.255 16.9931 63.1748 23.0269 65.3842 29.345C66.4824 32.4846 68.5755 35.4434 72.6842 39.7071C79.1056 46.3611 80.1005 47.7306 80.1522 50.0046C80.178 51.0382 80.3331 51.3612 80.6948 51.0641C80.8757 50.9219 80.9015 50.7152 80.8499 49.785C80.7077 47.2913 79.8679 46.1543 72.7488 38.7381C68.1362 33.9446 66.0948 30.5853 65.423 26.748C65.1646 25.3009 65.2421 22.6005 65.5651 21.4248C65.901 20.1973 66.7279 18.634 67.4773 17.8458C70.6557 14.4349 76.5215 14.3057 79.9713 17.5745C81.2762 18.789 82.5295 20.895 83.0722 22.7297C83.2143 23.2078 83.2014 23.3499 82.9042 24.0864C82.3615 25.443 81.9352 27.071 81.7672 28.4405C81.4959 30.5466 81.8964 32.3296 82.7104 32.6784C83.3435 32.9497 83.7699 32.7172 84.1962 31.8515C84.558 31.115 84.558 31.1021 84.558 28.4664C84.558 26.3862 84.5063 25.5464 84.3125 24.5515C84.067 23.2982 84.067 23.2853 84.3125 22.846C84.4546 22.6005 84.8423 22.0837 85.1782 21.6961C86.7674 19.8614 89.2093 19.6676 90.9923 21.231C91.5738 21.7349 92.4007 23.0915 92.7495 24.0993C93.3826 25.9469 93.5764 29.2287 93.2276 32.0841C92.827 35.34 91.7417 39.6942 90.7339 42.1232C90.5272 42.6271 90.4626 42.64 89.752 42.2782C88.4987 41.6451 87.0646 40.5469 85.7854 39.2549C84.2221 37.6527 83.6277 37.2651 82.6329 37.1618C82.0256 37.0972 81.8447 37.1359 81.3279 37.446C80.346 38.0145 79.9584 39.2549 80.2297 40.9345C80.5915 43.1827 81.8964 45.2112 84.1446 47.0588C85.2299 47.9244 85.6046 48.157 85.863 48.0536C86.2377 47.9115 86.018 47.6014 84.9198 46.7099C82.3099 44.6297 81.0566 42.6529 80.9145 40.4048C80.7982 38.6993 81.2633 37.9241 82.3874 37.8724C83.1884 37.8465 83.9249 38.3375 85.4624 39.9138C86.9095 41.3996 88.5116 42.6012 89.6228 43.0147C89.9329 43.131 90.1784 43.286 90.1784 43.3635C90.1784 43.609 88.8605 45.9605 88.0982 47.0717C85.7984 50.431 82.607 53.0021 79.4545 54.0358C78.4984 54.3458 78.1624 54.3717 78.1624 54.1262C78.1624 53.7257 77.0771 51.8264 76.5474 51.2966C75.6042 50.3405 74.4672 50.263 73.9633 51.1028C73.7566 51.4388 73.692 51.8522 73.6403 53.1443L73.5757 54.7593H72.4258H71.263L69.9063 53.1443C66.7408 49.3844 64.7253 47.8469 62.9164 47.8469C60.5649 47.8469 60.2161 49.8366 62.18 52.0589C62.4642 52.3819 62.658 52.6662 62.6192 52.705C62.5934 52.7437 61.6373 52.3303 60.5132 51.8135C57.8 50.5343 56.9731 50.263 55.9394 50.263C54.6345 50.263 53.4846 50.9607 53.2908 51.8781C53.084 52.8083 53.8076 53.674 55.6164 54.6689C56.2495 55.0177 56.7922 55.3795 56.818 55.457C56.8438 55.5474 56.663 55.5991 56.3012 55.5991C55.0867 55.612 53.3166 56.1676 52.5801 56.7878C51.7662 57.4726 51.5207 58.6612 52.1021 59.1781C52.5801 59.6173 52.9161 59.7336 53.7042 59.7336C54.7249 59.7336 57.8516 60.0308 62.6451 60.5864C67.038 61.0903 66.7925 61.0127 68.4722 62.4469C69.8934 63.6614 71.1079 64.2945 72.8651 64.7596C73.3948 64.9018 74.17 65.1343 74.5835 65.2765C75.6042 65.6382 77.1159 65.9096 78.8989 66.0646C80.0488 66.168 80.5139 66.2713 81.0308 66.5297C82.6975 67.3696 84.3513 67.5504 89.5969 67.4342C93.2405 67.3566 95.3465 67.1758 96.6902 66.8269C99.6231 66.0775 102.117 64.8889 105.489 62.6278C106.833 61.7363 108.189 60.8835 108.525 60.7414C109.171 60.4572 110.45 60.1471 111.432 60.0179C112.569 59.8628 116.691 59.9274 118.125 60.1083C119.185 60.2504 119.559 60.2504 119.676 60.1342C119.986 59.8241 119.456 59.5786 118.009 59.4106C113.978 58.9196 110.282 59.2039 108.125 60.16C107.737 60.328 106.445 61.129 105.231 61.9559C101.665 64.3591 99.6231 65.3411 96.7161 66.0646C94.4679 66.6073 93.1888 66.7106 88.2661 66.7106C83.4856 66.7106 82.7492 66.6202 81.2762 65.8837C80.1134 65.2894 77.9169 63.3255 76.5861 61.6717C75.1778 59.9145 74.506 57.6018 74.338 53.9195C74.2476 51.9556 74.4026 51.2966 74.9711 51.232C76.0693 51.1028 77.2968 53.1572 77.9815 56.2839C78.3046 57.7697 79.1831 59.4494 80.023 60.2246C80.9274 61.0515 81.7414 61.3358 83.1368 61.3358C84.8552 61.3358 85.6692 60.9998 92.504 57.4467C97.0649 55.0694 99.9074 54.2425 101.82 54.7593C102.918 55.0694 103.28 55.0694 103.331 54.7981C103.383 54.5267 102.892 54.2554 101.962 54.0616C99.6361 53.5706 96.9228 54.3717 91.5996 57.1237C85.6046 60.2246 84.9198 60.5089 83.3177 60.5993C82.3228 60.6639 82.129 60.6381 81.4959 60.3538C80.5656 59.9274 79.9067 59.2297 79.3769 58.1186C79.0152 57.3821 78.3562 55.2244 78.4596 55.134C78.4725 55.1211 78.9506 54.9531 79.5191 54.7593C83.8862 53.2993 87.7752 49.7204 90.243 44.9011C90.5789 44.2421 90.9019 43.6736 90.9665 43.6349C91.0311 43.5961 91.1861 43.6349 91.3154 43.6995C91.8192 43.9708 94.2224 44.3584 96.5223 44.5522C100.528 44.8881 102.414 45.3274 103.951 46.2448C104.985 46.865 105.502 47.3947 105.89 48.1958C106.109 48.6738 106.277 48.8805 106.458 48.8805C106.988 48.8805 109.753 48.0795 110.825 47.6273C113.293 46.5549 115.825 44.9398 115.825 44.423C115.825 43.9708 115.438 44.0742 114.456 44.7977C113.357 45.6117 111.755 46.4773 110.27 47.0717C109.21 47.4981 107.194 48.1053 106.833 48.1053C106.716 48.1053 106.523 47.8727 106.393 47.5756C106.083 46.8908 104.985 45.9218 103.964 45.4179C102.168 44.5522 100.76 44.2421 97.0908 43.9062C94.5713 43.6866 92.9433 43.4411 91.8709 43.1181C91.3154 42.963 91.212 42.8855 91.2766 42.7046C92.349 40.0689 93.3826 36.0635 93.8477 32.8593C94.8685 25.6627 93.0725 20.4299 89.2869 19.5513C87.4651 19.125 85.4883 20.0035 84.08 21.877L83.7311 22.3292L83.5761 21.877C83.266 21.0242 82.2969 19.2283 81.6509 18.3627C80.4881 16.7864 78.4208 15.3522 76.5345 14.8354C75.4362 14.5382 72.6325 14.4607 71.6377 14.7062ZM83.8603 26.6963C83.9766 27.885 83.9766 28.6989 83.8732 29.8101C83.6665 31.9161 83.2401 32.6138 82.7233 31.6577C82.3745 31.0246 82.4003 28.2726 82.7879 26.7609C82.943 26.1407 83.1626 25.4172 83.266 25.1458C83.5631 24.4352 83.6923 24.7582 83.8603 26.6963ZM64.2472 48.8676C65.4488 49.3973 67.8391 51.6067 69.48 53.7127C70.6945 55.289 72.7617 57.395 73.7178 58.0669C74.1054 58.3253 74.2734 58.5579 74.338 58.868C74.4543 59.514 75.2166 60.9998 75.9014 61.9301C76.2502 62.3952 77.103 63.3384 77.8136 64.0361C78.5242 64.7338 79.0798 65.3281 79.041 65.354C78.9506 65.4573 75.8109 64.9147 74.984 64.6563C73.2785 64.1395 73.2785 64.1395 67.6065 57.3434C65.8235 55.2115 63.9759 53.028 63.4978 52.4982C61.9861 50.8186 61.3918 49.7074 61.6373 49.0485C61.844 48.48 63.1361 48.3896 64.2472 48.8676ZM57.3736 51.2191C58.123 51.4646 60.1515 52.3949 63.1361 53.8549L64.1955 54.3717L66.9992 57.731C68.5368 59.5786 70.2939 61.6588 70.9012 62.3565C71.4955 63.0542 71.9607 63.6614 71.9219 63.7002C71.7927 63.8294 69.8934 62.7182 69.144 62.0722C67.5936 60.7543 63.6658 58.2736 59.3633 55.9221C59.0015 55.7283 58.2263 55.289 57.6191 54.9531C57.0118 54.6172 56.1462 54.1391 55.681 53.8807C54.2598 53.0926 53.7946 52.4724 54.1177 51.7747C54.2985 51.3612 55.203 50.9478 55.9523 50.9478C56.2754 50.9478 56.9214 51.0641 57.3736 51.2191ZM73.847 56.3227C73.9246 56.7878 73.9375 57.1883 73.8858 57.2271C73.7695 57.2917 72.0899 55.7542 72.0899 55.5862C72.0899 55.5216 72.4646 55.4699 72.9038 55.4699H73.7308L73.847 56.3227ZM59.4279 56.8007C60.3582 57.2917 64.7382 59.837 64.8415 59.9404C65.0354 60.1212 64.3764 60.0825 61.2885 59.7466C59.3762 59.5269 56.7146 59.2556 55.358 59.1393C52.6318 58.9067 52.3346 58.7904 52.5026 58.1057C52.7869 57.0074 54.7378 56.271 57.3607 56.271C58.3943 56.271 58.5106 56.2968 59.4279 56.8007Z"/>
</mask>
<path d="M71.6377 14.7062C71.2113 14.8225 70.604 15.0034 70.281 15.1196C65.255 16.9931 63.1748 23.0269 65.3842 29.345C66.4824 32.4846 68.5755 35.4434 72.6842 39.7071C79.1056 46.3611 80.1005 47.7306 80.1522 50.0046C80.178 51.0382 80.3331 51.3612 80.6948 51.0641C80.8757 50.9219 80.9015 50.7152 80.8499 49.785C80.7077 47.2913 79.8679 46.1543 72.7488 38.7381C68.1362 33.9446 66.0948 30.5853 65.423 26.748C65.1646 25.3009 65.2421 22.6005 65.5651 21.4248C65.901 20.1973 66.7279 18.634 67.4773 17.8458C70.6557 14.4349 76.5215 14.3057 79.9713 17.5745C81.2762 18.789 82.5295 20.895 83.0722 22.7297C83.2143 23.2078 83.2014 23.3499 82.9042 24.0864C82.3615 25.443 81.9352 27.071 81.7672 28.4405C81.4959 30.5466 81.8964 32.3296 82.7104 32.6784C83.3435 32.9497 83.7699 32.7172 84.1962 31.8515C84.558 31.115 84.558 31.1021 84.558 28.4664C84.558 26.3862 84.5063 25.5464 84.3125 24.5515C84.067 23.2982 84.067 23.2853 84.3125 22.846C84.4546 22.6005 84.8423 22.0837 85.1782 21.6961C86.7674 19.8614 89.2093 19.6676 90.9923 21.231C91.5738 21.7349 92.4007 23.0915 92.7495 24.0993C93.3826 25.9469 93.5764 29.2287 93.2276 32.0841C92.827 35.34 91.7417 39.6942 90.7339 42.1232C90.5272 42.6271 90.4626 42.64 89.752 42.2782C88.4987 41.6451 87.0646 40.5469 85.7854 39.2549C84.2221 37.6527 83.6277 37.2651 82.6329 37.1618C82.0256 37.0972 81.8447 37.1359 81.3279 37.446C80.346 38.0145 79.9584 39.2549 80.2297 40.9345C80.5915 43.1827 81.8964 45.2112 84.1446 47.0588C85.2299 47.9244 85.6046 48.157 85.863 48.0536C86.2377 47.9115 86.018 47.6014 84.9198 46.7099C82.3099 44.6297 81.0566 42.6529 80.9145 40.4048C80.7982 38.6993 81.2633 37.9241 82.3874 37.8724C83.1884 37.8465 83.9249 38.3375 85.4624 39.9138C86.9095 41.3996 88.5116 42.6012 89.6228 43.0147C89.9329 43.131 90.1784 43.286 90.1784 43.3635C90.1784 43.609 88.8605 45.9605 88.0982 47.0717C85.7984 50.431 82.607 53.0021 79.4545 54.0358C78.4984 54.3458 78.1624 54.3717 78.1624 54.1262C78.1624 53.7257 77.0771 51.8264 76.5474 51.2966C75.6042 50.3405 74.4672 50.263 73.9633 51.1028C73.7566 51.4388 73.692 51.8522 73.6403 53.1443L73.5757 54.7593H72.4258H71.263L69.9063 53.1443C66.7408 49.3844 64.7253 47.8469 62.9164 47.8469C60.5649 47.8469 60.2161 49.8366 62.18 52.0589C62.4642 52.3819 62.658 52.6662 62.6192 52.705C62.5934 52.7437 61.6373 52.3303 60.5132 51.8135C57.8 50.5343 56.9731 50.263 55.9394 50.263C54.6345 50.263 53.4846 50.9607 53.2908 51.8781C53.084 52.8083 53.8076 53.674 55.6164 54.6689C56.2495 55.0177 56.7922 55.3795 56.818 55.457C56.8438 55.5474 56.663 55.5991 56.3012 55.5991C55.0867 55.612 53.3166 56.1676 52.5801 56.7878C51.7662 57.4726 51.5207 58.6612 52.1021 59.1781C52.5801 59.6173 52.9161 59.7336 53.7042 59.7336C54.7249 59.7336 57.8516 60.0308 62.6451 60.5864C67.038 61.0903 66.7925 61.0127 68.4722 62.4469C69.8934 63.6614 71.1079 64.2945 72.8651 64.7596C73.3948 64.9018 74.17 65.1343 74.5835 65.2765C75.6042 65.6382 77.1159 65.9096 78.8989 66.0646C80.0488 66.168 80.5139 66.2713 81.0308 66.5297C82.6975 67.3696 84.3513 67.5504 89.5969 67.4342C93.2405 67.3566 95.3465 67.1758 96.6902 66.8269C99.6231 66.0775 102.117 64.8889 105.489 62.6278C106.833 61.7363 108.189 60.8835 108.525 60.7414C109.171 60.4572 110.45 60.1471 111.432 60.0179C112.569 59.8628 116.691 59.9274 118.125 60.1083C119.185 60.2504 119.559 60.2504 119.676 60.1342C119.986 59.8241 119.456 59.5786 118.009 59.4106C113.978 58.9196 110.282 59.2039 108.125 60.16C107.737 60.328 106.445 61.129 105.231 61.9559C101.665 64.3591 99.6231 65.3411 96.7161 66.0646C94.4679 66.6073 93.1888 66.7106 88.2661 66.7106C83.4856 66.7106 82.7492 66.6202 81.2762 65.8837C80.1134 65.2894 77.9169 63.3255 76.5861 61.6717C75.1778 59.9145 74.506 57.6018 74.338 53.9195C74.2476 51.9556 74.4026 51.2966 74.9711 51.232C76.0693 51.1028 77.2968 53.1572 77.9815 56.2839C78.3046 57.7697 79.1831 59.4494 80.023 60.2246C80.9274 61.0515 81.7414 61.3358 83.1368 61.3358C84.8552 61.3358 85.6692 60.9998 92.504 57.4467C97.0649 55.0694 99.9074 54.2425 101.82 54.7593C102.918 55.0694 103.28 55.0694 103.331 54.7981C103.383 54.5267 102.892 54.2554 101.962 54.0616C99.6361 53.5706 96.9228 54.3717 91.5996 57.1237C85.6046 60.2246 84.9198 60.5089 83.3177 60.5993C82.3228 60.6639 82.129 60.6381 81.4959 60.3538C80.5656 59.9274 79.9067 59.2297 79.3769 58.1186C79.0152 57.3821 78.3562 55.2244 78.4596 55.134C78.4725 55.1211 78.9506 54.9531 79.5191 54.7593C83.8862 53.2993 87.7752 49.7204 90.243 44.9011C90.5789 44.2421 90.9019 43.6736 90.9665 43.6349C91.0311 43.5961 91.1861 43.6349 91.3154 43.6995C91.8192 43.9708 94.2224 44.3584 96.5223 44.5522C100.528 44.8881 102.414 45.3274 103.951 46.2448C104.985 46.865 105.502 47.3947 105.89 48.1958C106.109 48.6738 106.277 48.8805 106.458 48.8805C106.988 48.8805 109.753 48.0795 110.825 47.6273C113.293 46.5549 115.825 44.9398 115.825 44.423C115.825 43.9708 115.438 44.0742 114.456 44.7977C113.357 45.6117 111.755 46.4773 110.27 47.0717C109.21 47.4981 107.194 48.1053 106.833 48.1053C106.716 48.1053 106.523 47.8727 106.393 47.5756C106.083 46.8908 104.985 45.9218 103.964 45.4179C102.168 44.5522 100.76 44.2421 97.0908 43.9062C94.5713 43.6866 92.9433 43.4411 91.8709 43.1181C91.3154 42.963 91.212 42.8855 91.2766 42.7046C92.349 40.0689 93.3826 36.0635 93.8477 32.8593C94.8685 25.6627 93.0725 20.4299 89.2869 19.5513C87.4651 19.125 85.4883 20.0035 84.08 21.877L83.7311 22.3292L83.5761 21.877C83.266 21.0242 82.2969 19.2283 81.6509 18.3627C80.4881 16.7864 78.4208 15.3522 76.5345 14.8354C75.4362 14.5382 72.6325 14.4607 71.6377 14.7062ZM83.8603 26.6963C83.9766 27.885 83.9766 28.6989 83.8732 29.8101C83.6665 31.9161 83.2401 32.6138 82.7233 31.6577C82.3745 31.0246 82.4003 28.2726 82.7879 26.7609C82.943 26.1407 83.1626 25.4172 83.266 25.1458C83.5631 24.4352 83.6923 24.7582 83.8603 26.6963ZM64.2472 48.8676C65.4488 49.3973 67.8391 51.6067 69.48 53.7127C70.6945 55.289 72.7617 57.395 73.7178 58.0669C74.1054 58.3253 74.2734 58.5579 74.338 58.868C74.4543 59.514 75.2166 60.9998 75.9014 61.9301C76.2502 62.3952 77.103 63.3384 77.8136 64.0361C78.5242 64.7338 79.0798 65.3281 79.041 65.354C78.9506 65.4573 75.8109 64.9147 74.984 64.6563C73.2785 64.1395 73.2785 64.1395 67.6065 57.3434C65.8235 55.2115 63.9759 53.028 63.4978 52.4982C61.9861 50.8186 61.3918 49.7074 61.6373 49.0485C61.844 48.48 63.1361 48.3896 64.2472 48.8676ZM57.3736 51.2191C58.123 51.4646 60.1515 52.3949 63.1361 53.8549L64.1955 54.3717L66.9992 57.731C68.5368 59.5786 70.2939 61.6588 70.9012 62.3565C71.4955 63.0542 71.9607 63.6614 71.9219 63.7002C71.7927 63.8294 69.8934 62.7182 69.144 62.0722C67.5936 60.7543 63.6658 58.2736 59.3633 55.9221C59.0015 55.7283 58.2263 55.289 57.6191 54.9531C57.0118 54.6172 56.1462 54.1391 55.681 53.8807C54.2598 53.0926 53.7946 52.4724 54.1177 51.7747C54.2985 51.3612 55.203 50.9478 55.9523 50.9478C56.2754 50.9478 56.9214 51.0641 57.3736 51.2191ZM73.847 56.3227C73.9246 56.7878 73.9375 57.1883 73.8858 57.2271C73.7695 57.2917 72.0899 55.7542 72.0899 55.5862C72.0899 55.5216 72.4646 55.4699 72.9038 55.4699H73.7308L73.847 56.3227ZM59.4279 56.8007C60.3582 57.2917 64.7382 59.837 64.8415 59.9404C65.0354 60.1212 64.3764 60.0825 61.2885 59.7466C59.3762 59.5269 56.7146 59.2556 55.358 59.1393C52.6318 58.9067 52.3346 58.7904 52.5026 58.1057C52.7869 57.0074 54.7378 56.271 57.3607 56.271C58.3943 56.271 58.5106 56.2968 59.4279 56.8007Z" fill="black"/>
<path d="M71.6377 14.7062C71.2113 14.8225 70.604 15.0034 70.281 15.1196C65.255 16.9931 63.1748 23.0269 65.3842 29.345C66.4824 32.4846 68.5755 35.4434 72.6842 39.7071C79.1056 46.3611 80.1005 47.7306 80.1522 50.0046C80.178 51.0382 80.3331 51.3612 80.6948 51.0641C80.8757 50.9219 80.9015 50.7152 80.8499 49.785C80.7077 47.2913 79.8679 46.1543 72.7488 38.7381C68.1362 33.9446 66.0948 30.5853 65.423 26.748C65.1646 25.3009 65.2421 22.6005 65.5651 21.4248C65.901 20.1973 66.7279 18.634 67.4773 17.8458C70.6557 14.4349 76.5215 14.3057 79.9713 17.5745C81.2762 18.789 82.5295 20.895 83.0722 22.7297C83.2143 23.2078 83.2014 23.3499 82.9042 24.0864C82.3615 25.443 81.9352 27.071 81.7672 28.4405C81.4959 30.5466 81.8964 32.3296 82.7104 32.6784C83.3435 32.9497 83.7699 32.7172 84.1962 31.8515C84.558 31.115 84.558 31.1021 84.558 28.4664C84.558 26.3862 84.5063 25.5464 84.3125 24.5515C84.067 23.2982 84.067 23.2853 84.3125 22.846C84.4546 22.6005 84.8423 22.0837 85.1782 21.6961C86.7674 19.8614 89.2093 19.6676 90.9923 21.231C91.5738 21.7349 92.4007 23.0915 92.7495 24.0993C93.3826 25.9469 93.5764 29.2287 93.2276 32.0841C92.827 35.34 91.7417 39.6942 90.7339 42.1232C90.5272 42.6271 90.4626 42.64 89.752 42.2782C88.4987 41.6451 87.0646 40.5469 85.7854 39.2549C84.2221 37.6527 83.6277 37.2651 82.6329 37.1618C82.0256 37.0972 81.8447 37.1359 81.3279 37.446C80.346 38.0145 79.9584 39.2549 80.2297 40.9345C80.5915 43.1827 81.8964 45.2112 84.1446 47.0588C85.2299 47.9244 85.6046 48.157 85.863 48.0536C86.2377 47.9115 86.018 47.6014 84.9198 46.7099C82.3099 44.6297 81.0566 42.6529 80.9145 40.4048C80.7982 38.6993 81.2633 37.9241 82.3874 37.8724C83.1884 37.8465 83.9249 38.3375 85.4624 39.9138C86.9095 41.3996 88.5116 42.6012 89.6228 43.0147C89.9329 43.131 90.1784 43.286 90.1784 43.3635C90.1784 43.609 88.8605 45.9605 88.0982 47.0717C85.7984 50.431 82.607 53.0021 79.4545 54.0358C78.4984 54.3458 78.1624 54.3717 78.1624 54.1262C78.1624 53.7257 77.0771 51.8264 76.5474 51.2966C75.6042 50.3405 74.4672 50.263 73.9633 51.1028C73.7566 51.4388 73.692 51.8522 73.6403 53.1443L73.5757 54.7593H72.4258H71.263L69.9063 53.1443C66.7408 49.3844 64.7253 47.8469 62.9164 47.8469C60.5649 47.8469 60.2161 49.8366 62.18 52.0589C62.4642 52.3819 62.658 52.6662 62.6192 52.705C62.5934 52.7437 61.6373 52.3303 60.5132 51.8135C57.8 50.5343 56.9731 50.263 55.9394 50.263C54.6345 50.263 53.4846 50.9607 53.2908 51.8781C53.084 52.8083 53.8076 53.674 55.6164 54.6689C56.2495 55.0177 56.7922 55.3795 56.818 55.457C56.8438 55.5474 56.663 55.5991 56.3012 55.5991C55.0867 55.612 53.3166 56.1676 52.5801 56.7878C51.7662 57.4726 51.5207 58.6612 52.1021 59.1781C52.5801 59.6173 52.9161 59.7336 53.7042 59.7336C54.7249 59.7336 57.8516 60.0308 62.6451 60.5864C67.038 61.0903 66.7925 61.0127 68.4722 62.4469C69.8934 63.6614 71.1079 64.2945 72.8651 64.7596C73.3948 64.9018 74.17 65.1343 74.5835 65.2765C75.6042 65.6382 77.1159 65.9096 78.8989 66.0646C80.0488 66.168 80.5139 66.2713 81.0308 66.5297C82.6975 67.3696 84.3513 67.5504 89.5969 67.4342C93.2405 67.3566 95.3465 67.1758 96.6902 66.8269C99.6231 66.0775 102.117 64.8889 105.489 62.6278C106.833 61.7363 108.189 60.8835 108.525 60.7414C109.171 60.4572 110.45 60.1471 111.432 60.0179C112.569 59.8628 116.691 59.9274 118.125 60.1083C119.185 60.2504 119.559 60.2504 119.676 60.1342C119.986 59.8241 119.456 59.5786 118.009 59.4106C113.978 58.9196 110.282 59.2039 108.125 60.16C107.737 60.328 106.445 61.129 105.231 61.9559C101.665 64.3591 99.6231 65.3411 96.7161 66.0646C94.4679 66.6073 93.1888 66.7106 88.2661 66.7106C83.4856 66.7106 82.7492 66.6202 81.2762 65.8837C80.1134 65.2894 77.9169 63.3255 76.5861 61.6717C75.1778 59.9145 74.506 57.6018 74.338 53.9195C74.2476 51.9556 74.4026 51.2966 74.9711 51.232C76.0693 51.1028 77.2968 53.1572 77.9815 56.2839C78.3046 57.7697 79.1831 59.4494 80.023 60.2246C80.9274 61.0515 81.7414 61.3358 83.1368 61.3358C84.8552 61.3358 85.6692 60.9998 92.504 57.4467C97.0649 55.0694 99.9074 54.2425 101.82 54.7593C102.918 55.0694 103.28 55.0694 103.331 54.7981C103.383 54.5267 102.892 54.2554 101.962 54.0616C99.6361 53.5706 96.9228 54.3717 91.5996 57.1237C85.6046 60.2246 84.9198 60.5089 83.3177 60.5993C82.3228 60.6639 82.129 60.6381 81.4959 60.3538C80.5656 59.9274 79.9067 59.2297 79.3769 58.1186C79.0152 57.3821 78.3562 55.2244 78.4596 55.134C78.4725 55.1211 78.9506 54.9531 79.5191 54.7593C83.8862 53.2993 87.7752 49.7204 90.243 44.9011C90.5789 44.2421 90.9019 43.6736 90.9665 43.6349C91.0311 43.5961 91.1861 43.6349 91.3154 43.6995C91.8192 43.9708 94.2224 44.3584 96.5223 44.5522C100.528 44.8881 102.414 45.3274 103.951 46.2448C104.985 46.865 105.502 47.3947 105.89 48.1958C106.109 48.6738 106.277 48.8805 106.458 48.8805C106.988 48.8805 109.753 48.0795 110.825 47.6273C113.293 46.5549 115.825 44.9398 115.825 44.423C115.825 43.9708 115.438 44.0742 114.456 44.7977C113.357 45.6117 111.755 46.4773 110.27 47.0717C109.21 47.4981 107.194 48.1053 106.833 48.1053C106.716 48.1053 106.523 47.8727 106.393 47.5756C106.083 46.8908 104.985 45.9218 103.964 45.4179C102.168 44.5522 100.76 44.2421 97.0908 43.9062C94.5713 43.6866 92.9433 43.4411 91.8709 43.1181C91.3154 42.963 91.212 42.8855 91.2766 42.7046C92.349 40.0689 93.3826 36.0635 93.8477 32.8593C94.8685 25.6627 93.0725 20.4299 89.2869 19.5513C87.4651 19.125 85.4883 20.0035 84.08 21.877L83.7311 22.3292L83.5761 21.877C83.266 21.0242 82.2969 19.2283 81.6509 18.3627C80.4881 16.7864 78.4208 15.3522 76.5345 14.8354C75.4362 14.5382 72.6325 14.4607 71.6377 14.7062ZM83.8603 26.6963C83.9766 27.885 83.9766 28.6989 83.8732 29.8101C83.6665 31.9161 83.2401 32.6138 82.7233 31.6577C82.3745 31.0246 82.4003 28.2726 82.7879 26.7609C82.943 26.1407 83.1626 25.4172 83.266 25.1458C83.5631 24.4352 83.6923 24.7582 83.8603 26.6963ZM64.2472 48.8676C65.4488 49.3973 67.8391 51.6067 69.48 53.7127C70.6945 55.289 72.7617 57.395 73.7178 58.0669C74.1054 58.3253 74.2734 58.5579 74.338 58.868C74.4543 59.514 75.2166 60.9998 75.9014 61.9301C76.2502 62.3952 77.103 63.3384 77.8136 64.0361C78.5242 64.7338 79.0798 65.3281 79.041 65.354C78.9506 65.4573 75.8109 64.9147 74.984 64.6563C73.2785 64.1395 73.2785 64.1395 67.6065 57.3434C65.8235 55.2115 63.9759 53.028 63.4978 52.4982C61.9861 50.8186 61.3918 49.7074 61.6373 49.0485C61.844 48.48 63.1361 48.3896 64.2472 48.8676ZM57.3736 51.2191C58.123 51.4646 60.1515 52.3949 63.1361 53.8549L64.1955 54.3717L66.9992 57.731C68.5368 59.5786 70.2939 61.6588 70.9012 62.3565C71.4955 63.0542 71.9607 63.6614 71.9219 63.7002C71.7927 63.8294 69.8934 62.7182 69.144 62.0722C67.5936 60.7543 63.6658 58.2736 59.3633 55.9221C59.0015 55.7283 58.2263 55.289 57.6191 54.9531C57.0118 54.6172 56.1462 54.1391 55.681 53.8807C54.2598 53.0926 53.7946 52.4724 54.1177 51.7747C54.2985 51.3612 55.203 50.9478 55.9523 50.9478C56.2754 50.9478 56.9214 51.0641 57.3736 51.2191ZM73.847 56.3227C73.9246 56.7878 73.9375 57.1883 73.8858 57.2271C73.7695 57.2917 72.0899 55.7542 72.0899 55.5862C72.0899 55.5216 72.4646 55.4699 72.9038 55.4699H73.7308L73.847 56.3227ZM59.4279 56.8007C60.3582 57.2917 64.7382 59.837 64.8415 59.9404C65.0354 60.1212 64.3764 60.0825 61.2885 59.7466C59.3762 59.5269 56.7146 59.2556 55.358 59.1393C52.6318 58.9067 52.3346 58.7904 52.5026 58.1057C52.7869 57.0074 54.7378 56.271 57.3607 56.271C58.3943 56.271 58.5106 56.2968 59.4279 56.8007Z" stroke="black" stroke-width="1.28" mask="url(#path-1-outside-1_193_1253)"/>
<path d="M25.8547 92.3468H43.2691V94.3628H25.8547V92.3468ZM30.3475 86.8172H40.7155V88.6028H30.3475V86.8172ZM30.3475 89.5628H40.7155V91.3484H30.3475V89.5628ZM26.6995 99.0668C28.9651 98.8172 32.4211 98.2988 35.6083 97.838L35.7043 99.8732C32.7475 100.353 29.5603 100.833 27.2179 101.198L26.6995 99.0668ZM35.3779 92.9036C36.6067 96.2636 39.2947 98.4524 43.6339 99.2588C43.1347 99.7388 42.4819 100.699 42.1747 101.332C37.4707 100.219 34.8211 97.6268 33.2659 93.422L35.3779 92.9036ZM40.8307 94.1132L42.6739 95.4188C41.2723 96.4364 39.5251 97.454 38.1811 98.0876L36.6451 96.8972C37.9699 96.206 39.7555 95.0348 40.8307 94.1132ZM29.0803 83.918H41.2531V85.8188H31.4419V93.1916H29.0803V83.918ZM29.0611 92.942H31.4419V99.3356L29.0611 99.5852V92.942ZM52.0499 83.9948H54.2195V96.2636H52.0499V83.9948ZM53.2787 83.9948H58.1939V95.3804H53.2787V93.326H56.0819V86.0108H53.2787V83.9948ZM53.2211 88.526H57.1955V90.5228H53.2211V88.526ZM58.7699 83.9372H67.2371V85.9532H58.7699V83.9372ZM66.5075 83.9372H68.6963C68.6963 83.9372 68.6771 84.4364 68.6579 84.7052C68.5043 87.3548 68.3315 88.5644 67.8899 89.0444C67.5251 89.4476 67.0835 89.6012 66.5459 89.6588C66.0659 89.7164 65.2211 89.7356 64.3379 89.6972C64.2995 89.1212 64.0883 88.3532 63.7811 87.854C64.4915 87.9116 65.1443 87.9308 65.4515 87.9308C65.7203 87.9308 65.8739 87.8924 66.0275 87.758C66.2771 87.4892 66.3923 86.5676 66.5075 84.2252V83.9372ZM61.7075 84.5516H63.9539C63.6851 87.4508 62.9171 89.39 59.3075 90.4652C59.0963 89.9468 58.5587 89.1596 58.0979 88.7756C61.0547 88.0076 61.5155 86.6444 61.7075 84.5516ZM61.4963 92.1356V94.19H65.8163V92.1356H61.4963ZM59.3459 90.2924H68.1011V96.0332H59.3459V90.2924ZM56.7731 97.1852L58.9043 96.9164C59.1539 98.2028 59.3843 99.854 59.4035 100.872L57.1379 101.236C57.1379 100.2 56.9843 98.4908 56.7731 97.1852ZM60.8435 97.1468L63.0131 96.7436C63.4931 97.9916 63.9731 99.6236 64.1459 100.68L61.8419 101.16C61.7075 100.142 61.2851 98.4332 60.8435 97.1468ZM64.8179 97.1276L66.9107 96.3212C67.6979 97.5692 68.7155 99.2588 69.1571 100.334L66.9299 101.294C66.5459 100.219 65.5859 98.4332 64.8179 97.1276ZM53.5667 96.4748L55.7939 97.0892C55.1603 98.5484 54.2195 100.257 53.4323 101.39L51.2051 100.43C51.9731 99.4892 52.9523 97.8764 53.5667 96.4748ZM84.8499 84.2252H92.6451V86.3564H84.8499V84.2252ZM84.1971 90.9068H94.7955V93.0764H84.1971V90.9068ZM88.2483 88.6604H90.5715V98.7404C90.5715 99.8924 90.3411 100.507 89.5923 100.872C88.8243 101.217 87.7683 101.294 86.3475 101.275C86.2323 100.641 85.8483 99.6428 85.5411 99.0284C86.5203 99.0668 87.5187 99.086 87.8451 99.0668C88.1523 99.0476 88.2483 98.9708 88.2483 98.702V88.6604ZM91.8195 84.2252H92.3763L92.8563 84.11L94.3539 85.2428C93.2211 86.9132 91.5891 88.9484 90.0915 90.2156C89.7843 89.8124 89.1507 89.1788 88.7859 88.8716C89.9187 87.7772 91.2435 85.8764 91.8195 84.7244V84.2252ZM76.8819 87.086H83.0835V89.2172H76.8819V87.086ZM79.4547 83.2652L81.6243 83.4956C80.8947 87.5852 79.7811 92.7308 78.8787 96.1868L76.9971 95.1884C77.8227 92.1548 78.8595 87.086 79.4547 83.2652ZM77.9955 94.862L79.2627 93.2492C81.2595 94.4972 83.7939 96.3596 84.9075 97.7996L83.5251 99.662C82.4499 98.2028 80.0115 96.1868 77.9955 94.862ZM82.2963 87.086H82.6611L83.0643 87.0284L84.4275 87.2588C83.9859 94.7468 82.1235 98.99 78.3219 101.352C78.0147 100.795 77.4003 99.9692 76.9395 99.5276C80.2035 97.8188 81.9123 93.5756 82.2963 87.5084V87.086ZM105.247 83.9948H119.992V86.0876H105.247V83.9948ZM103.883 83.9948H106.13V89.9084C106.13 93.1724 105.88 98.0876 104.267 101.236C103.826 100.891 102.808 100.334 102.251 100.142C103.768 97.2044 103.883 92.9228 103.883 89.8892V83.9948ZM106.955 87.4508H119.282V89.294H106.955V87.4508ZM106.495 90.5612H119.858V92.4044H106.495V90.5612ZM109.317 86.414H111.544V91.7324H109.317V86.414ZM114.424 86.414H116.709V91.7324H114.424V86.414ZM107.954 93.2684H118.322V101.217H116.018V95.15H110.162V101.294H107.954V93.2684ZM109.221 96.1484H116.728V97.8764H109.221V96.1484ZM109.221 98.9324H116.728V100.718H109.221V98.9324ZM132.44 92.0012V98.0876H130.213V94.1132H128.082V92.0012H132.44ZM132.44 96.9548C133.227 98.222 134.687 98.7788 136.722 98.8556C139.007 98.9708 143.461 98.9132 146.072 98.702C145.803 99.2204 145.458 100.257 145.362 100.91C143.019 101.025 139.026 101.064 136.722 100.968C134.322 100.872 132.709 100.315 131.48 98.8172C130.693 99.5852 129.867 100.315 128.888 101.14L127.794 98.8748C128.639 98.3372 129.599 97.6652 130.443 96.9548H132.44ZM128.811 84.782L130.347 83.3996C131.403 84.014 132.709 84.974 133.323 85.6844L131.691 87.2012C131.135 86.4716 129.867 85.454 128.811 84.782ZM128.12 88.6796L129.618 87.2588C130.693 87.8348 132.056 88.7372 132.709 89.4668L131.135 91.022C130.539 90.3308 129.215 89.3132 128.12 88.6796ZM138.181 89.3324H140.293V90.7532H138.181V89.3324ZM136.779 86.5292V87.1052H141.906V86.5292H136.779ZM136.779 87.9884V88.5836H141.906V87.9884H136.779ZM136.779 85.07V85.646H141.906V85.07H136.779ZM134.648 84.1484H144.152V89.5052H134.648V84.1484ZM138.335 83.246L140.696 83.4188C140.351 84.0524 139.967 84.5516 139.679 84.9164L137.931 84.6476C138.104 84.1484 138.277 83.63 138.335 83.246ZM133.227 90.0812H145.592V92.0972H143.538V91.1756H135.224V92.0972H133.227V90.0812ZM138.219 92.5772H140.312V94.0748H138.219V92.5772ZM133.189 93.6908H145.669V94.9196H133.189V93.6908ZM137.067 95.4572H142.347V96.6476H137.067V95.4572ZM141.829 95.4572H143.73C143.73 95.4572 143.711 95.8604 143.653 96.0716C143.461 97.3388 143.211 97.9724 142.808 98.2988C142.443 98.5868 142.002 98.6636 141.503 98.6828C141.061 98.7212 140.216 98.7212 139.314 98.6444C139.295 98.2988 139.122 97.7612 138.93 97.4156C139.679 97.4924 140.389 97.5116 140.696 97.4924C140.984 97.4924 141.119 97.4924 141.272 97.3772C141.483 97.1852 141.656 96.686 141.829 95.6492V95.4572ZM136.952 94.3244H138.853C138.527 96.5516 137.624 97.8956 134.322 98.6828C134.149 98.2412 133.688 97.5116 133.304 97.1852C136.05 96.686 136.703 95.8028 136.952 94.3244ZM136.875 91.0028H138.431C138.123 92.558 137.202 93.3452 134.495 93.806C134.36 93.4412 133.976 92.8652 133.688 92.5964C135.915 92.3468 136.626 91.9436 136.875 91.0028ZM139.506 90.5996H141.157V91.5788C141.157 91.9436 141.176 91.9628 141.464 91.9628C141.579 91.9628 142.098 91.9628 142.251 91.9628C142.482 91.9628 142.578 91.886 142.616 91.3676C142.904 91.5596 143.519 91.7324 143.941 91.8284C143.807 92.846 143.403 93.1532 142.482 93.1532C142.213 93.1532 141.464 93.1532 141.195 93.1532C139.794 93.1532 139.506 92.8076 139.506 91.5788V90.5996Z" fill="black"/>
<path d="M34.7232 113.946V111.52L32.7232 108.309H33.524L35.0436 110.813H35.1061L36.6256 108.309H37.4264L35.4264 111.52V113.946H34.7232ZM40.9951 114.02C40.5967 114.02 40.2516 113.933 39.96 113.758C39.6709 113.581 39.4469 113.33 39.2881 113.005C39.1318 112.679 39.0537 112.292 39.0537 111.844V111.837C39.0537 111.386 39.1318 110.998 39.2881 110.673C39.4469 110.347 39.6709 110.097 39.96 109.923C40.2516 109.748 40.5967 109.661 40.9951 109.661C41.3962 109.661 41.7412 109.748 42.0303 109.923C42.3193 110.097 42.542 110.347 42.6982 110.673C42.8571 110.998 42.9365 111.386 42.9365 111.837V111.844C42.9365 112.292 42.8571 112.679 42.6982 113.005C42.542 113.33 42.3193 113.581 42.0303 113.758C41.7412 113.933 41.3962 114.02 40.9951 114.02ZM40.9951 113.419C41.2607 113.419 41.486 113.356 41.6709 113.231C41.8558 113.106 41.9964 112.926 42.0928 112.692C42.1917 112.458 42.2412 112.175 42.2412 111.844V111.837C42.2412 111.503 42.1917 111.219 42.0928 110.985C41.9964 110.751 41.8558 110.572 41.6709 110.45C41.486 110.325 41.2607 110.262 40.9951 110.262C40.7295 110.262 40.5042 110.325 40.3193 110.45C40.1344 110.572 39.9925 110.751 39.8936 110.985C39.7972 111.219 39.749 111.503 39.749 111.837V111.844C39.749 112.175 39.7972 112.458 39.8936 112.692C39.9925 112.926 40.1344 113.106 40.3193 113.231C40.5042 113.356 40.7295 113.419 40.9951 113.419ZM47.0014 114.02C46.6837 114.02 46.4167 113.96 46.2006 113.84C45.9844 113.718 45.8217 113.541 45.7123 113.309C45.6055 113.075 45.5522 112.792 45.5522 112.462V109.735H46.2318V112.298C46.2318 112.675 46.3048 112.956 46.4506 113.141C46.599 113.326 46.8412 113.419 47.1772 113.419C47.362 113.419 47.5248 113.391 47.6654 113.337C47.8087 113.282 47.9285 113.204 48.0248 113.102C48.1212 112.998 48.1928 112.873 48.2397 112.727C48.2891 112.579 48.3139 112.412 48.3139 112.227V109.735H48.9936V113.946H48.3139V113.317H48.2514C48.1837 113.465 48.0912 113.593 47.974 113.7C47.8568 113.804 47.7162 113.883 47.5522 113.938C47.3907 113.993 47.2071 114.02 47.0014 114.02ZM51.8631 113.946V109.735H52.5428V110.36H52.6053C52.686 110.139 52.8227 109.967 53.0154 109.844C53.2081 109.722 53.4464 109.661 53.7303 109.661C53.7954 109.661 53.8592 109.665 53.9217 109.673C53.9868 109.678 54.0363 109.683 54.0701 109.688V110.348C53.9998 110.335 53.9308 110.326 53.8631 110.321C53.798 110.313 53.7277 110.309 53.6521 110.309C53.436 110.309 53.2446 110.352 53.0779 110.438C52.9113 110.524 52.7798 110.644 52.6834 110.798C52.5896 110.951 52.5428 111.131 52.5428 111.337V113.946H51.8631ZM60.7975 113.946V113.325H62.5396C62.9641 113.325 63.2857 113.24 63.5045 113.071C63.7232 112.902 63.8326 112.656 63.8326 112.333V112.325C63.8326 112.109 63.7818 111.928 63.6803 111.782C63.5787 111.636 63.4264 111.527 63.2232 111.454C63.0227 111.381 62.7727 111.344 62.4732 111.344H60.7975V110.739H62.274C62.7011 110.739 63.0214 110.663 63.235 110.512C63.4511 110.361 63.5592 110.137 63.5592 109.84V109.833C63.5592 109.546 63.4615 109.325 63.2662 109.169C63.0735 109.01 62.8027 108.93 62.4537 108.93H60.7975V108.309H62.6021C62.9485 108.309 63.2454 108.367 63.4928 108.481C63.7428 108.596 63.9342 108.758 64.067 108.969C64.2024 109.178 64.2701 109.425 64.2701 109.712V109.719C64.2701 109.915 64.2258 110.098 64.1373 110.27C64.0514 110.442 63.9355 110.587 63.7896 110.704C63.6438 110.821 63.4798 110.896 63.2975 110.93V110.993C63.5553 111.024 63.7779 111.101 63.9654 111.223C64.1529 111.346 64.2975 111.505 64.399 111.7C64.5032 111.893 64.5553 112.113 64.5553 112.36V112.368C64.5553 112.696 64.4785 112.979 64.3248 113.215C64.1738 113.45 63.9563 113.631 63.6725 113.758C63.3886 113.883 63.0462 113.946 62.6451 113.946H60.7975ZM60.4459 113.946V108.309H61.149V113.946H60.4459ZM68.9365 114.02C68.5355 114.02 68.1904 113.932 67.9014 113.755C67.6149 113.577 67.3936 113.327 67.2373 113.005C67.0837 112.679 67.0068 112.296 67.0068 111.856V111.852C67.0068 111.417 67.0837 111.036 67.2373 110.708C67.3936 110.38 67.6136 110.123 67.8975 109.938C68.1813 109.753 68.5133 109.661 68.8936 109.661C69.2764 109.661 69.6045 109.749 69.8779 109.926C70.154 110.104 70.3649 110.351 70.5107 110.669C70.6592 110.984 70.7334 111.351 70.7334 111.77V112.036H67.3584V111.493H70.3857L70.0498 111.989V111.719C70.0498 111.389 70.0003 111.117 69.9014 110.903C69.8024 110.689 69.6657 110.531 69.4912 110.426C69.3167 110.32 69.1162 110.266 68.8896 110.266C68.6631 110.266 68.46 110.322 68.2803 110.434C68.1032 110.544 67.9626 110.706 67.8584 110.923C67.7542 111.139 67.7021 111.404 67.7021 111.719V111.989C67.7021 112.288 67.7529 112.545 67.8545 112.758C67.9561 112.969 68.1006 113.132 68.2881 113.247C68.4756 113.359 68.6969 113.415 68.9521 113.415C69.1423 113.415 69.3076 113.389 69.4482 113.337C69.5889 113.285 69.7048 113.218 69.7959 113.137C69.887 113.057 69.9508 112.975 69.9873 112.891L70.0029 112.856H70.6826L70.6748 112.887C70.6383 113.031 70.5732 113.17 70.4795 113.305C70.3883 113.438 70.2699 113.559 70.124 113.669C69.9782 113.775 69.805 113.861 69.6045 113.926C69.4066 113.989 69.1839 114.02 68.9365 114.02ZM74.8334 114.02C74.5209 114.02 74.2449 113.973 74.0053 113.88C73.7657 113.783 73.573 113.649 73.4272 113.477C73.2839 113.305 73.1993 113.104 73.1732 112.872H73.8686C73.9259 113.046 74.0378 113.187 74.2045 113.294C74.3712 113.4 74.5886 113.454 74.8568 113.454C75.0469 113.454 75.2136 113.426 75.3568 113.372C75.5027 113.314 75.6173 113.238 75.7006 113.141C75.7839 113.042 75.8256 112.929 75.8256 112.801V112.794C75.8256 112.65 75.7683 112.529 75.6537 112.43C75.5391 112.329 75.3516 112.247 75.0912 112.184L74.4389 112.028C74.1759 111.965 73.9597 111.885 73.7904 111.786C73.6212 111.684 73.4962 111.561 73.4154 111.415C73.3347 111.266 73.2943 111.092 73.2943 110.891V110.887C73.2943 110.653 73.3621 110.443 73.4975 110.258C73.6355 110.074 73.823 109.928 74.06 109.821C74.2969 109.714 74.5639 109.661 74.8607 109.661C75.155 109.661 75.4154 109.708 75.642 109.801C75.8712 109.893 76.0548 110.023 76.1928 110.192C76.3334 110.361 76.4193 110.561 76.4506 110.79H75.7826C75.7384 110.623 75.6368 110.488 75.4779 110.383C75.3191 110.279 75.1121 110.227 74.8568 110.227C74.6902 110.227 74.5417 110.255 74.4115 110.309C74.2813 110.361 74.1785 110.434 74.1029 110.528C74.0274 110.622 73.9897 110.731 73.9897 110.856V110.864C73.9897 110.958 74.0144 111.041 74.0639 111.114C74.1134 111.187 74.1902 111.251 74.2943 111.305C74.3985 111.36 74.5326 111.408 74.6967 111.45L75.3451 111.606C75.741 111.702 76.0352 111.84 76.2279 112.02C76.4232 112.2 76.5209 112.441 76.5209 112.743V112.751C76.5209 113.001 76.4467 113.222 76.2982 113.415C76.1498 113.605 75.948 113.753 75.6928 113.86C75.4402 113.967 75.1537 114.02 74.8334 114.02ZM80.6326 113.977C80.2003 113.977 79.8865 113.89 79.6912 113.715C79.4985 113.541 79.4021 113.253 79.4021 112.852V110.298H78.7381V109.735H79.4021V108.645H80.1053V109.735H81.0271V110.298H80.1053V112.68C80.1053 112.928 80.1521 113.106 80.2459 113.215C80.3396 113.322 80.4959 113.376 80.7146 113.376C80.7745 113.376 80.8253 113.374 80.867 113.372C80.9113 113.369 80.9646 113.365 81.0271 113.36V113.938C80.962 113.949 80.8969 113.958 80.8318 113.965C80.7667 113.973 80.7003 113.977 80.6326 113.977ZM87.5787 113.946V108.309H88.2623L91.4928 112.942L91.024 112.696H91.3834V108.309H92.0787V113.946H91.3951L88.1646 109.329L88.6334 109.575H88.274V113.946H87.5787ZM96.749 114.02C96.348 114.02 96.0029 113.932 95.7139 113.755C95.4274 113.577 95.2061 113.327 95.0498 113.005C94.8962 112.679 94.8193 112.296 94.8193 111.856V111.852C94.8193 111.417 94.8962 111.036 95.0498 110.708C95.2061 110.38 95.4261 110.123 95.71 109.938C95.9938 109.753 96.3258 109.661 96.7061 109.661C97.0889 109.661 97.417 109.749 97.6904 109.926C97.9665 110.104 98.1774 110.351 98.3232 110.669C98.4717 110.984 98.5459 111.351 98.5459 111.77V112.036H95.1709V111.493H98.1982L97.8623 111.989V111.719C97.8623 111.389 97.8128 111.117 97.7139 110.903C97.6149 110.689 97.4782 110.531 97.3037 110.426C97.1292 110.32 96.9287 110.266 96.7021 110.266C96.4756 110.266 96.2725 110.322 96.0928 110.434C95.9157 110.544 95.7751 110.706 95.6709 110.923C95.5667 111.139 95.5146 111.404 95.5146 111.719V111.989C95.5146 112.288 95.5654 112.545 95.667 112.758C95.7686 112.969 95.9131 113.132 96.1006 113.247C96.2881 113.359 96.5094 113.415 96.7646 113.415C96.9548 113.415 97.1201 113.389 97.2607 113.337C97.4014 113.285 97.5173 113.218 97.6084 113.137C97.6995 113.057 97.7633 112.975 97.7998 112.891L97.8154 112.856H98.4951L98.4873 112.887C98.4508 113.031 98.3857 113.17 98.292 113.305C98.2008 113.438 98.0824 113.559 97.9365 113.669C97.7907 113.775 97.6175 113.861 97.417 113.926C97.2191 113.989 96.9964 114.02 96.749 114.02ZM101.216 113.946V109.735H101.896V113.946H101.216ZM101.56 108.923C101.432 108.923 101.322 108.877 101.228 108.786C101.137 108.692 101.091 108.581 101.091 108.454C101.091 108.324 101.137 108.213 101.228 108.122C101.322 108.031 101.432 107.985 101.56 107.985C101.69 107.985 101.801 108.031 101.892 108.122C101.983 108.213 102.029 108.324 102.029 108.454C102.029 108.581 101.983 108.692 101.892 108.786C101.801 108.877 101.69 108.923 101.56 108.923ZM106.512 115.43C106.173 115.43 105.877 115.382 105.625 115.286C105.372 115.192 105.17 115.058 105.019 114.883C104.871 114.712 104.778 114.511 104.742 114.282L104.75 114.278H105.453L105.457 114.282C105.493 114.441 105.603 114.571 105.785 114.673C105.967 114.777 106.209 114.829 106.512 114.829C106.889 114.829 107.183 114.743 107.394 114.571C107.608 114.402 107.715 114.162 107.715 113.852V113.001H107.652C107.564 113.154 107.453 113.286 107.32 113.395C107.187 113.505 107.038 113.588 106.871 113.645C106.704 113.7 106.525 113.727 106.332 113.727C105.97 113.727 105.656 113.641 105.39 113.469C105.127 113.295 104.924 113.055 104.781 112.751C104.638 112.446 104.566 112.097 104.566 111.704V111.696C104.566 111.303 104.638 110.954 104.781 110.649C104.927 110.342 105.133 110.101 105.398 109.926C105.664 109.749 105.98 109.661 106.347 109.661C106.545 109.661 106.728 109.692 106.894 109.755C107.061 109.817 107.208 109.906 107.336 110.02C107.466 110.135 107.574 110.271 107.66 110.43H107.707V109.735H108.387V113.887C108.387 114.2 108.31 114.472 108.156 114.704C108.005 114.936 107.789 115.114 107.508 115.239C107.226 115.367 106.894 115.43 106.512 115.43ZM106.48 113.126C106.741 113.126 106.963 113.066 107.148 112.946C107.336 112.824 107.479 112.656 107.578 112.442C107.679 112.229 107.73 111.982 107.73 111.704V111.696C107.73 111.417 107.679 111.17 107.578 110.954C107.479 110.738 107.336 110.568 107.148 110.446C106.963 110.324 106.741 110.262 106.48 110.262C106.22 110.262 105.999 110.324 105.816 110.446C105.637 110.568 105.499 110.738 105.402 110.954C105.308 111.17 105.262 111.417 105.262 111.696V111.704C105.262 111.982 105.308 112.229 105.402 112.442C105.499 112.656 105.637 112.824 105.816 112.946C105.999 113.066 106.22 113.126 106.48 113.126ZM111.291 113.946V108.063H111.971V110.368H112.033C112.14 110.144 112.294 109.971 112.494 109.848C112.695 109.723 112.95 109.661 113.26 109.661C113.575 109.661 113.842 109.722 114.061 109.844C114.279 109.964 114.446 110.14 114.561 110.372C114.675 110.604 114.733 110.886 114.733 111.219V113.946H114.053V111.383C114.053 111.003 113.972 110.722 113.811 110.54C113.652 110.355 113.404 110.262 113.069 110.262C112.845 110.262 112.651 110.311 112.487 110.407C112.322 110.503 112.195 110.64 112.104 110.817C112.015 110.994 111.971 111.206 111.971 111.454V113.946H111.291ZM119.657 114.02C119.462 114.02 119.281 113.99 119.114 113.93C118.947 113.87 118.799 113.786 118.669 113.676C118.538 113.564 118.43 113.43 118.344 113.274H118.282V113.946H117.602V108.063H118.282V110.399H118.344C118.422 110.248 118.527 110.118 118.657 110.008C118.79 109.899 118.941 109.814 119.11 109.755C119.282 109.692 119.464 109.661 119.657 109.661C120.014 109.661 120.324 109.751 120.587 109.93C120.852 110.11 121.058 110.363 121.204 110.688C121.35 111.014 121.422 111.396 121.422 111.837V111.844C121.422 112.282 121.35 112.665 121.204 112.993C121.058 113.318 120.852 113.571 120.587 113.751C120.324 113.93 120.014 114.02 119.657 114.02ZM119.501 113.419C119.758 113.419 119.978 113.356 120.161 113.231C120.343 113.104 120.482 112.923 120.579 112.688C120.678 112.451 120.727 112.17 120.727 111.844V111.837C120.727 111.508 120.678 111.227 120.579 110.993C120.482 110.758 120.343 110.579 120.161 110.454C119.978 110.326 119.758 110.262 119.501 110.262C119.245 110.262 119.025 110.326 118.84 110.454C118.656 110.581 118.514 110.762 118.415 110.997C118.316 111.231 118.266 111.511 118.266 111.837V111.844C118.266 112.167 118.316 112.447 118.415 112.684C118.514 112.919 118.656 113.1 118.84 113.227C119.025 113.355 119.245 113.419 119.501 113.419ZM125.808 114.02C125.409 114.02 125.064 113.933 124.772 113.758C124.483 113.581 124.259 113.33 124.101 113.005C123.944 112.679 123.866 112.292 123.866 111.844V111.837C123.866 111.386 123.944 110.998 124.101 110.673C124.259 110.347 124.483 110.097 124.772 109.923C125.064 109.748 125.409 109.661 125.808 109.661C126.209 109.661 126.554 109.748 126.843 109.923C127.132 110.097 127.354 110.347 127.511 110.673C127.67 110.998 127.749 111.386 127.749 111.837V111.844C127.749 112.292 127.67 112.679 127.511 113.005C127.354 113.33 127.132 113.581 126.843 113.758C126.554 113.933 126.209 114.02 125.808 114.02ZM125.808 113.419C126.073 113.419 126.299 113.356 126.483 113.231C126.668 113.106 126.809 112.926 126.905 112.692C127.004 112.458 127.054 112.175 127.054 111.844V111.837C127.054 111.503 127.004 111.219 126.905 110.985C126.809 110.751 126.668 110.572 126.483 110.45C126.299 110.325 126.073 110.262 125.808 110.262C125.542 110.262 125.317 110.325 125.132 110.45C124.947 110.572 124.805 110.751 124.706 110.985C124.61 111.219 124.562 111.503 124.562 111.837V111.844C124.562 112.175 124.61 112.458 124.706 112.692C124.805 112.926 124.947 113.106 125.132 113.231C125.317 113.356 125.542 113.419 125.808 113.419ZM131.814 114.02C131.496 114.02 131.229 113.96 131.013 113.84C130.797 113.718 130.634 113.541 130.525 113.309C130.418 113.075 130.365 112.792 130.365 112.462V109.735H131.044V112.298C131.044 112.675 131.117 112.956 131.263 113.141C131.412 113.326 131.654 113.419 131.99 113.419C132.175 113.419 132.337 113.391 132.478 113.337C132.621 113.282 132.741 113.204 132.837 113.102C132.934 112.998 133.005 112.873 133.052 112.727C133.102 112.579 133.126 112.412 133.126 112.227V109.735H133.806V113.946H133.126V113.317H133.064C132.996 113.465 132.904 113.593 132.787 113.7C132.669 113.804 132.529 113.883 132.365 113.938C132.203 113.993 132.02 114.02 131.814 114.02ZM136.676 113.946V109.735H137.355V110.36H137.418C137.499 110.139 137.635 109.967 137.828 109.844C138.021 109.722 138.259 109.661 138.543 109.661C138.608 109.661 138.672 109.665 138.734 109.673C138.799 109.678 138.849 109.683 138.883 109.688V110.348C138.812 110.335 138.743 110.326 138.676 110.321C138.61 110.313 138.54 110.309 138.465 110.309C138.249 110.309 138.057 110.352 137.89 110.438C137.724 110.524 137.592 110.644 137.496 110.798C137.402 110.951 137.355 111.131 137.355 111.337V113.946H136.676Z" fill="black"/>
</svg>
