<svg width="171" height="136" viewBox="0 0 171 136" fill="none" xmlns="http://www.w3.org/2000/svg">
<mask id="path-1-outside-1_193_1251" maskUnits="userSpaceOnUse" x="50.7832" y="13.9719" width="70" height="55" fill="black">
<rect fill="white" x="50.7832" y="13.9719" width="70" height="55"/>
<path d="M71.6377 15.2122C71.2113 15.3284 70.604 15.5093 70.281 15.6256C65.255 17.4991 63.1748 23.5329 65.3842 29.8509C66.4824 32.9906 68.5755 35.9493 72.6842 40.213C79.1056 46.867 80.1005 48.2366 80.1522 50.5106C80.178 51.5442 80.3331 51.8672 80.6948 51.57C80.8757 51.4279 80.9015 51.2212 80.8499 50.2909C80.7077 47.7973 79.8679 46.6603 72.7488 39.244C68.1362 34.4506 66.0948 31.0913 65.423 27.2539C65.1646 25.8068 65.2421 23.1065 65.5651 21.9307C65.901 20.7033 66.7279 19.1399 67.4773 18.3518C70.6557 14.9408 76.5215 14.8116 79.9713 18.0805C81.2762 19.295 82.5295 21.401 83.0722 23.2357C83.2143 23.7137 83.2014 23.8559 82.9042 24.5923C82.3615 25.949 81.9352 27.5769 81.7672 28.9465C81.4959 31.0525 81.8964 32.8355 82.7104 33.1844C83.3435 33.4557 83.7699 33.2231 84.1962 32.3575C84.558 31.621 84.558 31.6081 84.558 28.9723C84.558 26.8922 84.5063 26.0523 84.3125 25.0575C84.067 23.8042 84.067 23.7913 84.3125 23.352C84.4546 23.1065 84.8423 22.5897 85.1782 22.2021C86.7674 20.3674 89.2093 20.1736 90.9923 21.7369C91.5738 22.2408 92.4007 23.5975 92.7495 24.6053C93.3826 26.4529 93.5764 29.7346 93.2276 32.59C92.827 35.846 91.7417 40.2001 90.7339 42.6291C90.5272 43.133 90.4626 43.146 89.752 42.7842C88.4987 42.1511 87.0646 41.0529 85.7854 39.7608C84.2221 38.1587 83.6277 37.7711 82.6329 37.6677C82.0256 37.6031 81.8447 37.6419 81.3279 37.952C80.346 38.5205 79.9584 39.7608 80.2297 41.4405C80.5915 43.6886 81.8964 45.7171 84.1446 47.5647C85.2299 48.4304 85.6046 48.663 85.863 48.5596C86.2377 48.4175 86.018 48.1074 84.9198 47.2159C82.3099 45.1357 81.0566 43.1589 80.9145 40.9107C80.7982 39.2053 81.2633 38.43 82.3874 38.3783C83.1884 38.3525 83.9249 38.8435 85.4624 40.4198C86.9095 41.9056 88.5116 43.1072 89.6228 43.5207C89.9329 43.6369 90.1784 43.792 90.1784 43.8695C90.1784 44.115 88.8605 46.4665 88.0982 47.5776C85.7984 50.9369 82.607 53.5081 79.4545 54.5417C78.4984 54.8518 78.1624 54.8776 78.1624 54.6322C78.1624 54.2316 77.0771 52.3323 76.5474 51.8026C75.6042 50.8465 74.4672 50.769 73.9633 51.6088C73.7566 51.9447 73.692 52.3582 73.6403 53.6502L73.5757 55.2653H72.4258H71.263L69.9063 53.6502C66.7408 49.8904 64.7253 48.3529 62.9164 48.3529C60.5649 48.3529 60.2161 50.3426 62.18 52.5649C62.4642 52.8879 62.658 53.1722 62.6192 53.2109C62.5934 53.2497 61.6373 52.8362 60.5132 52.3194C57.8 51.0403 56.9731 50.769 55.9394 50.769C54.6345 50.769 53.4846 51.4667 53.2908 52.384C53.084 53.3143 53.8076 54.1799 55.6164 55.1748C56.2495 55.5237 56.7922 55.8854 56.818 55.963C56.8438 56.0534 56.663 56.1051 56.3012 56.1051C55.0867 56.118 53.3166 56.6736 52.5801 57.2937C51.7662 57.9785 51.5207 59.1672 52.1021 59.684C52.5801 60.1233 52.9161 60.2396 53.7042 60.2396C54.7249 60.2396 57.8516 60.5368 62.6451 61.0923C67.038 61.5962 66.7925 61.5187 68.4722 62.9529C69.8934 64.1674 71.1079 64.8005 72.8651 65.2656C73.3948 65.4077 74.17 65.6403 74.5835 65.7824C75.6042 66.1442 77.1159 66.4155 78.8989 66.5706C80.0488 66.6739 80.5139 66.7773 81.0308 67.0357C82.6975 67.8755 84.3513 68.0564 89.5969 67.9401C93.2405 67.8626 95.3465 67.6817 96.6902 67.3329C99.6231 66.5835 102.117 65.3948 105.489 63.1337C106.833 62.2422 108.189 61.3895 108.525 61.2474C109.171 60.9631 110.45 60.653 111.432 60.5238C112.569 60.3688 116.691 60.4334 118.125 60.6143C119.185 60.7564 119.559 60.7564 119.676 60.6401C119.986 60.33 119.456 60.0845 118.009 59.9166C113.978 59.4256 110.282 59.7099 108.125 60.666C107.737 60.8339 106.445 61.635 105.231 62.4619C101.665 64.8651 99.6231 65.847 96.7161 66.5706C94.4679 67.1132 93.1888 67.2166 88.2661 67.2166C83.4856 67.2166 82.7492 67.1261 81.2762 66.3897C80.1134 65.7953 77.9169 63.8314 76.5861 62.1776C75.1778 60.4205 74.506 58.1077 74.338 54.4254C74.2476 52.4615 74.4026 51.8026 74.9711 51.738C76.0693 51.6088 77.2968 53.6631 77.9815 56.7899C78.3046 58.2757 79.1831 59.9553 80.023 60.7306C80.9274 61.5575 81.7414 61.8417 83.1368 61.8417C84.8552 61.8417 85.6692 61.5058 92.504 57.9527C97.0649 55.5753 99.9074 54.7484 101.82 55.2653C102.918 55.5753 103.28 55.5753 103.331 55.304C103.383 55.0327 102.892 54.7614 101.962 54.5676C99.6361 54.0766 96.9228 54.8776 91.5996 57.6297C85.6046 60.7306 84.9198 61.0148 83.3177 61.1053C82.3228 61.1699 82.129 61.144 81.4959 60.8598C80.5656 60.4334 79.9067 59.7357 79.3769 58.6245C79.0152 57.8881 78.3562 55.7304 78.4596 55.6399C78.4725 55.627 78.9506 55.4591 79.5191 55.2653C83.8862 53.8053 87.7752 50.2263 90.243 45.407C90.5789 44.7481 90.9019 44.1796 90.9665 44.1408C91.0311 44.1021 91.1861 44.1408 91.3154 44.2054C91.8192 44.4768 94.2224 44.8644 96.5223 45.0582C100.528 45.3941 102.414 45.8334 103.951 46.7507C104.985 47.3709 105.502 47.9007 105.89 48.7017C106.109 49.1798 106.277 49.3865 106.458 49.3865C106.988 49.3865 109.753 48.5854 110.825 48.1332C113.293 47.0608 115.825 45.4458 115.825 44.929C115.825 44.4768 115.438 44.5801 114.456 45.3037C113.357 46.1176 111.755 46.9833 110.27 47.5776C109.21 48.004 107.194 48.6113 106.833 48.6113C106.716 48.6113 106.523 48.3787 106.393 48.0815C106.083 47.3968 104.985 46.4277 103.964 45.9238C102.168 45.0582 100.76 44.7481 97.0908 44.4122C94.5713 44.1925 92.9433 43.947 91.8709 43.624C91.3154 43.469 91.212 43.3914 91.2766 43.2106C92.349 40.5748 93.3826 36.5695 93.8477 33.3652C94.8685 26.1686 93.0725 20.9359 89.2869 20.0573C87.4651 19.6309 85.4883 20.5095 84.08 22.3829L83.7311 22.8352L83.5761 22.3829C83.266 21.5302 82.2969 19.7343 81.6509 18.8686C80.4881 17.2923 78.4208 15.8582 76.5345 15.3414C75.4362 15.0442 72.6325 14.9667 71.6377 15.2122ZM83.8603 27.2022C83.9766 28.3909 83.9766 29.2049 83.8732 30.316C83.6665 32.4221 83.2401 33.1198 82.7233 32.1637C82.3745 31.5306 82.4003 28.7785 82.7879 27.2668C82.943 26.6467 83.1626 25.9231 83.266 25.6518C83.5631 24.9412 83.6923 25.2642 83.8603 27.2022ZM64.2472 49.3736C65.4488 49.9033 67.8391 52.1127 69.48 54.2187C70.6945 55.795 72.7617 57.901 73.7178 58.5729C74.1054 58.8313 74.2734 59.0638 74.338 59.3739C74.4543 60.0199 75.2166 61.5058 75.9014 62.436C76.2502 62.9012 77.103 63.8444 77.8136 64.5421C78.5242 65.2398 79.0798 65.8341 79.041 65.8599C78.9506 65.9633 75.8109 65.4207 74.984 65.1622C73.2785 64.6454 73.2785 64.6454 67.6065 57.8493C65.8235 55.7175 63.9759 53.5339 63.4978 53.0042C61.9861 51.3245 61.3918 50.2134 61.6373 49.5545C61.844 48.986 63.1361 48.8955 64.2472 49.3736ZM57.3736 51.7251C58.123 51.9706 60.1515 52.9008 63.1361 54.3608L64.1955 54.8776L66.9992 58.2369C68.5368 60.0845 70.2939 62.1647 70.9012 62.8624C71.4955 63.5601 71.9607 64.1674 71.9219 64.2061C71.7927 64.3353 69.8934 63.2242 69.144 62.5782C67.5936 61.2603 63.6658 58.7796 59.3633 56.4281C59.0015 56.2343 58.2263 55.795 57.6191 55.4591C57.0118 55.1231 56.1462 54.6451 55.681 54.3867C54.2598 53.5985 53.7946 52.9784 54.1177 52.2807C54.2985 51.8672 55.203 51.4537 55.9523 51.4537C56.2754 51.4537 56.9214 51.57 57.3736 51.7251ZM73.847 56.8286C73.9246 57.2937 73.9375 57.6943 73.8858 57.733C73.7695 57.7976 72.0899 56.2601 72.0899 56.0922C72.0899 56.0276 72.4646 55.9759 72.9038 55.9759H73.7308L73.847 56.8286ZM59.4279 57.3067C60.3582 57.7976 64.7382 60.343 64.8415 60.4463C65.0354 60.6272 64.3764 60.5884 61.2885 60.2525C59.3762 60.0329 56.7146 59.7615 55.358 59.6453C52.6318 59.4127 52.3346 59.2964 52.5026 58.6116C52.7869 57.5134 54.7378 56.7769 57.3607 56.7769C58.3943 56.7769 58.5106 56.8028 59.4279 57.3067Z"/>
</mask>
<path d="M71.6377 15.2122C71.2113 15.3284 70.604 15.5093 70.281 15.6256C65.255 17.4991 63.1748 23.5329 65.3842 29.8509C66.4824 32.9906 68.5755 35.9493 72.6842 40.213C79.1056 46.867 80.1005 48.2366 80.1522 50.5106C80.178 51.5442 80.3331 51.8672 80.6948 51.57C80.8757 51.4279 80.9015 51.2212 80.8499 50.2909C80.7077 47.7973 79.8679 46.6603 72.7488 39.244C68.1362 34.4506 66.0948 31.0913 65.423 27.2539C65.1646 25.8068 65.2421 23.1065 65.5651 21.9307C65.901 20.7033 66.7279 19.1399 67.4773 18.3518C70.6557 14.9408 76.5215 14.8116 79.9713 18.0805C81.2762 19.295 82.5295 21.401 83.0722 23.2357C83.2143 23.7137 83.2014 23.8559 82.9042 24.5923C82.3615 25.949 81.9352 27.5769 81.7672 28.9465C81.4959 31.0525 81.8964 32.8355 82.7104 33.1844C83.3435 33.4557 83.7699 33.2231 84.1962 32.3575C84.558 31.621 84.558 31.6081 84.558 28.9723C84.558 26.8922 84.5063 26.0523 84.3125 25.0575C84.067 23.8042 84.067 23.7913 84.3125 23.352C84.4546 23.1065 84.8423 22.5897 85.1782 22.2021C86.7674 20.3674 89.2093 20.1736 90.9923 21.7369C91.5738 22.2408 92.4007 23.5975 92.7495 24.6053C93.3826 26.4529 93.5764 29.7346 93.2276 32.59C92.827 35.846 91.7417 40.2001 90.7339 42.6291C90.5272 43.133 90.4626 43.146 89.752 42.7842C88.4987 42.1511 87.0646 41.0529 85.7854 39.7608C84.2221 38.1587 83.6277 37.7711 82.6329 37.6677C82.0256 37.6031 81.8447 37.6419 81.3279 37.952C80.346 38.5205 79.9584 39.7608 80.2297 41.4405C80.5915 43.6886 81.8964 45.7171 84.1446 47.5647C85.2299 48.4304 85.6046 48.663 85.863 48.5596C86.2377 48.4175 86.018 48.1074 84.9198 47.2159C82.3099 45.1357 81.0566 43.1589 80.9145 40.9107C80.7982 39.2053 81.2633 38.43 82.3874 38.3783C83.1884 38.3525 83.9249 38.8435 85.4624 40.4198C86.9095 41.9056 88.5116 43.1072 89.6228 43.5207C89.9329 43.6369 90.1784 43.792 90.1784 43.8695C90.1784 44.115 88.8605 46.4665 88.0982 47.5776C85.7984 50.9369 82.607 53.5081 79.4545 54.5417C78.4984 54.8518 78.1624 54.8776 78.1624 54.6322C78.1624 54.2316 77.0771 52.3323 76.5474 51.8026C75.6042 50.8465 74.4672 50.769 73.9633 51.6088C73.7566 51.9447 73.692 52.3582 73.6403 53.6502L73.5757 55.2653H72.4258H71.263L69.9063 53.6502C66.7408 49.8904 64.7253 48.3529 62.9164 48.3529C60.5649 48.3529 60.2161 50.3426 62.18 52.5649C62.4642 52.8879 62.658 53.1722 62.6192 53.2109C62.5934 53.2497 61.6373 52.8362 60.5132 52.3194C57.8 51.0403 56.9731 50.769 55.9394 50.769C54.6345 50.769 53.4846 51.4667 53.2908 52.384C53.084 53.3143 53.8076 54.1799 55.6164 55.1748C56.2495 55.5237 56.7922 55.8854 56.818 55.963C56.8438 56.0534 56.663 56.1051 56.3012 56.1051C55.0867 56.118 53.3166 56.6736 52.5801 57.2937C51.7662 57.9785 51.5207 59.1672 52.1021 59.684C52.5801 60.1233 52.9161 60.2396 53.7042 60.2396C54.7249 60.2396 57.8516 60.5368 62.6451 61.0923C67.038 61.5962 66.7925 61.5187 68.4722 62.9529C69.8934 64.1674 71.1079 64.8005 72.8651 65.2656C73.3948 65.4077 74.17 65.6403 74.5835 65.7824C75.6042 66.1442 77.1159 66.4155 78.8989 66.5706C80.0488 66.6739 80.5139 66.7773 81.0308 67.0357C82.6975 67.8755 84.3513 68.0564 89.5969 67.9401C93.2405 67.8626 95.3465 67.6817 96.6902 67.3329C99.6231 66.5835 102.117 65.3948 105.489 63.1337C106.833 62.2422 108.189 61.3895 108.525 61.2474C109.171 60.9631 110.45 60.653 111.432 60.5238C112.569 60.3688 116.691 60.4334 118.125 60.6143C119.185 60.7564 119.559 60.7564 119.676 60.6401C119.986 60.33 119.456 60.0845 118.009 59.9166C113.978 59.4256 110.282 59.7099 108.125 60.666C107.737 60.8339 106.445 61.635 105.231 62.4619C101.665 64.8651 99.6231 65.847 96.7161 66.5706C94.4679 67.1132 93.1888 67.2166 88.2661 67.2166C83.4856 67.2166 82.7492 67.1261 81.2762 66.3897C80.1134 65.7953 77.9169 63.8314 76.5861 62.1776C75.1778 60.4205 74.506 58.1077 74.338 54.4254C74.2476 52.4615 74.4026 51.8026 74.9711 51.738C76.0693 51.6088 77.2968 53.6631 77.9815 56.7899C78.3046 58.2757 79.1831 59.9553 80.023 60.7306C80.9274 61.5575 81.7414 61.8417 83.1368 61.8417C84.8552 61.8417 85.6692 61.5058 92.504 57.9527C97.0649 55.5753 99.9074 54.7484 101.82 55.2653C102.918 55.5753 103.28 55.5753 103.331 55.304C103.383 55.0327 102.892 54.7614 101.962 54.5676C99.6361 54.0766 96.9228 54.8776 91.5996 57.6297C85.6046 60.7306 84.9198 61.0148 83.3177 61.1053C82.3228 61.1699 82.129 61.144 81.4959 60.8598C80.5656 60.4334 79.9067 59.7357 79.3769 58.6245C79.0152 57.8881 78.3562 55.7304 78.4596 55.6399C78.4725 55.627 78.9506 55.4591 79.5191 55.2653C83.8862 53.8053 87.7752 50.2263 90.243 45.407C90.5789 44.7481 90.9019 44.1796 90.9665 44.1408C91.0311 44.1021 91.1861 44.1408 91.3154 44.2054C91.8192 44.4768 94.2224 44.8644 96.5223 45.0582C100.528 45.3941 102.414 45.8334 103.951 46.7507C104.985 47.3709 105.502 47.9007 105.89 48.7017C106.109 49.1798 106.277 49.3865 106.458 49.3865C106.988 49.3865 109.753 48.5854 110.825 48.1332C113.293 47.0608 115.825 45.4458 115.825 44.929C115.825 44.4768 115.438 44.5801 114.456 45.3037C113.357 46.1176 111.755 46.9833 110.27 47.5776C109.21 48.004 107.194 48.6113 106.833 48.6113C106.716 48.6113 106.523 48.3787 106.393 48.0815C106.083 47.3968 104.985 46.4277 103.964 45.9238C102.168 45.0582 100.76 44.7481 97.0908 44.4122C94.5713 44.1925 92.9433 43.947 91.8709 43.624C91.3154 43.469 91.212 43.3914 91.2766 43.2106C92.349 40.5748 93.3826 36.5695 93.8477 33.3652C94.8685 26.1686 93.0725 20.9359 89.2869 20.0573C87.4651 19.6309 85.4883 20.5095 84.08 22.3829L83.7311 22.8352L83.5761 22.3829C83.266 21.5302 82.2969 19.7343 81.6509 18.8686C80.4881 17.2923 78.4208 15.8582 76.5345 15.3414C75.4362 15.0442 72.6325 14.9667 71.6377 15.2122ZM83.8603 27.2022C83.9766 28.3909 83.9766 29.2049 83.8732 30.316C83.6665 32.4221 83.2401 33.1198 82.7233 32.1637C82.3745 31.5306 82.4003 28.7785 82.7879 27.2668C82.943 26.6467 83.1626 25.9231 83.266 25.6518C83.5631 24.9412 83.6923 25.2642 83.8603 27.2022ZM64.2472 49.3736C65.4488 49.9033 67.8391 52.1127 69.48 54.2187C70.6945 55.795 72.7617 57.901 73.7178 58.5729C74.1054 58.8313 74.2734 59.0638 74.338 59.3739C74.4543 60.0199 75.2166 61.5058 75.9014 62.436C76.2502 62.9012 77.103 63.8444 77.8136 64.5421C78.5242 65.2398 79.0798 65.8341 79.041 65.8599C78.9506 65.9633 75.8109 65.4207 74.984 65.1622C73.2785 64.6454 73.2785 64.6454 67.6065 57.8493C65.8235 55.7175 63.9759 53.5339 63.4978 53.0042C61.9861 51.3245 61.3918 50.2134 61.6373 49.5545C61.844 48.986 63.1361 48.8955 64.2472 49.3736ZM57.3736 51.7251C58.123 51.9706 60.1515 52.9008 63.1361 54.3608L64.1955 54.8776L66.9992 58.2369C68.5368 60.0845 70.2939 62.1647 70.9012 62.8624C71.4955 63.5601 71.9607 64.1674 71.9219 64.2061C71.7927 64.3353 69.8934 63.2242 69.144 62.5782C67.5936 61.2603 63.6658 58.7796 59.3633 56.4281C59.0015 56.2343 58.2263 55.795 57.6191 55.4591C57.0118 55.1231 56.1462 54.6451 55.681 54.3867C54.2598 53.5985 53.7946 52.9784 54.1177 52.2807C54.2985 51.8672 55.203 51.4537 55.9523 51.4537C56.2754 51.4537 56.9214 51.57 57.3736 51.7251ZM73.847 56.8286C73.9246 57.2937 73.9375 57.6943 73.8858 57.733C73.7695 57.7976 72.0899 56.2601 72.0899 56.0922C72.0899 56.0276 72.4646 55.9759 72.9038 55.9759H73.7308L73.847 56.8286ZM59.4279 57.3067C60.3582 57.7976 64.7382 60.343 64.8415 60.4463C65.0354 60.6272 64.3764 60.5884 61.2885 60.2525C59.3762 60.0329 56.7146 59.7615 55.358 59.6453C52.6318 59.4127 52.3346 59.2964 52.5026 58.6116C52.7869 57.5134 54.7378 56.7769 57.3607 56.7769C58.3943 56.7769 58.5106 56.8028 59.4279 57.3067Z" fill="white"/>
<path d="M71.6377 15.2122C71.2113 15.3284 70.604 15.5093 70.281 15.6256C65.255 17.4991 63.1748 23.5329 65.3842 29.8509C66.4824 32.9906 68.5755 35.9493 72.6842 40.213C79.1056 46.867 80.1005 48.2366 80.1522 50.5106C80.178 51.5442 80.3331 51.8672 80.6948 51.57C80.8757 51.4279 80.9015 51.2212 80.8499 50.2909C80.7077 47.7973 79.8679 46.6603 72.7488 39.244C68.1362 34.4506 66.0948 31.0913 65.423 27.2539C65.1646 25.8068 65.2421 23.1065 65.5651 21.9307C65.901 20.7033 66.7279 19.1399 67.4773 18.3518C70.6557 14.9408 76.5215 14.8116 79.9713 18.0805C81.2762 19.295 82.5295 21.401 83.0722 23.2357C83.2143 23.7137 83.2014 23.8559 82.9042 24.5923C82.3615 25.949 81.9352 27.5769 81.7672 28.9465C81.4959 31.0525 81.8964 32.8355 82.7104 33.1844C83.3435 33.4557 83.7699 33.2231 84.1962 32.3575C84.558 31.621 84.558 31.6081 84.558 28.9723C84.558 26.8922 84.5063 26.0523 84.3125 25.0575C84.067 23.8042 84.067 23.7913 84.3125 23.352C84.4546 23.1065 84.8423 22.5897 85.1782 22.2021C86.7674 20.3674 89.2093 20.1736 90.9923 21.7369C91.5738 22.2408 92.4007 23.5975 92.7495 24.6053C93.3826 26.4529 93.5764 29.7346 93.2276 32.59C92.827 35.846 91.7417 40.2001 90.7339 42.6291C90.5272 43.133 90.4626 43.146 89.752 42.7842C88.4987 42.1511 87.0646 41.0529 85.7854 39.7608C84.2221 38.1587 83.6277 37.7711 82.6329 37.6677C82.0256 37.6031 81.8447 37.6419 81.3279 37.952C80.346 38.5205 79.9584 39.7608 80.2297 41.4405C80.5915 43.6886 81.8964 45.7171 84.1446 47.5647C85.2299 48.4304 85.6046 48.663 85.863 48.5596C86.2377 48.4175 86.018 48.1074 84.9198 47.2159C82.3099 45.1357 81.0566 43.1589 80.9145 40.9107C80.7982 39.2053 81.2633 38.43 82.3874 38.3783C83.1884 38.3525 83.9249 38.8435 85.4624 40.4198C86.9095 41.9056 88.5116 43.1072 89.6228 43.5207C89.9329 43.6369 90.1784 43.792 90.1784 43.8695C90.1784 44.115 88.8605 46.4665 88.0982 47.5776C85.7984 50.9369 82.607 53.5081 79.4545 54.5417C78.4984 54.8518 78.1624 54.8776 78.1624 54.6322C78.1624 54.2316 77.0771 52.3323 76.5474 51.8026C75.6042 50.8465 74.4672 50.769 73.9633 51.6088C73.7566 51.9447 73.692 52.3582 73.6403 53.6502L73.5757 55.2653H72.4258H71.263L69.9063 53.6502C66.7408 49.8904 64.7253 48.3529 62.9164 48.3529C60.5649 48.3529 60.2161 50.3426 62.18 52.5649C62.4642 52.8879 62.658 53.1722 62.6192 53.2109C62.5934 53.2497 61.6373 52.8362 60.5132 52.3194C57.8 51.0403 56.9731 50.769 55.9394 50.769C54.6345 50.769 53.4846 51.4667 53.2908 52.384C53.084 53.3143 53.8076 54.1799 55.6164 55.1748C56.2495 55.5237 56.7922 55.8854 56.818 55.963C56.8438 56.0534 56.663 56.1051 56.3012 56.1051C55.0867 56.118 53.3166 56.6736 52.5801 57.2937C51.7662 57.9785 51.5207 59.1672 52.1021 59.684C52.5801 60.1233 52.9161 60.2396 53.7042 60.2396C54.7249 60.2396 57.8516 60.5368 62.6451 61.0923C67.038 61.5962 66.7925 61.5187 68.4722 62.9529C69.8934 64.1674 71.1079 64.8005 72.8651 65.2656C73.3948 65.4077 74.17 65.6403 74.5835 65.7824C75.6042 66.1442 77.1159 66.4155 78.8989 66.5706C80.0488 66.6739 80.5139 66.7773 81.0308 67.0357C82.6975 67.8755 84.3513 68.0564 89.5969 67.9401C93.2405 67.8626 95.3465 67.6817 96.6902 67.3329C99.6231 66.5835 102.117 65.3948 105.489 63.1337C106.833 62.2422 108.189 61.3895 108.525 61.2474C109.171 60.9631 110.45 60.653 111.432 60.5238C112.569 60.3688 116.691 60.4334 118.125 60.6143C119.185 60.7564 119.559 60.7564 119.676 60.6401C119.986 60.33 119.456 60.0845 118.009 59.9166C113.978 59.4256 110.282 59.7099 108.125 60.666C107.737 60.8339 106.445 61.635 105.231 62.4619C101.665 64.8651 99.6231 65.847 96.7161 66.5706C94.4679 67.1132 93.1888 67.2166 88.2661 67.2166C83.4856 67.2166 82.7492 67.1261 81.2762 66.3897C80.1134 65.7953 77.9169 63.8314 76.5861 62.1776C75.1778 60.4205 74.506 58.1077 74.338 54.4254C74.2476 52.4615 74.4026 51.8026 74.9711 51.738C76.0693 51.6088 77.2968 53.6631 77.9815 56.7899C78.3046 58.2757 79.1831 59.9553 80.023 60.7306C80.9274 61.5575 81.7414 61.8417 83.1368 61.8417C84.8552 61.8417 85.6692 61.5058 92.504 57.9527C97.0649 55.5753 99.9074 54.7484 101.82 55.2653C102.918 55.5753 103.28 55.5753 103.331 55.304C103.383 55.0327 102.892 54.7614 101.962 54.5676C99.6361 54.0766 96.9228 54.8776 91.5996 57.6297C85.6046 60.7306 84.9198 61.0148 83.3177 61.1053C82.3228 61.1699 82.129 61.144 81.4959 60.8598C80.5656 60.4334 79.9067 59.7357 79.3769 58.6245C79.0152 57.8881 78.3562 55.7304 78.4596 55.6399C78.4725 55.627 78.9506 55.4591 79.5191 55.2653C83.8862 53.8053 87.7752 50.2263 90.243 45.407C90.5789 44.7481 90.9019 44.1796 90.9665 44.1408C91.0311 44.1021 91.1861 44.1408 91.3154 44.2054C91.8192 44.4768 94.2224 44.8644 96.5223 45.0582C100.528 45.3941 102.414 45.8334 103.951 46.7507C104.985 47.3709 105.502 47.9007 105.89 48.7017C106.109 49.1798 106.277 49.3865 106.458 49.3865C106.988 49.3865 109.753 48.5854 110.825 48.1332C113.293 47.0608 115.825 45.4458 115.825 44.929C115.825 44.4768 115.438 44.5801 114.456 45.3037C113.357 46.1176 111.755 46.9833 110.27 47.5776C109.21 48.004 107.194 48.6113 106.833 48.6113C106.716 48.6113 106.523 48.3787 106.393 48.0815C106.083 47.3968 104.985 46.4277 103.964 45.9238C102.168 45.0582 100.76 44.7481 97.0908 44.4122C94.5713 44.1925 92.9433 43.947 91.8709 43.624C91.3154 43.469 91.212 43.3914 91.2766 43.2106C92.349 40.5748 93.3826 36.5695 93.8477 33.3652C94.8685 26.1686 93.0725 20.9359 89.2869 20.0573C87.4651 19.6309 85.4883 20.5095 84.08 22.3829L83.7311 22.8352L83.5761 22.3829C83.266 21.5302 82.2969 19.7343 81.6509 18.8686C80.4881 17.2923 78.4208 15.8582 76.5345 15.3414C75.4362 15.0442 72.6325 14.9667 71.6377 15.2122ZM83.8603 27.2022C83.9766 28.3909 83.9766 29.2049 83.8732 30.316C83.6665 32.4221 83.2401 33.1198 82.7233 32.1637C82.3745 31.5306 82.4003 28.7785 82.7879 27.2668C82.943 26.6467 83.1626 25.9231 83.266 25.6518C83.5631 24.9412 83.6923 25.2642 83.8603 27.2022ZM64.2472 49.3736C65.4488 49.9033 67.8391 52.1127 69.48 54.2187C70.6945 55.795 72.7617 57.901 73.7178 58.5729C74.1054 58.8313 74.2734 59.0638 74.338 59.3739C74.4543 60.0199 75.2166 61.5058 75.9014 62.436C76.2502 62.9012 77.103 63.8444 77.8136 64.5421C78.5242 65.2398 79.0798 65.8341 79.041 65.8599C78.9506 65.9633 75.8109 65.4207 74.984 65.1622C73.2785 64.6454 73.2785 64.6454 67.6065 57.8493C65.8235 55.7175 63.9759 53.5339 63.4978 53.0042C61.9861 51.3245 61.3918 50.2134 61.6373 49.5545C61.844 48.986 63.1361 48.8955 64.2472 49.3736ZM57.3736 51.7251C58.123 51.9706 60.1515 52.9008 63.1361 54.3608L64.1955 54.8776L66.9992 58.2369C68.5368 60.0845 70.2939 62.1647 70.9012 62.8624C71.4955 63.5601 71.9607 64.1674 71.9219 64.2061C71.7927 64.3353 69.8934 63.2242 69.144 62.5782C67.5936 61.2603 63.6658 58.7796 59.3633 56.4281C59.0015 56.2343 58.2263 55.795 57.6191 55.4591C57.0118 55.1231 56.1462 54.6451 55.681 54.3867C54.2598 53.5985 53.7946 52.9784 54.1177 52.2807C54.2985 51.8672 55.203 51.4537 55.9523 51.4537C56.2754 51.4537 56.9214 51.57 57.3736 51.7251ZM73.847 56.8286C73.9246 57.2937 73.9375 57.6943 73.8858 57.733C73.7695 57.7976 72.0899 56.2601 72.0899 56.0922C72.0899 56.0276 72.4646 55.9759 72.9038 55.9759H73.7308L73.847 56.8286ZM59.4279 57.3067C60.3582 57.7976 64.7382 60.343 64.8415 60.4463C65.0354 60.6272 64.3764 60.5884 61.2885 60.2525C59.3762 60.0329 56.7146 59.7615 55.358 59.6453C52.6318 59.4127 52.3346 59.2964 52.5026 58.6116C52.7869 57.5134 54.7378 56.7769 57.3607 56.7769C58.3943 56.7769 58.5106 56.8028 59.4279 57.3067Z" stroke="white" stroke-width="1.28" mask="url(#path-1-outside-1_193_1251)"/>
<path d="M25.8547 92.8527H43.2691V94.8687H25.8547V92.8527ZM30.3475 87.3231H40.7155V89.1087H30.3475V87.3231ZM30.3475 90.0687H40.7155V91.8543H30.3475V90.0687ZM26.6995 99.5727C28.9651 99.3231 32.4211 98.8047 35.6083 98.3439L35.7043 100.379C32.7475 100.859 29.5603 101.339 27.2179 101.704L26.6995 99.5727ZM35.3779 93.4095C36.6067 96.7695 39.2947 98.9583 43.6339 99.7647C43.1347 100.245 42.4819 101.205 42.1747 101.838C37.4707 100.725 34.8211 98.1327 33.2659 93.9279L35.3779 93.4095ZM40.8307 94.6191L42.6739 95.9247C41.2723 96.9423 39.5251 97.9599 38.1811 98.5935L36.6451 97.4031C37.9699 96.7119 39.7555 95.5407 40.8307 94.6191ZM29.0803 84.4239H41.2531V86.3247H31.4419V93.6975H29.0803V84.4239ZM29.0611 93.4479H31.4419V99.8415L29.0611 100.091V93.4479ZM52.0499 84.5007H54.2195V96.7695H52.0499V84.5007ZM53.2787 84.5007H58.1939V95.8863H53.2787V93.8319H56.0819V86.5167H53.2787V84.5007ZM53.2211 89.0319H57.1955V91.0287H53.2211V89.0319ZM58.7699 84.4431H67.2371V86.4591H58.7699V84.4431ZM66.5075 84.4431H68.6963C68.6963 84.4431 68.6771 84.9423 68.6579 85.2111C68.5043 87.8607 68.3315 89.0703 67.8899 89.5503C67.5251 89.9535 67.0835 90.1071 66.5459 90.1647C66.0659 90.2223 65.2211 90.2415 64.3379 90.2031C64.2995 89.6271 64.0883 88.8591 63.7811 88.3599C64.4915 88.4175 65.1443 88.4367 65.4515 88.4367C65.7203 88.4367 65.8739 88.3983 66.0275 88.2639C66.2771 87.9951 66.3923 87.0735 66.5075 84.7311V84.4431ZM61.7075 85.0575H63.9539C63.6851 87.9567 62.9171 89.8959 59.3075 90.9711C59.0963 90.4527 58.5587 89.6655 58.0979 89.2815C61.0547 88.5135 61.5155 87.1503 61.7075 85.0575ZM61.4963 92.6415V94.6959H65.8163V92.6415H61.4963ZM59.3459 90.7983H68.1011V96.5391H59.3459V90.7983ZM56.7731 97.6911L58.9043 97.4223C59.1539 98.7087 59.3843 100.36 59.4035 101.378L57.1379 101.742C57.1379 100.706 56.9843 98.9967 56.7731 97.6911ZM60.8435 97.6527L63.0131 97.2495C63.4931 98.4975 63.9731 100.13 64.1459 101.186L61.8419 101.666C61.7075 100.648 61.2851 98.9391 60.8435 97.6527ZM64.8179 97.6335L66.9107 96.8271C67.6979 98.0751 68.7155 99.7647 69.1571 100.84L66.9299 101.8C66.5459 100.725 65.5859 98.9391 64.8179 97.6335ZM53.5667 96.9807L55.7939 97.5951C55.1603 99.0543 54.2195 100.763 53.4323 101.896L51.2051 100.936C51.9731 99.9951 52.9523 98.3823 53.5667 96.9807ZM84.8499 84.7311H92.6451V86.8623H84.8499V84.7311ZM84.1971 91.4127H94.7955V93.5823H84.1971V91.4127ZM88.2483 89.1663H90.5715V99.2463C90.5715 100.398 90.3411 101.013 89.5923 101.378C88.8243 101.723 87.7683 101.8 86.3475 101.781C86.2323 101.147 85.8483 100.149 85.5411 99.5343C86.5203 99.5727 87.5187 99.5919 87.8451 99.5727C88.1523 99.5535 88.2483 99.4767 88.2483 99.2079V89.1663ZM91.8195 84.7311H92.3763L92.8563 84.6159L94.3539 85.7487C93.2211 87.4191 91.5891 89.4543 90.0915 90.7215C89.7843 90.3183 89.1507 89.6847 88.7859 89.3775C89.9187 88.2831 91.2435 86.3823 91.8195 85.2303V84.7311ZM76.8819 87.5919H83.0835V89.7231H76.8819V87.5919ZM79.4547 83.7711L81.6243 84.0015C80.8947 88.0911 79.7811 93.2367 78.8787 96.6927L76.9971 95.6943C77.8227 92.6607 78.8595 87.5919 79.4547 83.7711ZM77.9955 95.3679L79.2627 93.7551C81.2595 95.0031 83.7939 96.8655 84.9075 98.3055L83.5251 100.168C82.4499 98.7087 80.0115 96.6927 77.9955 95.3679ZM82.2963 87.5919H82.6611L83.0643 87.5343L84.4275 87.7647C83.9859 95.2527 82.1235 99.4959 78.3219 101.858C78.0147 101.301 77.4003 100.475 76.9395 100.034C80.2035 98.3247 81.9123 94.0815 82.2963 88.0143V87.5919ZM105.247 84.5007H119.992V86.5935H105.247V84.5007ZM103.883 84.5007H106.13V90.4143C106.13 93.6783 105.88 98.5935 104.267 101.742C103.826 101.397 102.808 100.84 102.251 100.648C103.768 97.7103 103.883 93.4287 103.883 90.3951V84.5007ZM106.955 87.9567H119.282V89.7999H106.955V87.9567ZM106.495 91.0671H119.858V92.9103H106.495V91.0671ZM109.317 86.9199H111.544V92.2383H109.317V86.9199ZM114.424 86.9199H116.709V92.2383H114.424V86.9199ZM107.954 93.7743H118.322V101.723H116.018V95.6559H110.162V101.8H107.954V93.7743ZM109.221 96.6543H116.728V98.3823H109.221V96.6543ZM109.221 99.4383H116.728V101.224H109.221V99.4383ZM132.44 92.5071V98.5935H130.213V94.6191H128.082V92.5071H132.44ZM132.44 97.4607C133.227 98.7279 134.687 99.2847 136.722 99.3615C139.007 99.4767 143.461 99.4191 146.072 99.2079C145.803 99.7263 145.458 100.763 145.362 101.416C143.019 101.531 139.026 101.57 136.722 101.474C134.322 101.378 132.709 100.821 131.48 99.3231C130.693 100.091 129.867 100.821 128.888 101.646L127.794 99.3807C128.639 98.8431 129.599 98.1711 130.443 97.4607H132.44ZM128.811 85.2879L130.347 83.9055C131.403 84.5199 132.709 85.4799 133.323 86.1903L131.691 87.7071C131.135 86.9775 129.867 85.9599 128.811 85.2879ZM128.12 89.1855L129.618 87.7647C130.693 88.3407 132.056 89.2431 132.709 89.9727L131.135 91.5279C130.539 90.8367 129.215 89.8191 128.12 89.1855ZM138.181 89.8383H140.293V91.2591H138.181V89.8383ZM136.779 87.0351V87.6111H141.906V87.0351H136.779ZM136.779 88.4943V89.0895H141.906V88.4943H136.779ZM136.779 85.5759V86.1519H141.906V85.5759H136.779ZM134.648 84.6543H144.152V90.0111H134.648V84.6543ZM138.335 83.7519L140.696 83.9247C140.351 84.5583 139.967 85.0575 139.679 85.4223L137.931 85.1535C138.104 84.6543 138.277 84.1359 138.335 83.7519ZM133.227 90.5871H145.592V92.6031H143.538V91.6815H135.224V92.6031H133.227V90.5871ZM138.219 93.0831H140.312V94.5807H138.219V93.0831ZM133.189 94.1967H145.669V95.4255H133.189V94.1967ZM137.067 95.9631H142.347V97.1535H137.067V95.9631ZM141.829 95.9631H143.73C143.73 95.9631 143.711 96.3663 143.653 96.5775C143.461 97.8447 143.211 98.4783 142.808 98.8047C142.443 99.0927 142.002 99.1695 141.503 99.1887C141.061 99.2271 140.216 99.2271 139.314 99.1503C139.295 98.8047 139.122 98.2671 138.93 97.9215C139.679 97.9983 140.389 98.0175 140.696 97.9983C140.984 97.9983 141.119 97.9983 141.272 97.8831C141.483 97.6911 141.656 97.1919 141.829 96.1551V95.9631ZM136.952 94.8303H138.853C138.527 97.0575 137.624 98.4015 134.322 99.1887C134.149 98.7471 133.688 98.0175 133.304 97.6911C136.05 97.1919 136.703 96.3087 136.952 94.8303ZM136.875 91.5087H138.431C138.123 93.0639 137.202 93.8511 134.495 94.3119C134.36 93.9471 133.976 93.3711 133.688 93.1023C135.915 92.8527 136.626 92.4495 136.875 91.5087ZM139.506 91.1055H141.157V92.0847C141.157 92.4495 141.176 92.4687 141.464 92.4687C141.579 92.4687 142.098 92.4687 142.251 92.4687C142.482 92.4687 142.578 92.3919 142.616 91.8735C142.904 92.0655 143.519 92.2383 143.941 92.3343C143.807 93.3519 143.403 93.6591 142.482 93.6591C142.213 93.6591 141.464 93.6591 141.195 93.6591C139.794 93.6591 139.506 93.3135 139.506 92.0847V91.1055Z" fill="white"/>
<path d="M34.7232 114.452V112.026L32.7232 108.815H33.524L35.0436 111.319H35.1061L36.6256 108.815H37.4264L35.4264 112.026V114.452H34.7232ZM40.9951 114.526C40.5967 114.526 40.2516 114.439 39.96 114.264C39.6709 114.087 39.4469 113.836 39.2881 113.511C39.1318 113.185 39.0537 112.798 39.0537 112.35V112.343C39.0537 111.892 39.1318 111.504 39.2881 111.179C39.4469 110.853 39.6709 110.603 39.96 110.429C40.2516 110.254 40.5967 110.167 40.9951 110.167C41.3962 110.167 41.7412 110.254 42.0303 110.429C42.3193 110.603 42.542 110.853 42.6982 111.179C42.8571 111.504 42.9365 111.892 42.9365 112.343V112.35C42.9365 112.798 42.8571 113.185 42.6982 113.511C42.542 113.836 42.3193 114.087 42.0303 114.264C41.7412 114.439 41.3962 114.526 40.9951 114.526ZM40.9951 113.925C41.2607 113.925 41.486 113.862 41.6709 113.737C41.8558 113.612 41.9964 113.432 42.0928 113.198C42.1917 112.964 42.2412 112.681 42.2412 112.35V112.343C42.2412 112.009 42.1917 111.725 42.0928 111.491C41.9964 111.257 41.8558 111.078 41.6709 110.956C41.486 110.831 41.2607 110.768 40.9951 110.768C40.7295 110.768 40.5042 110.831 40.3193 110.956C40.1344 111.078 39.9925 111.257 39.8936 111.491C39.7972 111.725 39.749 112.009 39.749 112.343V112.35C39.749 112.681 39.7972 112.964 39.8936 113.198C39.9925 113.432 40.1344 113.612 40.3193 113.737C40.5042 113.862 40.7295 113.925 40.9951 113.925ZM47.0014 114.526C46.6837 114.526 46.4167 114.466 46.2006 114.346C45.9844 114.224 45.8217 114.047 45.7123 113.815C45.6055 113.581 45.5522 113.298 45.5522 112.968V110.241H46.2318V112.804C46.2318 113.181 46.3048 113.462 46.4506 113.647C46.599 113.832 46.8412 113.925 47.1772 113.925C47.362 113.925 47.5248 113.897 47.6654 113.843C47.8087 113.788 47.9285 113.71 48.0248 113.608C48.1212 113.504 48.1928 113.379 48.2397 113.233C48.2891 113.085 48.3139 112.918 48.3139 112.733V110.241H48.9936V114.452H48.3139V113.823H48.2514C48.1837 113.971 48.0912 114.099 47.974 114.206C47.8568 114.31 47.7162 114.389 47.5522 114.444C47.3907 114.499 47.2071 114.526 47.0014 114.526ZM51.8631 114.452V110.241H52.5428V110.866H52.6053C52.686 110.645 52.8227 110.473 53.0154 110.35C53.2081 110.228 53.4464 110.167 53.7303 110.167C53.7954 110.167 53.8592 110.171 53.9217 110.179C53.9868 110.184 54.0363 110.189 54.0701 110.194V110.854C53.9998 110.841 53.9308 110.832 53.8631 110.827C53.798 110.819 53.7277 110.815 53.6521 110.815C53.436 110.815 53.2446 110.858 53.0779 110.944C52.9113 111.03 52.7798 111.15 52.6834 111.304C52.5896 111.457 52.5428 111.637 52.5428 111.843V114.452H51.8631ZM60.7975 114.452V113.831H62.5396C62.9641 113.831 63.2857 113.746 63.5045 113.577C63.7232 113.408 63.8326 113.162 63.8326 112.839V112.831C63.8326 112.615 63.7818 112.434 63.6803 112.288C63.5787 112.142 63.4264 112.033 63.2232 111.96C63.0227 111.887 62.7727 111.85 62.4732 111.85H60.7975V111.245H62.274C62.7011 111.245 63.0214 111.169 63.235 111.018C63.4511 110.867 63.5592 110.643 63.5592 110.346V110.339C63.5592 110.052 63.4615 109.831 63.2662 109.675C63.0735 109.516 62.8027 109.436 62.4537 109.436H60.7975V108.815H62.6021C62.9485 108.815 63.2454 108.873 63.4928 108.987C63.7428 109.102 63.9342 109.264 64.067 109.475C64.2024 109.684 64.2701 109.931 64.2701 110.218V110.225C64.2701 110.421 64.2258 110.604 64.1373 110.776C64.0514 110.948 63.9355 111.093 63.7896 111.21C63.6438 111.327 63.4798 111.402 63.2975 111.436V111.499C63.5553 111.53 63.7779 111.607 63.9654 111.729C64.1529 111.852 64.2975 112.011 64.399 112.206C64.5032 112.399 64.5553 112.619 64.5553 112.866V112.874C64.5553 113.202 64.4785 113.484 64.3248 113.721C64.1738 113.956 63.9563 114.137 63.6725 114.264C63.3886 114.389 63.0462 114.452 62.6451 114.452H60.7975ZM60.4459 114.452V108.815H61.149V114.452H60.4459ZM68.9365 114.526C68.5355 114.526 68.1904 114.438 67.9014 114.261C67.6149 114.083 67.3936 113.833 67.2373 113.511C67.0837 113.185 67.0068 112.802 67.0068 112.362V112.358C67.0068 111.923 67.0837 111.542 67.2373 111.214C67.3936 110.886 67.6136 110.629 67.8975 110.444C68.1813 110.259 68.5133 110.167 68.8936 110.167C69.2764 110.167 69.6045 110.255 69.8779 110.432C70.154 110.609 70.3649 110.857 70.5107 111.175C70.6592 111.49 70.7334 111.857 70.7334 112.276V112.542H67.3584V111.999H70.3857L70.0498 112.495V112.225C70.0498 111.895 70.0003 111.623 69.9014 111.409C69.8024 111.195 69.6657 111.037 69.4912 110.932C69.3167 110.826 69.1162 110.772 68.8896 110.772C68.6631 110.772 68.46 110.828 68.2803 110.94C68.1032 111.05 67.9626 111.212 67.8584 111.429C67.7542 111.645 67.7021 111.91 67.7021 112.225V112.495C67.7021 112.794 67.7529 113.051 67.8545 113.264C67.9561 113.475 68.1006 113.638 68.2881 113.753C68.4756 113.865 68.6969 113.921 68.9521 113.921C69.1423 113.921 69.3076 113.895 69.4482 113.843C69.5889 113.79 69.7048 113.724 69.7959 113.643C69.887 113.563 69.9508 113.481 69.9873 113.397L70.0029 113.362H70.6826L70.6748 113.393C70.6383 113.537 70.5732 113.676 70.4795 113.811C70.3883 113.944 70.2699 114.065 70.124 114.175C69.9782 114.281 69.805 114.367 69.6045 114.432C69.4066 114.495 69.1839 114.526 68.9365 114.526ZM74.8334 114.526C74.5209 114.526 74.2449 114.479 74.0053 114.386C73.7657 114.289 73.573 114.155 73.4272 113.983C73.2839 113.811 73.1993 113.609 73.1732 113.378H73.8686C73.9259 113.552 74.0378 113.693 74.2045 113.8C74.3712 113.906 74.5886 113.96 74.8568 113.96C75.0469 113.96 75.2136 113.932 75.3568 113.878C75.5027 113.82 75.6173 113.744 75.7006 113.647C75.7839 113.548 75.8256 113.435 75.8256 113.307V113.3C75.8256 113.156 75.7683 113.035 75.6537 112.936C75.5391 112.835 75.3516 112.753 75.0912 112.69L74.4389 112.534C74.1759 112.471 73.9597 112.391 73.7904 112.292C73.6212 112.19 73.4962 112.067 73.4154 111.921C73.3347 111.772 73.2943 111.598 73.2943 111.397V111.393C73.2943 111.159 73.3621 110.949 73.4975 110.764C73.6355 110.58 73.823 110.434 74.06 110.327C74.2969 110.22 74.5639 110.167 74.8607 110.167C75.155 110.167 75.4154 110.214 75.642 110.307C75.8712 110.399 76.0548 110.529 76.1928 110.698C76.3334 110.867 76.4193 111.067 76.4506 111.296H75.7826C75.7384 111.129 75.6368 110.994 75.4779 110.889C75.3191 110.785 75.1121 110.733 74.8568 110.733C74.6902 110.733 74.5417 110.761 74.4115 110.815C74.2813 110.867 74.1785 110.94 74.1029 111.034C74.0274 111.128 73.9897 111.237 73.9897 111.362V111.37C73.9897 111.464 74.0144 111.547 74.0639 111.62C74.1134 111.693 74.1902 111.757 74.2943 111.811C74.3985 111.866 74.5326 111.914 74.6967 111.956L75.3451 112.112C75.741 112.208 76.0352 112.346 76.2279 112.526C76.4232 112.706 76.5209 112.947 76.5209 113.249V113.257C76.5209 113.507 76.4467 113.728 76.2982 113.921C76.1498 114.111 75.948 114.259 75.6928 114.366C75.4402 114.473 75.1537 114.526 74.8334 114.526ZM80.6326 114.483C80.2003 114.483 79.8865 114.396 79.6912 114.221C79.4985 114.047 79.4021 113.759 79.4021 113.358V110.804H78.7381V110.241H79.4021V109.151H80.1053V110.241H81.0271V110.804H80.1053V113.186C80.1053 113.434 80.1521 113.612 80.2459 113.721C80.3396 113.828 80.4959 113.882 80.7146 113.882C80.7745 113.882 80.8253 113.88 80.867 113.878C80.9113 113.875 80.9646 113.871 81.0271 113.866V114.444C80.962 114.455 80.8969 114.464 80.8318 114.471C80.7667 114.479 80.7003 114.483 80.6326 114.483ZM87.5787 114.452V108.815H88.2623L91.4928 113.448L91.024 113.202H91.3834V108.815H92.0787V114.452H91.3951L88.1646 109.835L88.6334 110.081H88.274V114.452H87.5787ZM96.749 114.526C96.348 114.526 96.0029 114.438 95.7139 114.261C95.4274 114.083 95.2061 113.833 95.0498 113.511C94.8962 113.185 94.8193 112.802 94.8193 112.362V112.358C94.8193 111.923 94.8962 111.542 95.0498 111.214C95.2061 110.886 95.4261 110.629 95.71 110.444C95.9938 110.259 96.3258 110.167 96.7061 110.167C97.0889 110.167 97.417 110.255 97.6904 110.432C97.9665 110.609 98.1774 110.857 98.3232 111.175C98.4717 111.49 98.5459 111.857 98.5459 112.276V112.542H95.1709V111.999H98.1982L97.8623 112.495V112.225C97.8623 111.895 97.8128 111.623 97.7139 111.409C97.6149 111.195 97.4782 111.037 97.3037 110.932C97.1292 110.826 96.9287 110.772 96.7021 110.772C96.4756 110.772 96.2725 110.828 96.0928 110.94C95.9157 111.05 95.7751 111.212 95.6709 111.429C95.5667 111.645 95.5146 111.91 95.5146 112.225V112.495C95.5146 112.794 95.5654 113.051 95.667 113.264C95.7686 113.475 95.9131 113.638 96.1006 113.753C96.2881 113.865 96.5094 113.921 96.7646 113.921C96.9548 113.921 97.1201 113.895 97.2607 113.843C97.4014 113.79 97.5173 113.724 97.6084 113.643C97.6995 113.563 97.7633 113.481 97.7998 113.397L97.8154 113.362H98.4951L98.4873 113.393C98.4508 113.537 98.3857 113.676 98.292 113.811C98.2008 113.944 98.0824 114.065 97.9365 114.175C97.7907 114.281 97.6175 114.367 97.417 114.432C97.2191 114.495 96.9964 114.526 96.749 114.526ZM101.216 114.452V110.241H101.896V114.452H101.216ZM101.56 109.429C101.432 109.429 101.322 109.383 101.228 109.292C101.137 109.198 101.091 109.087 101.091 108.96C101.091 108.83 101.137 108.719 101.228 108.628C101.322 108.537 101.432 108.491 101.56 108.491C101.69 108.491 101.801 108.537 101.892 108.628C101.983 108.719 102.029 108.83 102.029 108.96C102.029 109.087 101.983 109.198 101.892 109.292C101.801 109.383 101.69 109.429 101.56 109.429ZM106.512 115.936C106.173 115.936 105.877 115.888 105.625 115.792C105.372 115.698 105.17 115.564 105.019 115.389C104.871 115.218 104.778 115.017 104.742 114.788L104.75 114.784H105.453L105.457 114.788C105.493 114.947 105.603 115.077 105.785 115.179C105.967 115.283 106.209 115.335 106.512 115.335C106.889 115.335 107.183 115.249 107.394 115.077C107.608 114.908 107.715 114.668 107.715 114.358V113.507H107.652C107.564 113.66 107.453 113.792 107.32 113.901C107.187 114.011 107.038 114.094 106.871 114.151C106.704 114.206 106.525 114.233 106.332 114.233C105.97 114.233 105.656 114.147 105.39 113.975C105.127 113.801 104.924 113.561 104.781 113.257C104.638 112.952 104.566 112.603 104.566 112.21V112.202C104.566 111.809 104.638 111.46 104.781 111.155C104.927 110.848 105.133 110.607 105.398 110.432C105.664 110.255 105.98 110.167 106.347 110.167C106.545 110.167 106.728 110.198 106.894 110.261C107.061 110.323 107.208 110.412 107.336 110.526C107.466 110.641 107.574 110.777 107.66 110.936H107.707V110.241H108.387V114.393C108.387 114.706 108.31 114.978 108.156 115.21C108.005 115.442 107.789 115.62 107.508 115.745C107.226 115.873 106.894 115.936 106.512 115.936ZM106.48 113.632C106.741 113.632 106.963 113.572 107.148 113.452C107.336 113.33 107.479 113.162 107.578 112.948C107.679 112.734 107.73 112.488 107.73 112.21V112.202C107.73 111.923 107.679 111.676 107.578 111.46C107.479 111.244 107.336 111.074 107.148 110.952C106.963 110.83 106.741 110.768 106.48 110.768C106.22 110.768 105.999 110.83 105.816 110.952C105.637 111.074 105.499 111.244 105.402 111.46C105.308 111.676 105.262 111.923 105.262 112.202V112.21C105.262 112.488 105.308 112.734 105.402 112.948C105.499 113.162 105.637 113.33 105.816 113.452C105.999 113.572 106.22 113.632 106.48 113.632ZM111.291 114.452V108.569H111.971V110.874H112.033C112.14 110.65 112.294 110.477 112.494 110.354C112.695 110.229 112.95 110.167 113.26 110.167C113.575 110.167 113.842 110.228 114.061 110.35C114.279 110.47 114.446 110.646 114.561 110.878C114.675 111.109 114.733 111.392 114.733 111.725V114.452H114.053V111.889C114.053 111.509 113.972 111.228 113.811 111.046C113.652 110.861 113.404 110.768 113.069 110.768C112.845 110.768 112.651 110.817 112.487 110.913C112.322 111.009 112.195 111.146 112.104 111.323C112.015 111.5 111.971 111.712 111.971 111.96V114.452H111.291ZM119.657 114.526C119.462 114.526 119.281 114.496 119.114 114.436C118.947 114.376 118.799 114.292 118.669 114.182C118.538 114.07 118.43 113.936 118.344 113.78H118.282V114.452H117.602V108.569H118.282V110.905H118.344C118.422 110.754 118.527 110.624 118.657 110.514C118.79 110.405 118.941 110.32 119.11 110.261C119.282 110.198 119.464 110.167 119.657 110.167C120.014 110.167 120.324 110.257 120.587 110.436C120.852 110.616 121.058 110.869 121.204 111.194C121.35 111.52 121.422 111.902 121.422 112.343V112.35C121.422 112.788 121.35 113.171 121.204 113.499C121.058 113.824 120.852 114.077 120.587 114.257C120.324 114.436 120.014 114.526 119.657 114.526ZM119.501 113.925C119.758 113.925 119.978 113.862 120.161 113.737C120.343 113.609 120.482 113.429 120.579 113.194C120.678 112.957 120.727 112.676 120.727 112.35V112.343C120.727 112.014 120.678 111.733 120.579 111.499C120.482 111.264 120.343 111.085 120.161 110.96C119.978 110.832 119.758 110.768 119.501 110.768C119.245 110.768 119.025 110.832 118.84 110.96C118.656 111.087 118.514 111.268 118.415 111.503C118.316 111.737 118.266 112.017 118.266 112.343V112.35C118.266 112.673 118.316 112.953 118.415 113.19C118.514 113.425 118.656 113.606 118.84 113.733C119.025 113.861 119.245 113.925 119.501 113.925ZM125.808 114.526C125.409 114.526 125.064 114.439 124.772 114.264C124.483 114.087 124.259 113.836 124.101 113.511C123.944 113.185 123.866 112.798 123.866 112.35V112.343C123.866 111.892 123.944 111.504 124.101 111.179C124.259 110.853 124.483 110.603 124.772 110.429C125.064 110.254 125.409 110.167 125.808 110.167C126.209 110.167 126.554 110.254 126.843 110.429C127.132 110.603 127.354 110.853 127.511 111.179C127.67 111.504 127.749 111.892 127.749 112.343V112.35C127.749 112.798 127.67 113.185 127.511 113.511C127.354 113.836 127.132 114.087 126.843 114.264C126.554 114.439 126.209 114.526 125.808 114.526ZM125.808 113.925C126.073 113.925 126.299 113.862 126.483 113.737C126.668 113.612 126.809 113.432 126.905 113.198C127.004 112.964 127.054 112.681 127.054 112.35V112.343C127.054 112.009 127.004 111.725 126.905 111.491C126.809 111.257 126.668 111.078 126.483 110.956C126.299 110.831 126.073 110.768 125.808 110.768C125.542 110.768 125.317 110.831 125.132 110.956C124.947 111.078 124.805 111.257 124.706 111.491C124.61 111.725 124.562 112.009 124.562 112.343V112.35C124.562 112.681 124.61 112.964 124.706 113.198C124.805 113.432 124.947 113.612 125.132 113.737C125.317 113.862 125.542 113.925 125.808 113.925ZM131.814 114.526C131.496 114.526 131.229 114.466 131.013 114.346C130.797 114.224 130.634 114.047 130.525 113.815C130.418 113.581 130.365 113.298 130.365 112.968V110.241H131.044V112.804C131.044 113.181 131.117 113.462 131.263 113.647C131.412 113.832 131.654 113.925 131.99 113.925C132.175 113.925 132.337 113.897 132.478 113.843C132.621 113.788 132.741 113.71 132.837 113.608C132.934 113.504 133.005 113.379 133.052 113.233C133.102 113.085 133.126 112.918 133.126 112.733V110.241H133.806V114.452H133.126V113.823H133.064C132.996 113.971 132.904 114.099 132.787 114.206C132.669 114.31 132.529 114.389 132.365 114.444C132.203 114.499 132.02 114.526 131.814 114.526ZM136.676 114.452V110.241H137.355V110.866H137.418C137.499 110.645 137.635 110.473 137.828 110.35C138.021 110.228 138.259 110.167 138.543 110.167C138.608 110.167 138.672 110.171 138.734 110.179C138.799 110.184 138.849 110.189 138.883 110.194V110.854C138.812 110.841 138.743 110.832 138.676 110.827C138.61 110.819 138.54 110.815 138.465 110.815C138.249 110.815 138.057 110.858 137.89 110.944C137.724 111.03 137.592 111.15 137.496 111.304C137.402 111.457 137.355 111.637 137.355 111.843V114.452H136.676Z" fill="white"/>
</svg>
