<svg width="16" height="16" viewBox="0 0 16 16" fill="none" xmlns="http://www.w3.org/2000/svg">
<g clip-path="url(#clip0_588_14720)">
<path d="M2.81312 7.6841L9.14087 1.3427C9.87455 0.624349 10.8619 0.224317 11.8887 0.229418C12.9155 0.23452 13.8988 0.644343 14.6253 1.36995C15.3518 2.09555 15.7629 3.07839 15.7692 4.10517C15.7756 5.13194 15.3768 6.11981 14.6594 6.85437L13.2193 8.34515L8.33844 13.226L6.85352 14.6612C6.11895 15.3786 5.13109 15.7774 4.10431 15.7711C3.07754 15.7647 2.0947 15.3537 1.36909 14.6272C0.643488 13.9007 0.233665 12.9173 0.228564 11.8905C0.223462 10.8637 0.623494 9.87638 1.34184 9.1427L1.34282 9.14075L2.81019 7.68605L2.81117 7.6841H2.81312ZM8.38037 4.89755C8.33511 4.85222 8.28136 4.81626 8.2222 4.7917C8.16304 4.76715 8.09962 4.75448 8.03556 4.75444C7.97151 4.75439 7.90807 4.76697 7.84888 4.79144C7.78968 4.81591 7.73588 4.8518 7.69056 4.89706C7.64523 4.94232 7.60926 4.99607 7.58471 5.05523C7.56015 5.11439 7.54749 5.17781 7.54745 5.24187C7.5474 5.30592 7.55997 5.36936 7.58445 5.42855C7.60892 5.48775 7.64481 5.54155 7.69007 5.58687C7.78201 5.67568 7.90516 5.72481 8.03298 5.7237C8.1608 5.72259 8.28307 5.67132 8.37346 5.58094C8.46384 5.49055 8.51511 5.36828 8.51622 5.24046C8.51733 5.11264 8.4682 4.98949 8.37939 4.89755H8.38037ZM6.99977 6.96552C7.04633 6.92055 7.08347 6.86676 7.10902 6.80728C7.13457 6.74781 7.14802 6.68384 7.14858 6.61911C7.14914 6.55438 7.13681 6.49018 7.11229 6.43027C7.08778 6.37036 7.05158 6.31593 7.00581 6.27016C6.96004 6.22438 6.90561 6.18818 6.8457 6.16367C6.78578 6.13916 6.72159 6.12683 6.65686 6.12739C6.59213 6.12795 6.52816 6.1414 6.46868 6.16695C6.40921 6.1925 6.35541 6.22964 6.31044 6.2762C6.22164 6.36814 6.17251 6.49129 6.17362 6.61911C6.17473 6.74693 6.226 6.8692 6.31638 6.95959C6.40677 7.04997 6.52904 7.10124 6.65686 7.10235C6.78468 7.10346 6.90783 7.05433 6.99977 6.96552ZM5.62112 8.34515C5.71266 8.25374 5.76414 8.12971 5.76423 8.00034C5.76432 7.87098 5.71302 7.74688 5.62161 7.65534C5.5302 7.5638 5.40617 7.51232 5.2768 7.51223C5.14744 7.51214 5.02333 7.56344 4.93179 7.65485C4.88647 7.70011 4.8505 7.75386 4.82595 7.81302C4.80139 7.87218 4.78873 7.9356 4.78869 7.99965C4.78859 8.12902 4.8399 8.25312 4.93131 8.34466C5.02272 8.4362 5.14675 8.48768 5.27611 8.48777C5.40548 8.48786 5.52958 8.43656 5.62112 8.34515ZM8.37842 11.1024C8.42498 11.0575 8.46212 11.0037 8.48767 10.9442C8.51322 10.8847 8.52667 10.8208 8.52723 10.756C8.52779 10.6913 8.51546 10.6271 8.49094 10.5672C8.46643 10.5073 8.43023 10.4529 8.38446 10.4071C8.33869 10.3613 8.28426 10.3251 8.22435 10.3006C8.16443 10.2761 8.10024 10.2638 8.03551 10.2643C7.97078 10.2649 7.90681 10.2783 7.84733 10.3039C7.78786 10.3294 7.73406 10.3666 7.68909 10.4131C7.60029 10.5051 7.55115 10.6282 7.55227 10.756C7.55338 10.8839 7.60465 11.0061 7.69503 11.0965C7.78542 11.1869 7.90769 11.2382 8.03551 11.2393C8.16333 11.2404 8.28648 11.1913 8.37842 11.1024ZM9.75707 9.03447C9.7121 8.98791 9.65831 8.95077 9.59883 8.92522C9.53935 8.89967 9.47538 8.88623 9.41065 8.88566C9.34592 8.8851 9.28173 8.89744 9.22182 8.92195C9.1619 8.94646 9.10747 8.98266 9.0617 9.02843C9.01593 9.0742 8.97973 9.12863 8.95522 9.18855C8.93071 9.24846 8.91837 9.31265 8.91893 9.37738C8.9195 9.44211 8.93295 9.50608 8.9585 9.56556C8.98404 9.62504 9.02118 9.67883 9.06774 9.7238C9.15969 9.8126 9.28283 9.86174 9.41065 9.86063C9.53847 9.85952 9.66074 9.80825 9.75113 9.71786C9.84152 9.62747 9.89279 9.5052 9.8939 9.37738C9.89501 9.24956 9.84587 9.12642 9.75707 9.03447ZM11.1357 8.34515C11.1823 8.30024 11.2196 8.2465 11.2452 8.18706C11.2708 8.12762 11.2843 8.06367 11.285 7.99895C11.2857 7.93422 11.2734 7.87001 11.249 7.81007C11.2246 7.75012 11.1884 7.69565 11.1427 7.64981C11.097 7.60397 11.0426 7.5677 10.9828 7.5431C10.9229 7.51851 10.8587 7.50608 10.794 7.50655C10.7293 7.50702 10.6653 7.52037 10.6058 7.54583C10.5463 7.5713 10.4924 7.60836 10.4474 7.65485C10.3558 7.74626 10.3044 7.87029 10.3043 7.99965C10.3042 8.12902 10.3555 8.25312 10.4469 8.34466C10.5383 8.4362 10.6623 8.48768 10.7917 8.48777C10.9211 8.48786 11.0452 8.43656 11.1367 8.34515H11.1357ZM6.99977 9.03447C6.9548 8.98791 6.90101 8.95077 6.84153 8.92522C6.78205 8.89967 6.71808 8.88623 6.65335 8.88566C6.58862 8.8851 6.52443 8.89744 6.46452 8.92195C6.4046 8.94646 6.35017 8.98266 6.3044 9.02843C6.25863 9.0742 6.22243 9.12863 6.19792 9.18855C6.17341 9.24846 6.16107 9.31265 6.16163 9.37738C6.1622 9.44211 6.17565 9.50608 6.20119 9.56556C6.22674 9.62504 6.26388 9.67883 6.31044 9.7238C6.40239 9.8126 6.52553 9.86174 6.65335 9.86063C6.78117 9.85952 6.90344 9.80825 6.99383 9.71786C7.08422 9.62747 7.13549 9.5052 7.1366 9.37738C7.13771 9.24956 7.08857 9.12642 6.99977 9.03447ZM8.37842 8.34515C8.42374 8.29989 8.45971 8.24614 8.48427 8.18698C8.50882 8.12782 8.52148 8.0644 8.52153 8.00034C8.52157 7.93629 8.509 7.87285 8.48453 7.81365C8.46006 7.75446 8.42417 7.70066 8.37891 7.65534C8.33364 7.61001 8.2799 7.57404 8.22074 7.54949C8.16157 7.52493 8.09816 7.51227 8.0341 7.51223C7.97005 7.51218 7.90661 7.52475 7.84741 7.54922C7.78822 7.5737 7.73442 7.60959 7.68909 7.65485C7.59756 7.74626 7.54608 7.87029 7.54599 7.99965C7.54589 8.12902 7.5972 8.25312 7.68861 8.34466C7.78002 8.4362 7.90405 8.48768 8.03341 8.48777C8.16278 8.48786 8.28688 8.43656 8.37842 8.34515ZM9.75707 6.2762C9.7121 6.22964 9.65831 6.1925 9.59883 6.16695C9.53935 6.1414 9.47538 6.12795 9.41065 6.12739C9.34592 6.12683 9.28173 6.13916 9.22182 6.16367C9.1619 6.18818 9.10747 6.22438 9.0617 6.27016C9.01593 6.31593 8.97973 6.37036 8.95522 6.43027C8.93071 6.49018 8.91837 6.55438 8.91893 6.61911C8.9195 6.68384 8.93295 6.74781 8.9585 6.80728C8.98404 6.86676 9.02118 6.92055 9.06774 6.96552C9.15969 7.05433 9.28283 7.10346 9.41065 7.10235C9.53847 7.10124 9.66074 7.04997 9.75113 6.95959C9.84152 6.8692 9.89279 6.74693 9.8939 6.61911C9.89501 6.49129 9.84587 6.36814 9.75707 6.2762ZM8.62997 3.47015L12.53 7.37015L13.2203 6.67985L9.32027 2.77985L8.62997 3.47015ZM7.37027 12.5298L3.47027 8.62985L2.77997 9.32015L6.67997 13.2201L7.37027 12.5298Z" fill="black"/>
</g>
<defs>
<clipPath id="clip0_588_14720">
<rect width="15.6" height="15.6" fill="white" transform="translate(0.200195 0.200012)"/>
</clipPath>
</defs>
</svg>
