<svg width="16" height="16" viewBox="0 0 16 16" fill="none" xmlns="http://www.w3.org/2000/svg">
<path d="M2.47998 3.31999C2.47998 2.17599 3.41598 1.23999 4.55998 1.23999H11.84C12.984 1.23999 13.92 2.17599 13.92 3.31999V11.64C13.92 12.68 12.88 12.68 12.88 12.68V13.72C12.88 14.292 12.412 14.76 11.84 14.76C11.268 14.76 10.8 14.292 10.8 13.72V12.68H5.59998V13.72C5.59998 14.292 5.13198 14.76 4.55998 14.76C3.98798 14.76 3.51998 14.292 3.51998 13.72V12.68C2.47998 12.68 2.47998 11.64 2.47998 11.64V3.31999ZM4.03998 4.35999C3.74878 4.35999 3.51998 4.58879 3.51998 4.87999V7.99999C3.51998 8.29119 3.74878 8.51999 4.03998 8.51999H12.36C12.6512 8.51999 12.88 8.29119 12.88 7.99999V4.87999C12.88 4.58879 12.6512 4.35999 12.36 4.35999H4.03998ZM4.55998 9.55999C3.98798 9.55999 3.51998 10.028 3.51998 10.6C3.51998 11.172 3.98798 11.64 4.55998 11.64C5.13198 11.64 5.59998 11.172 5.59998 10.6C5.59998 10.028 5.13198 9.55999 4.55998 9.55999ZM11.84 9.55999C11.268 9.55999 10.8 10.028 10.8 10.6C10.8 11.172 11.268 11.64 11.84 11.64C12.412 11.64 12.88 11.172 12.88 10.6C12.88 10.028 12.412 9.55999 11.84 9.55999ZM4.55998 2.79999C4.55998 3.09119 4.78878 3.31999 5.07998 3.31999H11.32C11.6112 3.31999 11.84 3.09119 11.84 2.79999C11.84 2.50879 11.6112 2.27999 11.32 2.27999H5.07998C4.78878 2.27999 4.55998 2.50879 4.55998 2.79999Z" fill="black"/>
</svg>
