<svg width="16" height="16" viewBox="0 0 16 16" fill="none" xmlns="http://www.w3.org/2000/svg">
<path d="M5.72008 7.47999C5.03052 7.47999 4.36919 7.20606 3.8816 6.71847C3.39401 6.23087 3.12008 5.56955 3.12008 4.87999V2.79999C3.12008 2.66208 3.17486 2.52981 3.27238 2.43229C3.3699 2.33478 3.50217 2.27999 3.64008 2.27999H4.16008C4.29799 2.27999 4.43025 2.2252 4.52777 2.12769C4.62529 2.03017 4.68008 1.8979 4.68008 1.75999C4.68008 1.62208 4.62529 1.48981 4.52777 1.39229C4.43025 1.29478 4.29799 1.23999 4.16008 1.23999H3.64008C3.22634 1.23999 2.82955 1.40435 2.53699 1.6969C2.24443 1.98946 2.08008 2.38625 2.08008 2.79999V4.87999C2.08075 5.46745 2.224 6.04598 2.49753 6.56587C2.77107 7.08577 3.16671 7.5315 3.65048 7.86479C4.11574 8.27417 4.49299 8.77379 4.75936 9.33335C5.02573 9.89291 5.17567 10.5007 5.20008 11.12C5.20008 12.0854 5.58358 13.0112 6.26621 13.6939C6.94884 14.3765 7.87469 14.76 8.84008 14.76C9.80547 14.76 10.7313 14.3765 11.4139 13.6939C12.0966 13.0112 12.4801 12.0854 12.4801 11.12V10.5272C12.9703 10.4006 13.3975 10.0996 13.6816 9.68063C13.9657 9.26162 14.0873 8.75337 14.0235 8.25115C13.9597 7.74893 13.7149 7.28721 13.3351 6.95254C12.9552 6.61788 12.4663 6.43324 11.9601 6.43324C11.4538 6.43324 10.9649 6.61788 10.5851 6.95254C10.2052 7.28721 9.96045 7.74893 9.89666 8.25115C9.83287 8.75337 9.95443 9.26162 10.2386 9.68063C10.5227 10.0996 10.9499 10.4006 11.4401 10.5272V11.12C11.4401 11.8096 11.1662 12.4709 10.6786 12.9585C10.191 13.4461 9.52964 13.72 8.84008 13.72C8.15052 13.72 7.48919 13.4461 7.0016 12.9585C6.51401 12.4709 6.24008 11.8096 6.24008 11.12C6.2658 10.5 6.41736 9.89167 6.68554 9.33207C6.95372 8.77247 7.33292 8.27325 7.80008 7.86479C8.28193 7.53034 8.67554 7.08411 8.94723 6.56428C9.21891 6.04446 9.36057 5.46653 9.36008 4.87999V2.79999C9.36008 2.38625 9.19572 1.98946 8.90316 1.6969C8.61061 1.40435 8.21382 1.23999 7.80008 1.23999H7.28008C7.14217 1.23999 7.0099 1.29478 6.91238 1.39229C6.81486 1.48981 6.76008 1.62208 6.76008 1.75999C6.76008 1.8979 6.81486 2.03017 6.91238 2.12769C7.0099 2.2252 7.14217 2.27999 7.28008 2.27999H7.80008C7.93799 2.27999 8.07025 2.33478 8.16777 2.43229C8.26529 2.52981 8.32008 2.66208 8.32008 2.79999V4.87999C8.32008 5.22143 8.25283 5.55952 8.12216 5.87497C7.9915 6.19041 7.79999 6.47704 7.55856 6.71847C7.31712 6.9599 7.0305 7.15141 6.71505 7.28208C6.39961 7.41274 6.06151 7.47999 5.72008 7.47999ZM11.9601 9.55999C11.6843 9.55999 11.4197 9.45042 11.2247 9.25538C11.0296 9.06034 10.9201 8.79581 10.9201 8.51999C10.9201 8.24416 11.0296 7.97964 11.2247 7.7846C11.4197 7.58956 11.6843 7.47999 11.9601 7.47999C12.2359 7.47999 12.5004 7.58956 12.6955 7.7846C12.8905 7.97964 13.0001 8.24416 13.0001 8.51999C13.0001 8.79581 12.8905 9.06034 12.6955 9.25538C12.5004 9.45042 12.2359 9.55999 11.9601 9.55999Z" fill="black"/>
</svg>
