<svg width="17" height="16" viewBox="0 0 17 16" fill="none" xmlns="http://www.w3.org/2000/svg">
<g clip-path="url(#clip0_588_14727)">
<path d="M8.7251 3.45004C8.3676 3.45004 8.06166 3.32286 7.8073 3.06849C7.55293 2.81412 7.42553 2.50797 7.4251 2.15004C7.42466 1.79211 7.55206 1.48617 7.8073 1.23224C8.06253 0.978308 8.36846 0.850908 8.7251 0.850041C9.08173 0.849174 9.38788 0.976574 9.64355 1.23224C9.89921 1.48791 10.0264 1.79384 10.0251 2.15004C10.0238 2.50624 9.89661 2.81239 9.64355 3.06849C9.39048 3.32459 9.08433 3.45177 8.7251 3.45004ZM11.3251 9.13754C11.2384 9.13754 11.1626 9.10504 11.0976 9.04004C11.0326 8.97504 11.0001 8.89921 11.0001 8.81254V8.50379C10.4151 8.25462 9.9601 7.97577 9.6351 7.66724C9.3101 7.35871 9.02301 6.94422 8.77385 6.42379C8.65468 6.72712 8.56 7.09827 8.4898 7.53724C8.4196 7.97621 8.39511 8.39047 8.41635 8.78004L9.58635 10.4375C9.62968 10.4917 9.65958 10.5513 9.67605 10.6163C9.69251 10.6813 9.70053 10.7463 9.7001 10.8113V14.175C9.7001 14.3592 9.6377 14.5137 9.5129 14.6385C9.3881 14.7633 9.23383 14.8255 9.0501 14.825C8.86636 14.8246 8.7121 14.7622 8.5873 14.6378C8.4625 14.5135 8.4001 14.3592 8.4001 14.175V11.575L7.24635 9.91754L7.11635 12.03C7.11635 12.0734 7.07301 12.1925 6.98635 12.3875L5.5401 14.305C5.43176 14.4567 5.29093 14.5434 5.1176 14.565C4.94426 14.5867 4.78176 14.5434 4.6301 14.435C4.47843 14.3267 4.39176 14.1859 4.3701 14.0125C4.34843 13.8392 4.39176 13.6767 4.5001 13.525L5.8001 11.7863V8.32504C5.8001 7.98921 5.82718 7.62369 5.88135 7.22849C5.93551 6.83329 6.01676 6.46756 6.1251 6.13129L5.1501 6.66754V8.32504C5.1501 8.50921 5.0877 8.66369 4.9629 8.78849C4.8381 8.91329 4.68383 8.97547 4.5001 8.97504C4.31636 8.97461 4.1621 8.91221 4.0373 8.78784C3.9125 8.66347 3.8501 8.50921 3.8501 8.32504V6.29379C3.8501 6.17462 3.87718 6.06347 3.93135 5.96034C3.98551 5.85721 4.06676 5.77877 4.1751 5.72504L6.7101 4.29504C6.98093 4.14337 7.21666 4.02702 7.4173 3.94599C7.61793 3.86496 7.8047 3.82422 7.9776 3.82379C8.24843 3.82379 8.495 3.94036 8.7173 4.17349C8.9396 4.40662 9.19678 4.77214 9.48885 5.27004C9.83552 5.85504 10.1497 6.29379 10.4313 6.58629C10.713 6.87879 11.0163 7.10087 11.3413 7.25254C11.4605 7.16587 11.5634 7.10629 11.6501 7.07379C11.7368 7.04129 11.8397 7.02504 11.9588 7.02504C12.2297 7.02504 12.4626 7.12254 12.6576 7.31754C12.8526 7.51254 12.9501 7.74004 12.9501 8.00004V14.5C12.9501 14.5867 12.9176 14.6625 12.8526 14.7275C12.7876 14.7925 12.7118 14.825 12.6251 14.825C12.5384 14.825 12.4626 14.7925 12.3976 14.7275C12.3326 14.6625 12.3001 14.5867 12.3001 14.5V8.00004C12.3001 7.91337 12.2676 7.83754 12.2026 7.77254C12.1376 7.70754 12.0618 7.67504 11.9751 7.67504C11.8884 7.67504 11.8126 7.70754 11.7476 7.77254C11.6826 7.83754 11.6501 7.91337 11.6501 8.00004V8.81254C11.6501 8.89921 11.6176 8.97504 11.5526 9.04004C11.4876 9.10504 11.4118 9.13754 11.3251 9.13754Z" fill="black"/>
</g>
<defs>
<clipPath id="clip0_588_14727">
<rect width="15.6" height="15.6" fill="white" transform="translate(0.600098 0.200012)"/>
</clipPath>
</defs>
</svg>
