<svg width="16" height="16" viewBox="0 0 16 16" fill="none" xmlns="http://www.w3.org/2000/svg">
<path d="M7.0201 2.73501L3.1201 5.66001C2.7951 5.90701 2.6001 6.29051 2.6001 6.70001V12.55C2.6001 13.265 3.1851 13.85 3.9001 13.85H11.7001C12.4151 13.85 13.0001 13.265 13.0001 12.55V6.70001C13.0001 6.29051 12.8051 5.90701 12.4801 5.66001L8.5801 2.73501C8.35465 2.56724 8.08112 2.47662 7.8001 2.47662C7.51907 2.47662 7.24554 2.56724 7.0201 2.73501ZM8.1251 8.32501C8.1251 8.86451 7.6896 9.30001 7.1501 9.30001V11.575C7.1501 11.757 7.0071 11.9 6.8251 11.9C6.6431 11.9 6.5001 11.757 6.5001 11.575V9.30001C5.9606 9.30001 5.5251 8.86451 5.5251 8.32501V6.70001C5.5251 6.51801 5.6681 6.37501 5.8501 6.37501C6.0321 6.37501 6.1751 6.51801 6.1751 6.70001V8.32501H6.5001V6.70001C6.5001 6.51801 6.6431 6.37501 6.8251 6.37501C7.0071 6.37501 7.1501 6.51801 7.1501 6.70001V8.32501H7.4751V6.70001C7.4751 6.51801 7.6181 6.37501 7.8001 6.37501C7.9821 6.37501 8.1251 6.51801 8.1251 6.70001V8.32501ZM9.4251 11.9C9.2431 11.9 9.1001 11.757 9.1001 11.575V9.62501H8.7751C8.5931 9.62501 8.4501 9.48201 8.4501 9.30001V7.67501C8.4501 7.10301 8.8206 6.61551 9.3341 6.44651C9.5356 6.37501 9.7501 6.53751 9.7501 6.75851V11.575C9.7501 11.757 9.6071 11.9 9.4251 11.9Z" fill="black"/>
</svg>
