<svg width="17" height="16" viewBox="0 0 17 16" fill="none" xmlns="http://www.w3.org/2000/svg">
<path fill-rule="evenodd" clip-rule="evenodd" d="M3.52529 2.15002C3.26671 2.15002 3.01871 2.25275 2.83586 2.4356C2.65302 2.61844 2.55029 2.86644 2.55029 3.12502V12.875C2.55029 13.1336 2.65302 13.3816 2.83586 13.5645C3.01871 13.7473 3.26671 13.85 3.52529 13.85H13.2753C13.5339 13.85 13.7819 13.7473 13.9647 13.5645C14.1476 13.3816 14.2503 13.1336 14.2503 12.875V3.12502C14.2503 2.86644 14.1476 2.61844 13.9647 2.4356C13.7819 2.25275 13.5339 2.15002 13.2753 2.15002H3.52529ZM11.0003 5.40002H10.0253V10.6H11.0003V5.40002ZM11.6503 6.37502H12.6253V7.67502H12.9503V8.32502H12.6253V9.62502H11.6503V6.37502ZM5.80029 10.6H6.77529V5.40002H5.80029V10.6ZM5.15029 9.62502H4.17529V8.32502H3.85029V7.67502H4.17529V6.37502H5.15029V9.62502ZM7.42529 8.32502H9.37529V7.67502H7.42529V8.32502Z" fill="black"/>
</svg>
