<svg width="17" height="16" viewBox="0 0 17 16" fill="none" xmlns="http://www.w3.org/2000/svg">
<path d="M8.86605 2.5751C9.31855 2.08234 9.93266 1.76806 10.597 1.68923C11.2613 1.61041 11.9319 1.77226 12.4872 2.14545L12.6042 2.22865L12.8141 2.38595C13.1007 2.60077 13.3369 2.87546 13.5064 3.19091C13.6759 3.50635 13.7746 3.85496 13.7956 4.21245L13.7995 4.35675V13.85C13.7994 14.0157 13.7359 14.175 13.6222 14.2955C13.5085 14.416 13.353 14.4885 13.1876 14.4982C13.0223 14.5079 12.8594 14.4541 12.7324 14.3477C12.6053 14.2414 12.5237 14.0906 12.5041 13.9261L12.4995 13.85V4.35675C12.4992 4.19464 12.4651 4.03437 12.3996 3.88611C12.334 3.73785 12.2383 3.60484 12.1186 3.4955L12.0341 3.42595L11.8242 3.26865C11.5845 3.08852 11.2961 2.98463 10.9966 2.97049C10.6971 2.95635 10.4002 3.0326 10.1446 3.18935L10.0451 3.25565L10.5378 3.54035C11.1143 3.87312 11.5412 4.41432 11.7306 5.05245C11.92 5.69058 11.8574 6.37704 11.5557 6.9704L11.4894 7.09195L11.1644 7.65485C11.0849 7.79275 10.9575 7.89665 10.8064 7.94685C10.6553 7.99705 10.4911 7.99006 10.3448 7.9272L10.2765 7.89275L4.64755 4.64275C4.5095 4.56317 4.40548 4.43566 4.35527 4.28443C4.30506 4.1332 4.31215 3.9688 4.3752 3.82245L4.40965 3.75485L4.73465 3.19195C5.06752 2.61557 5.60876 2.18881 6.24689 1.99956C6.88501 1.81031 7.57141 1.873 8.1647 2.1747L8.28625 2.2397L8.86605 2.5751ZM5.18705 10.2081C5.33633 10.2943 5.44527 10.4362 5.48988 10.6027C5.5345 10.7692 5.51114 10.9467 5.42495 11.096L5.09995 11.6589C5.01314 11.8069 4.87129 11.9147 4.70534 11.9585C4.5394 12.0024 4.36284 11.9789 4.2142 11.893C4.06555 11.8072 3.95688 11.6661 3.91191 11.5004C3.86694 11.3348 3.88931 11.1581 3.97415 11.0089L4.29915 10.446C4.38535 10.2967 4.52732 10.1877 4.69383 10.1431C4.86034 10.0985 5.03776 10.1219 5.18705 10.2081ZM6.63785 10.2952C6.72023 10.1505 6.85499 10.0429 7.01435 9.99465C7.17371 9.9464 7.3455 9.96114 7.49431 10.0358C7.64311 10.1105 7.75758 10.2395 7.81411 10.3961C7.87063 10.5527 7.8649 10.725 7.7981 10.8776L7.76365 10.9452L7.43865 11.5081C7.35529 11.6507 7.22074 11.7562 7.06237 11.8032C6.90399 11.8502 6.73366 11.8351 6.58599 11.7611C6.43833 11.687 6.32442 11.5594 6.2674 11.4044C6.21039 11.2493 6.21455 11.0784 6.27905 10.9263L6.31285 10.8581L6.63785 10.2952ZM4.14835 8.10725C4.29763 8.19345 4.40657 8.33542 4.45118 8.50193C4.4958 8.66845 4.47244 8.84586 4.38625 8.99515L4.06125 9.55805C4.01888 9.63257 3.96219 9.69798 3.89444 9.7505C3.82669 9.80302 3.74922 9.84162 3.6665 9.86408C3.58377 9.88654 3.49742 9.89241 3.41241 9.88136C3.3274 9.87031 3.24542 9.84256 3.17118 9.7997C3.09695 9.75684 3.03192 9.69971 2.97985 9.63162C2.92778 9.56352 2.88969 9.4858 2.86778 9.40293C2.84587 9.32005 2.84057 9.23366 2.85218 9.14873C2.8638 9.0638 2.89209 8.982 2.93545 8.90805L3.26045 8.34515C3.34665 8.19587 3.48862 8.08693 3.65513 8.04232C3.82164 7.9977 3.99906 8.02106 4.14835 8.10725ZM6.48705 7.95645C6.63633 8.04265 6.74527 8.18462 6.78988 8.35113C6.8345 8.51765 6.81114 8.69506 6.72495 8.84435L6.39995 9.40725C6.31314 9.55533 6.17129 9.66305 6.00534 9.70693C5.8394 9.7508 5.66284 9.72725 5.5142 9.64143C5.36555 9.55561 5.25688 9.41447 5.21191 9.24882C5.16694 9.08318 5.18931 8.90647 5.27415 8.75725L5.59915 8.19435C5.68535 8.04506 5.82732 7.93613 5.99383 7.89152C6.16034 7.8469 6.33776 7.87026 6.48705 7.95645ZM7.93785 8.04355C8.02023 7.89886 8.15499 7.7913 8.31435 7.74305C8.47371 7.6948 8.6455 7.70954 8.79431 7.78424C8.94311 7.85893 9.05758 7.98788 9.11411 8.1445C9.17063 8.30111 9.1649 8.47344 9.0981 8.62595L9.06365 8.69355L8.73865 9.25645C8.65553 9.3997 8.52088 9.50582 8.36218 9.55314C8.20347 9.60047 8.03269 9.58543 7.8847 9.5111C7.73671 9.43677 7.62267 9.30876 7.56586 9.1532C7.50906 8.99763 7.51377 8.82626 7.57905 8.67405L7.61285 8.60645L7.93785 8.04355ZM5.44835 5.85565C5.59763 5.94185 5.70657 6.08382 5.75118 6.25033C5.7958 6.41685 5.77244 6.59426 5.68625 6.74355L5.36125 7.30645C5.31888 7.38097 5.26219 7.44637 5.19444 7.4989C5.12669 7.55142 5.04922 7.59002 4.9665 7.61248C4.88377 7.63494 4.79742 7.64081 4.71241 7.62976C4.6274 7.61872 4.54542 7.59096 4.47118 7.5481C4.39695 7.50524 4.33192 7.44811 4.27985 7.38002C4.22778 7.31192 4.18969 7.2342 4.16778 7.15133C4.14587 7.06845 4.14057 6.98206 4.15218 6.89713C4.1638 6.8122 4.19209 6.7304 4.23545 6.65645L4.56045 6.09355C4.64665 5.94427 4.78862 5.83533 4.95513 5.79072C5.12164 5.7461 5.29906 5.76946 5.44835 5.85565Z" fill="black"/>
</svg>
