<svg width="168" height="40" viewBox="0 0 168 40" fill="none" xmlns="http://www.w3.org/2000/svg">
<path d="M10.335 18.3368C10.0217 18.0471 10.1919 17.5234 10.6156 17.4732L16.6191 16.7611C16.7918 16.7406 16.9418 16.6322 17.0146 16.4742L19.5469 10.9845C19.7256 10.597 20.2764 10.597 20.4551 10.9844L22.9873 16.4741C23.0601 16.632 23.2092 16.7408 23.3818 16.7612L29.3857 17.4732C29.8094 17.5234 29.9791 18.0472 29.6659 18.3369L25.2278 22.4419C25.1001 22.56 25.0433 22.7357 25.0771 22.9063L26.255 28.8359C26.3382 29.2544 25.8928 29.5787 25.5205 29.3703L20.2451 26.4166C20.0934 26.3317 19.9091 26.3321 19.7573 26.417L14.4814 29.3695C14.1091 29.5779 13.6629 29.2544 13.7461 28.8359L14.9241 22.9066C14.958 22.7361 14.9013 22.5599 14.7737 22.4419L10.335 18.3368Z" fill="#FFB647" stroke="#2E1F27" stroke-width="1" stroke-linecap="round" stroke-linejoin="round"/>
<path d="M42.335 18.3368C42.0217 18.0471 42.1919 17.5234 42.6156 17.4732L48.6191 16.7611C48.7918 16.7406 48.9418 16.6322 49.0146 16.4742L51.5469 10.9845C51.7256 10.597 52.2764 10.597 52.4551 10.9844L54.9873 16.4741C55.0601 16.632 55.2092 16.7408 55.3818 16.7612L61.3857 17.4732C61.8094 17.5234 61.9791 18.0472 61.6659 18.3369L57.2278 22.4419C57.1001 22.56 57.0433 22.7357 57.0771 22.9063L58.255 28.8359C58.3382 29.2544 57.8928 29.5787 57.5205 29.3703L52.2451 26.4166C52.0934 26.3317 51.9091 26.3321 51.7573 26.417L46.4814 29.3695C46.1091 29.5779 45.6629 29.2544 45.7461 28.8359L46.9241 22.9066C46.958 22.7361 46.9013 22.5599 46.7737 22.4419L42.335 18.3368Z" fill="#FFB647" stroke="#2E1F27" stroke-width="1" stroke-linecap="round" stroke-linejoin="round"/>
<path d="M74.335 18.3368C74.0217 18.0471 74.1919 17.5234 74.6156 17.4732L80.6191 16.7611C80.7918 16.7406 80.9418 16.6322 81.0146 16.4742L83.5469 10.9845C83.7256 10.597 84.2764 10.597 84.4551 10.9844L86.9873 16.4741C87.0601 16.632 87.2092 16.7408 87.3818 16.7612L93.3857 17.4732C93.8094 17.5234 93.9791 18.0472 93.6659 18.3369L89.2278 22.4419C89.1001 22.56 89.0433 22.7357 89.0771 22.9063L90.255 28.8359C90.3382 29.2544 89.8928 29.5787 89.5205 29.3703L84.2451 26.4166C84.0934 26.3317 83.9091 26.3321 83.7573 26.417L78.4814 29.3695C78.1091 29.5779 77.6629 29.2544 77.7461 28.8359L78.9241 22.9066C78.958 22.7361 78.9013 22.5599 78.7737 22.4419L74.335 18.3368Z" fill="#FFB647" stroke="#2E1F27" stroke-width="1" stroke-linecap="round" stroke-linejoin="round"/>
<path d="M106.335 18.3368C106.022 18.0471 106.192 17.5234 106.616 17.4732L112.619 16.7611C112.792 16.7406 112.942 16.6322 113.015 16.4742L115.547 10.9845C115.726 10.597 116.276 10.597 116.455 10.9844L118.987 16.4741C119.06 16.632 119.209 16.7408 119.382 16.7612L125.386 17.4732C125.809 17.5234 125.979 18.0472 125.666 18.3369L121.228 22.4419C121.1 22.56 121.043 22.7357 121.077 22.9063L122.255 28.8359C122.338 29.2544 121.893 29.5787 121.52 29.3703L116.245 26.4166C116.093 26.3317 115.909 26.3321 115.757 26.417L110.481 29.3695C110.109 29.5779 109.663 29.2544 109.746 28.8359L110.924 22.9066C110.958 22.7361 110.901 22.5599 110.774 22.4419L106.335 18.3368Z" fill="#FFB647" stroke="#2E1F27" stroke-width="1" stroke-linecap="round" stroke-linejoin="round"/>
<path d="M138.335 18.3368C138.022 18.0471 138.192 17.5234 138.616 17.4732L144.619 16.7611C144.792 16.7406 144.942 16.6322 145.015 16.4742L147.547 10.9845C147.726 10.597 148.276 10.597 148.455 10.9844L150.987 16.4741C151.06 16.632 151.209 16.7408 151.382 16.7612L157.386 17.4732C157.809 17.5234 157.979 18.0472 157.666 18.3369L153.228 22.4419C153.1 22.56 153.043 22.7357 153.077 22.9063L154.255 28.8359C154.338 29.2544 153.893 29.5787 153.52 29.3703L148.245 26.4166C148.093 26.3317 147.909 26.3321 147.757 26.417L142.481 29.3695C142.109 29.5779 141.663 29.2544 141.746 28.8359L142.924 22.9066C142.958 22.7361 142.901 22.5599 142.774 22.4419L138.335 18.3368Z" fill="#FFB647" stroke="#2E1F27" stroke-width="1" stroke-linecap="round" stroke-linejoin="round"/>
</svg>
